<?xml version="1.0" encoding="UTF-8"?>
<!DOCTYPE svg PUBLIC "-//W3C//DTD SVG 1.1//EN" "http://www.w3.org/Graphics/SVG/1.1/DTD/svg11.dtd">
<!-- Creator: CorelDRAW 2018 (64-Bit) -->
<svg xmlns="http://www.w3.org/2000/svg" xml:space="preserve" width="7.95in" height="7.95in" version="1.1" style="shape-rendering:geometricPrecision; text-rendering:geometricPrecision; image-rendering:optimizeQuality; fill-rule:evenodd; clip-rule:evenodd"
viewBox="0 0 7938.55 7938.55"
 xmlns:xlink="http://www.w3.org/1999/xlink">
 <defs>
  <style type="text/css">
   <![CDATA[
    .str0 {stroke:#0351B0;stroke-width:221.89;stroke-miterlimit:2.61313}
    .fil0 {fill:#002D64}
    .fil6 {fill:#F27D00}
    .fil5 {fill:#FFCC00}
    .fil4 {fill:#FEFEFE;fill-rule:nonzero}
    .fil3 {fill:#002D64;fill-rule:nonzero}
    .fil1 {fill:#0351B0;fill-rule:nonzero}
    .fil2 {fill:#36ABFF;fill-rule:nonzero}
   ]]>
  </style>
   <mask id="id0">
  <linearGradient id="id1" gradientUnits="userSpaceOnUse" x1="6453.45" y1="5905.61" x2="3055.02" y2="3273.82">
   <stop offset="0" style="stop-opacity:0.8; stop-color:white"/>
   <stop offset="1" style="stop-opacity:0; stop-color:white"/>
  </linearGradient>
    <rect style="fill:url(#id1)" x="1147.99" y="1001.71" width="5427.97" height="5732.77"/>
   </mask>
    <mask id="id2">
  <linearGradient id="id3" gradientUnits="userSpaceOnUse" x1="4159.9" y1="3797.42" x2="3226.14" y2="3337.32">
   <stop offset="0" style="stop-opacity:0; stop-color:white"/>
   <stop offset="1" style="stop-opacity:1; stop-color:white"/>
  </linearGradient>
     <rect style="fill:url(#id3)" x="3178.45" y="3023.38" width="1048.59" height="1048.59"/>
    </mask>
 </defs>
 <g id="Layer_x0020_1">
  <metadata id="CorelCorpID_0Corel-Layer"/>
  <circle class="fil0 str0" cx="3969.28" cy="3969.27" r="3858.33"/>
  <path class="fil1" d="M3419.01 1002.4l-0.45 0c-1253.61,0 -2269.88,1016.24 -2269.88,2269.85l0.04 1.57 2115.09 0c-26.06,52.31 -40.75,111.28 -40.75,173.7l0 97.12 -1791.38 0c0.74,1089.02 768,1998.36 1791.38,2218.71l0 580.43c0,215.4 174.59,390.01 390.01,390.01l1971.79 0c215.34,0 389.93,-174.61 389.93,-390.01l0 -1119.52 507.21 0c75.38,0 112.74,-56.75 83.09,-126.07l-590.3 -1380 0 -270.67c0,-24.11 -2.46,-47.69 -6.67,-70.59 -85.13,-1176.8 -1066.03,-2105.22 -2264.46,-2105.46l0 1786.04 -90.58 0c-70.66,0 -136.93,18.78 -194.07,51.63l0 -2106.74z"/>
  <path class="fil2" d="M3702.92 5421.86l0 -1880.06 1879.1 0c-0.68,-1037.09 -841.51,-1877.53 -1878.72,-1877.53 -1037.68,0 -1878.82,841.12 -1878.82,1878.8 0,1037.51 840.93,1878.57 1878.44,1878.78z"/>
  <path class="fil2" style="mask:url(#id0)" d="M3419.01 1002.4l-0.45 0c-1253.61,0 -2269.88,1016.24 -2269.88,2269.85l0.04 1.57 2115.09 0c-26.06,52.31 -40.75,111.28 -40.75,173.7l0 97.12 -1791.38 0c0.74,1089.02 768,1998.36 1791.38,2218.71l0 580.43c0,215.4 174.59,390.01 390.01,390.01l1971.79 0c215.34,0 389.93,-174.61 389.93,-390.01l0 -1119.52 507.21 0c75.38,0 112.74,-56.75 83.09,-126.07l-590.3 -1380 0 -270.67c0,-24.11 -2.46,-47.69 -6.67,-70.59 -85.13,-1176.8 -1066.03,-2105.22 -2264.46,-2105.46l0 1786.04 -90.58 0c-70.66,0 -136.93,18.78 -194.07,51.63l0 -2106.74z"/>
  <path class="fil3" d="M4946.4 3543.07c0,686.57 -556.6,1243.11 -1243.19,1243.11 -686.51,0 -1243.12,-556.53 -1243.12,-1243.11 0,-686.59 556.62,-1243.13 1243.12,-1243.13 686.6,0 1243.19,556.54 1243.19,1243.13z"/>
  <path class="fil2" d="M3627.38 3714.9c0,0.29 0,130.5 0,328.46 0,593.91 0,1794.95 0,1901.56 0,21.94 -0.53,44.63 -0.53,67.92 0.07,29.95 0.83,60.72 6.22,92.47 4.03,23.73 10.85,48.28 23.28,72.33 18.12,36.14 51.06,69.11 92.83,87.89 41.86,19.25 90.23,27.04 148.04,27.19 389.63,0 1484.95,0 1484.95,0l0 -149.76c0,0 -273.81,0 -596.37,0 -322.54,0 -693.77,0 -888.58,0 -38.95,0 -64.84,-5.16 -79.82,-11.08 -11.38,-4.5 -16.85,-8.68 -20.88,-12.8 -5.77,-6.07 -10.72,-14.69 -14.69,-32.88 -3.88,-17.81 -5.31,-43.34 -5.24,-73.37 0,-20.74 0.53,-43.57 0.53,-67.92 0,-71.06 0,-628.55 0,-1168.31 0,-269.84 0,-535.26 0,-733.24 0,-197.96 0,-328.16 0,-328.46l-149.74 0z"/>
  <path class="fil4" d="M4361.35 3543.07c0,363.5 -294.61,658.13 -658.13,658.13 -363.44,0 -658.13,-294.63 -658.13,-658.13 0,-363.52 294.69,-658.15 658.13,-658.15 363.53,0 658.13,294.63 658.13,658.15z"/>
  <path class="fil2" d="M6125.67 3732.05l-625.43 0c-183.44,0 -332.2,164.63 -332.2,367.77 0,203.13 148.76,367.79 332.2,367.79l909.64 0 -284.21 -735.56z"/>
  <path class="fil2" d="M5311.27 5689.98c-64.75,0 -117.33,52.49 -117.33,117.33l0 1032.73 390.92 0c259.27,0 469.45,-210.18 469.45,-469.45l0 -680.61 -743.05 0z"/>
  <g id="_17442457760">
   <circle class="fil5" cx="3702.74" cy="3547.68" r="520.83"/>
   <path class="fil6" style="mask:url(#id2)" d="M3702.74 3026.85c287.64,0 520.83,233.18 520.83,520.83 0,287.65 -233.18,520.83 -520.83,520.83 -287.65,0 -520.83,-233.18 -520.83,-520.83 0,-287.65 233.18,-520.83 520.83,-520.83z"/>
  </g>
 </g>
</svg>
