<?xml version="1.0" encoding="UTF-8"?>
<!DOCTYPE svg PUBLIC "-//W3C//DTD SVG 1.1//EN" "http://www.w3.org/Graphics/SVG/1.1/DTD/svg11.dtd">
<!-- Creator: CorelDRAW 2018 (64-Bit) -->
<svg xmlns="http://www.w3.org/2000/svg" xml:space="preserve" width="7.95028in" height="7.95028in" version="1.1" style="shape-rendering:geometricPrecision; text-rendering:geometricPrecision; image-rendering:optimizeQuality; fill-rule:evenodd; clip-rule:evenodd"
viewBox="0 0 8892.86 8892.86"
 xmlns:xlink="http://www.w3.org/1999/xlink">
 <defs>
  <style type="text/css">
   <![CDATA[
    .str0 {stroke:#0351B0;stroke-width:248.57;stroke-miterlimit:2.61313}
    .fil0 {fill:#002D64}
    .fil4 {fill:#F27D00}
    .fil3 {fill:#FFCC00}
    .fil5 {fill:#002D64;fill-rule:nonzero}
    .fil1 {fill:#0351B0;fill-rule:nonzero}
    .fil2 {fill:#36ABFF;fill-rule:nonzero}
   ]]>
  </style>
   <mask id="id0">
  <linearGradient id="id1" gradientUnits="userSpaceOnUse" x1="7931.89" y1="4611.6" x2="2674.53" y2="4687.43">
   <stop offset="0" style="stop-opacity:1; stop-color:white"/>
   <stop offset="1" style="stop-opacity:0; stop-color:white"/>
  </linearGradient>
    <rect style="fill:url(#id1)" x="765.44" y="777.99" width="7380.76" height="7380.66"/>
   </mask>
    <mask id="id2">
  <linearGradient id="id3" gradientUnits="userSpaceOnUse" x1="6650.23" y1="5682.59" x2="2221.12" y2="3500.19">
   <stop offset="0" style="stop-opacity:0; stop-color:white"/>
   <stop offset="1" style="stop-opacity:1; stop-color:white"/>
  </linearGradient>
     <rect style="fill:url(#id3)" x="2007.47" y="2023.63" width="4948.67" height="4948.67"/>
    </mask>
 </defs>
 <g id="Layer_x0020_1">
  <metadata id="CorelCorpID_0Corel-Layer"/>
  <circle class="fil0 str0" cx="4446.43" cy="4446.43" r="4322.15"/>
  <path class="fil1" d="M794.36 4920.05c249.46,2022.3 2091.05,3459.15 4113.24,3209.69 2022.21,-249.6 3459.15,-2091.02 3209.69,-4113.3 -249.53,-2022.12 -2091.21,-3459.06 -4113.33,-3209.51 -2022.18,249.44 -3459.08,2091.03 -3209.59,4113.12z"/>
  <path class="fil2" style="mask:url(#id0)" d="M794.36 4920.05c249.46,2022.3 2091.05,3459.15 4113.24,3209.69 2022.21,-249.6 3459.15,-2091.02 3209.69,-4113.3 -249.53,-2022.12 -2091.21,-3459.06 -4113.33,-3209.51 -2022.18,249.44 -3459.08,2091.03 -3209.59,4113.12z"/>
  <g id="_17534611040">
   <circle class="fil3" cx="4481.8" cy="4497.96" r="2470.45"/>
   <path class="fil4" style="mask:url(#id2)" d="M4481.8 2027.51c1364.39,0 2470.45,1106.06 2470.45,2470.45 0,1364.39 -1106.06,2470.45 -2470.45,2470.45 -1364.39,0 -2470.45,-1106.06 -2470.45,-2470.45 0,-1364.39 1106.06,-2470.45 2470.45,-2470.45z"/>
  </g>
  <path class="fil5" d="M5006.94 5373.5l-695.84 0 0 -768.45 519.42 0c0,0 519.39,-36.74 519.39,384.16 0,375.28 -342.98,384.29 -342.98,384.29zm-695.84 -1729.02l377.19 0c0,0 376.94,-53.49 376.94,305.96 0,298.86 -249.02,305.89 -249.02,305.89l-505.1 0 0 -611.84zm1159.7 668.75c0,0 159.06,-63.93 156.43,-448.16 -3.85,-590.4 -597.5,-562.11 -597.5,-562.11l-122.21 0 0 -377.01 -313.08 0 0 377.01 -283.34 0 0 -377.01 -313.09 0 0 377.01 -697.29 0 0 327.23 505.2 0 0 1707.65 -469.71 0 0 348.57c0,0 310.37,0 661.8,0l0 391.41 313.09 0 0 -391.41c99.44,0 195.9,0 283.34,0l0 391.41 313.08 0 0 -391.51c355.67,-1.61 877.06,-57.01 940.3,-640.18 64.14,-590.48 -377.01,-732.89 -377.01,-732.89z"/>
 </g>
</svg>
