<?xml version="1.0" encoding="UTF-8"?>
<!DOCTYPE svg PUBLIC "-//W3C//DTD SVG 1.1//EN" "http://www.w3.org/Graphics/SVG/1.1/DTD/svg11.dtd">
<!-- Creator: CorelDRAW 2018 (64-Bit) -->
<svg xmlns="http://www.w3.org/2000/svg" xml:space="preserve" width="7.95028in" height="7.95028in" version="1.1" style="shape-rendering:geometricPrecision; text-rendering:geometricPrecision; image-rendering:optimizeQuality; fill-rule:evenodd; clip-rule:evenodd"
viewBox="0 0 8407.2 8407.2"
 xmlns:xlink="http://www.w3.org/1999/xlink">
 <defs>
  <style type="text/css">
   <![CDATA[
    .str0 {stroke:#0351B0;stroke-width:234.99;stroke-miterlimit:2.61313}
    .fil0 {fill:#002D64}
    .fil5 {fill:#F27D00}
    .fil4 {fill:#FFCC00}
    .fil3 {fill:#002D64;fill-rule:nonzero}
    .fil1 {fill:#0351B0;fill-rule:nonzero}
    .fil2 {fill:#36ABFF;fill-rule:nonzero}
   ]]>
  </style>
   <mask id="id0">
  <linearGradient id="id1" gradientUnits="userSpaceOnUse" x1="5174.75" y1="3831.79" x2="1590.78" y2="3753.61">
   <stop offset="0" style="stop-opacity:1; stop-color:white"/>
   <stop offset="1" style="stop-opacity:0; stop-color:white"/>
  </linearGradient>
    <rect style="fill:url(#id1)" x="857.66" y="1594.69" width="4318.15" height="4317.97"/>
   </mask>
   <mask id="id2">
  <linearGradient id="id3" gradientUnits="userSpaceOnUse" x1="7495.27" y1="5078.54" x2="5478.28" y2="5055.69">
   <stop offset="0" style="stop-opacity:1; stop-color:white"/>
   <stop offset="1" style="stop-opacity:0; stop-color:white"/>
  </linearGradient>
    <rect style="fill:url(#id3)" x="4788.92" y="3808.47" width="2820.64" height="2820.55"/>
   </mask>
    <mask id="id4">
  <linearGradient id="id5" gradientUnits="userSpaceOnUse" x1="3816.58" y1="4184.46" x2="2193.15" y2="3384.53">
   <stop offset="0" style="stop-opacity:0; stop-color:white"/>
   <stop offset="1" style="stop-opacity:1; stop-color:white"/>
  </linearGradient>
     <rect style="fill:url(#id5)" x="2112.59" y="2841.07" width="1818.36" height="1818.37"/>
    </mask>
    <mask id="id6">
  <linearGradient id="id7" gradientUnits="userSpaceOnUse" x1="6721.88" y1="5500.52" x2="5648.27" y2="4971.5">
   <stop offset="0" style="stop-opacity:0; stop-color:white"/>
   <stop offset="1" style="stop-opacity:1; stop-color:white"/>
  </linearGradient>
     <rect style="fill:url(#id7)" x="5593.75" y="4610.86" width="1205.01" height="1205.01"/>
    </mask>
 </defs>
 <g id="Layer_x0020_1">
  <metadata id="CorelCorpID_0Corel-Layer"/>
  <circle class="fil0 str0" cx="4203.6" cy="4203.6" r="4086.1"/>
  <path class="fil1" d="M6413.41 6128.73c-501.71,118.08 -1005.98,-194.05 -1123.95,-695.83 -118.09,-501.65 193.93,-1005.92 695.51,-1124.01 501.84,-118.09 1006.02,193.99 1124.11,695.67 117.96,501.74 -193.96,1006.01 -695.67,1124.16zm975.26 -1504.89l-180.49 42.46 -29.03 -47.49c-29.64,-48.45 -63.39,-94.96 -99.99,-138.35l-35.95 -42.92 97.8 -157.86c14.55,-23.44 19.08,-51.08 12.69,-78.09 -6.36,-26.84 -22.82,-49.59 -46.26,-64.2l-345.42 -213.81c-23.5,-14.48 -51.17,-19.08 -78.25,-12.79 -26.83,6.36 -49.72,22.79 -64.2,46.32l-97.65 157.74 -54.38 -13.06c-55.61,-13.49 -112.22,-22.76 -168.27,-27.67l-55.58 -4.79 -42.49 -180.52c-13.12,-55.52 -68.86,-89.96 -124.26,-76.8l-197.82 46.41 -197.88 46.63c-55.4,13.06 -89.89,68.74 -76.8,124.33l42.43 180.49 -47.65 28.96c-47.96,29.43 -94.55,62.97 -138.25,100.02l-42.71 35.82 -157.86 -97.71c-23.62,-14.51 -51.35,-18.96 -78.09,-12.63 -27.14,6.3 -49.87,22.76 -64.39,46.17l-213.91 345.46c-29.86,48.48 -14.88,112.43 33.63,142.48l157.74 97.61 -13.06 54.26c-13.4,55.59 -22.79,112.22 -27.67,168.42l-4.88 55.68 -180.31 42.37c-55.58,13.22 -90.14,68.96 -77.02,124.32l92.98 395.39c13.06,55.58 68.92,90.14 124.48,77.02l180.37 -42.24 29.18 47.4c29.33,48.14 62.84,94.65 99.65,138.56l35.97 42.74 -97.52 157.61c-30.02,48.61 -15.04,112.5 33.47,142.6l345.43 213.63c23.53,14.7 51.17,19.18 78.19,12.76 26.84,-6.21 49.81,-22.76 64.26,-46.29l97.67 -157.77 54.26 13.16c55.24,13.34 112.03,22.54 168.42,27.7l55.49 4.76 42.46 180.52c13.13,55.46 68.96,90.01 124.39,76.83l197.76 -46.38 197.88 -46.57c55.46,-13.06 89.93,-68.96 76.8,-124.39l-42.46 -180.4 47.64 -29.21c48.45,-29.65 94.9,-63.27 138.22,-99.81l42.77 -36.04 158.01 97.7c23.5,14.73 51.3,19.21 78.1,12.91 26.96,-6.49 49.78,-22.91 64.2,-46.45l213.88 -345.24c29.99,-48.54 14.95,-112.53 -33.54,-142.48l-157.86 -97.74 13.09 -54.47c13.37,-55.12 22.79,-111.75 27.76,-168.3l4.88 -55.52 180.22 -42.31c55.65,-13.15 90.2,-68.95 77.11,-124.51l-93.01 -395.54c-13.19,-55.31 -68.86,-89.86 -124.39,-76.89z"/>
  <path class="fil1" d="M3016.73 5052.96c-716.55,0 -1299.25,-582.95 -1299.25,-1299.44 0,-716.27 582.71,-1299.32 1299.25,-1299.32 716.39,0 1299.25,583.05 1299.25,1299.32 0,716.48 -582.87,1299.44 -1299.25,1299.44zm1998.53 -1772.89l-286.17 0 -27.02 -81.71c-27.33,-83.1 -61.48,-165.15 -101.19,-243.37l-38.94 -77.02 202.82 -202.73c30.2,-30.08 46.69,-70.26 46.69,-112.99 0,-42.58 -16.49,-82.76 -46.69,-112.96l-443.62 -443.59c-30.14,-30.26 -70.35,-46.94 -113.12,-46.94 -42.64,0 -82.85,16.67 -112.99,46.85l-202.7 202.73 -77.02 -38.91c-78.86,-39.99 -160.73,-74.05 -243.27,-101.16l-81.83 -26.96 0 -286.38c0,-87.98 -71.7,-159.5 -159.65,-159.5l-627.67 0c-87.98,0 -159.68,71.52 -159.68,159.5l0 286.38 -81.83 26.96c-82.42,27.11 -164.37,61.17 -243.27,101.16l-76.95 38.91 -202.76 -202.63c-30.29,-30.26 -70.35,-46.94 -112.96,-46.94 -42.77,0 -82.85,16.67 -112.99,46.94l-443.72 443.59c-62.25,62.35 -62.25,163.73 0,226.17l202.51 202.51 -38.81 77.02c-39.87,78.78 -73.81,160.49 -101.04,243.37l-27.05 81.71 -286.17 0c-88.17,0 -159.78,71.8 -159.78,159.84l0 627.46c0,88.13 71.61,159.84 159.78,159.84l286.17 0 27.05 81.71c27.24,82.67 61.18,164.59 101.04,243.37l38.81 77.1 -202.51 202.51c-62.25,62.41 -62.25,163.76 0,226.17l443.6 443.6c30.26,30.17 70.34,46.85 113.11,46.85 42.62,0 82.88,-16.68 112.96,-46.85l202.76 -202.73 77.05 38.88c78.22,39.56 160.21,73.77 243.34,101.35l81.68 26.9 0 286.29c0,88.01 71.7,159.59 159.68,159.59l627.67 0c87.95,0 159.65,-71.58 159.65,-159.59l0 -286.29 81.71 -26.9c83.47,-27.73 165.24,-61.79 243.34,-101.35l77.02 -38.88 202.91 202.73c30.14,30.17 70.19,46.85 113.05,46.85 42.55,0 82.76,-16.68 112.9,-46.85l443.62 -443.5c62.2,-62.5 62.2,-163.85 0,-226.14l-202.82 -202.73 38.94 -77.01c39.71,-78.34 73.86,-160.27 101.19,-243.37l27.02 -81.71 286.17 0c88.19,0 159.81,-71.7 159.81,-159.84l0 -627.46c0,-88.04 -71.61,-159.84 -159.81,-159.84z"/>
  <path class="fil2" style="mask:url(#id0)" d="M3016.73 5052.96c-716.55,0 -1299.25,-582.95 -1299.25,-1299.44 0,-716.27 582.71,-1299.32 1299.25,-1299.32 716.39,0 1299.25,583.05 1299.25,1299.32 0,716.48 -582.87,1299.44 -1299.25,1299.44zm1998.53 -1772.89l-286.17 0 -27.02 -81.71c-27.33,-83.1 -61.48,-165.15 -101.19,-243.37l-38.94 -77.02 202.82 -202.73c30.2,-30.08 46.69,-70.26 46.69,-112.99 0,-42.58 -16.49,-82.76 -46.69,-112.96l-443.62 -443.59c-30.14,-30.26 -70.35,-46.94 -113.12,-46.94 -42.64,0 -82.85,16.67 -112.99,46.85l-202.7 202.73 -77.02 -38.91c-78.86,-39.99 -160.73,-74.05 -243.27,-101.16l-81.83 -26.96 0 -286.38c0,-87.98 -71.7,-159.5 -159.65,-159.5l-627.67 0c-87.98,0 -159.68,71.52 -159.68,159.5l0 286.38 -81.83 26.96c-82.42,27.11 -164.37,61.17 -243.27,101.16l-76.95 38.91 -202.76 -202.63c-30.29,-30.26 -70.35,-46.94 -112.96,-46.94 -42.77,0 -82.85,16.67 -112.99,46.94l-443.72 443.59c-62.25,62.35 -62.25,163.73 0,226.17l202.51 202.51 -38.81 77.02c-39.87,78.78 -73.81,160.49 -101.04,243.37l-27.05 81.71 -286.17 0c-88.17,0 -159.78,71.8 -159.78,159.84l0 627.46c0,88.13 71.61,159.84 159.78,159.84l286.17 0 27.05 81.71c27.24,82.67 61.18,164.59 101.04,243.37l38.81 77.1 -202.51 202.51c-62.25,62.41 -62.25,163.76 0,226.17l443.6 443.6c30.26,30.17 70.34,46.85 113.11,46.85 42.62,0 82.88,-16.68 112.96,-46.85l202.76 -202.73 77.05 38.88c78.22,39.56 160.21,73.77 243.34,101.35l81.68 26.9 0 286.29c0,88.01 71.7,159.59 159.68,159.59l627.67 0c87.95,0 159.65,-71.58 159.65,-159.59l0 -286.29 81.71 -26.9c83.47,-27.73 165.24,-61.79 243.34,-101.35l77.02 -38.88 202.91 202.73c30.14,30.17 70.19,46.85 113.05,46.85 42.55,0 82.76,-16.68 112.9,-46.85l443.62 -443.5c62.2,-62.5 62.2,-163.85 0,-226.14l-202.82 -202.73 38.94 -77.01c39.71,-78.34 73.86,-160.27 101.19,-243.37l27.02 -81.71 286.17 0c88.19,0 159.81,-71.7 159.81,-159.84l0 -627.46c0,-88.04 -71.61,-159.84 -159.81,-159.84z"/>
  <path class="fil2" style="mask:url(#id2)" d="M6413.41 6128.73c-501.71,118.08 -1005.98,-194.05 -1123.95,-695.83 -118.09,-501.65 193.93,-1005.92 695.51,-1124.01 501.84,-118.09 1006.02,193.99 1124.11,695.67 117.96,501.74 -193.96,1006.01 -695.67,1124.16zm975.26 -1504.89l-180.49 42.46 -29.03 -47.49c-29.64,-48.45 -63.39,-94.96 -99.99,-138.35l-35.95 -42.92 97.8 -157.86c14.55,-23.44 19.08,-51.08 12.69,-78.09 -6.36,-26.84 -22.82,-49.59 -46.26,-64.2l-345.42 -213.81c-23.5,-14.48 -51.17,-19.08 -78.25,-12.79 -26.83,6.36 -49.72,22.79 -64.2,46.32l-97.65 157.74 -54.38 -13.06c-55.61,-13.49 -112.22,-22.76 -168.27,-27.67l-55.58 -4.79 -42.49 -180.52c-13.12,-55.52 -68.86,-89.96 -124.26,-76.8l-197.82 46.41 -197.88 46.63c-55.4,13.06 -89.89,68.74 -76.8,124.33l42.43 180.49 -47.65 28.96c-47.96,29.43 -94.55,62.97 -138.25,100.02l-42.71 35.82 -157.86 -97.71c-23.62,-14.51 -51.35,-18.96 -78.09,-12.63 -27.14,6.3 -49.87,22.76 -64.39,46.17l-213.91 345.46c-29.86,48.48 -14.88,112.43 33.63,142.48l157.74 97.61 -13.06 54.26c-13.4,55.59 -22.79,112.22 -27.67,168.42l-4.88 55.68 -180.31 42.37c-55.58,13.22 -90.14,68.96 -77.02,124.32l92.98 395.39c13.06,55.58 68.92,90.14 124.48,77.02l180.37 -42.24 29.18 47.4c29.33,48.14 62.84,94.65 99.65,138.56l35.97 42.74 -97.52 157.61c-30.02,48.61 -15.04,112.5 33.47,142.6l345.43 213.63c23.53,14.7 51.17,19.18 78.19,12.76 26.84,-6.21 49.81,-22.76 64.26,-46.29l97.67 -157.77 54.26 13.16c55.24,13.34 112.03,22.54 168.42,27.7l55.49 4.76 42.46 180.52c13.13,55.46 68.96,90.01 124.39,76.83l197.76 -46.38 197.88 -46.57c55.46,-13.06 89.93,-68.96 76.8,-124.39l-42.46 -180.4 47.64 -29.21c48.45,-29.65 94.9,-63.27 138.22,-99.81l42.77 -36.04 158.01 97.7c23.5,14.73 51.3,19.21 78.1,12.91 26.96,-6.49 49.78,-22.91 64.2,-46.45l213.88 -345.24c29.99,-48.54 14.95,-112.53 -33.54,-142.48l-157.86 -97.74 13.09 -54.47c13.37,-55.12 22.79,-111.75 27.76,-168.3l4.88 -55.52 180.22 -42.31c55.65,-13.15 90.2,-68.95 77.11,-124.51l-93.01 -395.54c-13.19,-55.31 -68.86,-89.86 -124.39,-76.89z"/>
  <path class="fil3" d="M6200.64 4246.55c-75.6,0 -150.79,8.86 -224.01,26.03 -521.73,122.9 -846.27,647.13 -723.47,1168.82 103.82,441.31 492.51,749.61 945.15,749.61 75.38,0 150.57,-8.86 223.42,-26.15 252.82,-59.48 467.25,-213.72 603.96,-434.45 136.64,-220.95 179.17,-481.64 119.66,-734.36 -103.82,-441.18 -492.29,-749.49 -944.72,-749.49zm-2.32 2053.42c-503.47,0 -935.67,-342.74 -1051.26,-833.61 -136.52,-580.09 224.41,-1163.11 804.59,-1299.75 81.4,-19.3 165.02,-29 248.49,-29 503.72,0 935.83,342.86 1051.32,833.64 66.08,280.95 18.81,570.91 -133.16,816.48 -152.05,245.56 -390.48,417.13 -671.49,483.06 -81,19.33 -164.62,29.18 -248.49,29.18z"/>
  <path class="fil3" d="M3016.73 2327.5c-786.27,0 -1425.96,639.81 -1425.96,1426.11 0,786.31 639.69,1426.11 1425.96,1426.11 786.27,0 1425.93,-639.8 1425.93,-1426.11 0,-786.3 -639.65,-1426.11 -1425.93,-1426.11zm0 3078.82c-911.28,0 -1652.65,-741.4 -1652.65,-1652.71 0,-911.25 741.37,-1652.68 1652.65,-1652.68 911.25,0 1652.62,741.43 1652.62,1652.68 0,911.31 -741.37,1652.71 -1652.62,1652.71z"/>
  <g id="_17527346640">
   <circle class="fil4" cx="3021.77" cy="3750.25" r="905.51"/>
   <path class="fil5" style="mask:url(#id4)" d="M3021.77 2844.74c500.1,0 905.51,405.41 905.51,905.51 0,500.1 -405.41,905.51 -905.51,905.51 -500.1,0 -905.51,-405.41 -905.51,-905.51 0,-500.1 405.41,-905.51 905.51,-905.51z"/>
  </g>
  <g id="_17527349328">
   <circle class="fil4" cx="6196.25" cy="5213.36" r="598.83"/>
   <path class="fil5" style="mask:url(#id6)" d="M6196.25 4614.53c330.73,0 598.83,268.11 598.83,598.83 0,330.73 -268.11,598.83 -598.83,598.83 -330.73,0 -598.83,-268.11 -598.83,-598.83 0,-330.73 268.11,-598.83 598.83,-598.83z"/>
  </g>
 </g>
</svg>
