<?xml version="1.0" encoding="UTF-8"?>
<!DOCTYPE svg PUBLIC "-//W3C//DTD SVG 1.1//EN" "http://www.w3.org/Graphics/SVG/1.1/DTD/svg11.dtd">
<!-- Creator: CorelDRAW 2018 (64-Bit) -->
<svg xmlns="http://www.w3.org/2000/svg" xml:space="preserve" width="2385px" height="2385px" version="1.1" style="shape-rendering:geometricPrecision; text-rendering:geometricPrecision; image-rendering:optimizeQuality; fill-rule:evenodd; clip-rule:evenodd"
viewBox="0 0 2522.07 2522.07"
 xmlns:xlink="http://www.w3.org/1999/xlink">
 <defs>
  <style type="text/css">
   <![CDATA[
    .str0 {stroke:#04ADD9;stroke-width:70.5;stroke-miterlimit:2.61313}
    .fil0 {fill:#022045}
    .fil5 {fill:#FF6403}
    .fil4 {fill:#FFCC00}
    .fil3 {fill:#002D64;fill-rule:nonzero}
    .fil2 {fill:#04ADD9;fill-rule:nonzero}
    .fil1 {fill:#0758BA;fill-rule:nonzero}
   ]]>
  </style>
   <mask id="id0">
  <linearGradient id="id1" gradientUnits="userSpaceOnUse" x1="1552.41" y1="1148.07" x2="477.26" y2="1124.62">
   <stop offset="0" style="stop-opacity:1; stop-color:white"/>
   <stop offset="1" style="stop-opacity:0; stop-color:white"/>
  </linearGradient>
    <rect style="fill:url(#id1)" x="257.33" y="476.97" width="1295.4" height="1295.34"/>
   </mask>
   <mask id="id2">
  <linearGradient id="id3" gradientUnits="userSpaceOnUse" x1="2248.55" y1="1523.8" x2="1643.48" y2="1516.95">
   <stop offset="0" style="stop-opacity:1; stop-color:white"/>
   <stop offset="1" style="stop-opacity:0; stop-color:white"/>
  </linearGradient>
    <rect style="fill:url(#id3)" x="1436.68" y="1142.8" width="846.16" height="846.13"/>
   </mask>
   <mask id="id4">
  <linearGradient id="id5" gradientUnits="userSpaceOnUse" x1="1144.93" y1="1255.29" x2="657.92" y2="1015.32">
   <stop offset="0" style="stop-opacity:0; stop-color:white"/>
   <stop offset="1" style="stop-opacity:1; stop-color:white"/>
  </linearGradient>
    <rect style="fill:url(#id5)" x="633.76" y="852.29" width="545.48" height="545.49"/>
   </mask>
   <mask id="id6">
  <linearGradient id="id7" gradientUnits="userSpaceOnUse" x1="2016.49" y1="1650.1" x2="1694.42" y2="1491.4">
   <stop offset="0" style="stop-opacity:0; stop-color:white"/>
   <stop offset="1" style="stop-opacity:1; stop-color:white"/>
  </linearGradient>
    <rect style="fill:url(#id7)" x="1678.07" y="1383.21" width="361.49" height="361.49"/>
   </mask>
 </defs>
 <g id="Layer_x0020_1">
  <metadata id="CorelCorpID_0Corel-Layer"/>
  <circle class="fil0 str0" cx="1261.04" cy="1261.04" r="1225.79"/>
  <path class="fil1" d="M1923.96 1838.56c-150.51,35.42 -301.79,-58.22 -337.18,-208.74 -35.42,-150.49 58.18,-301.77 208.65,-337.2 150.55,-35.42 301.79,58.2 337.22,208.7 35.39,150.52 -58.19,301.79 -208.69,337.24zm292.56 -451.45l-54.14 12.73 -8.71 -14.24c-8.89,-14.54 -19.02,-28.49 -30,-41.51l-10.78 -12.87 29.34 -47.36c4.36,-7.03 5.72,-15.32 3.81,-23.43 -1.91,-8.05 -6.85,-14.87 -13.88,-19.26l-103.63 -64.14c-7.05,-4.34 -15.35,-5.72 -23.47,-3.83 -8.05,1.9 -14.92,6.83 -19.26,13.89l-29.29 47.32 -16.32 -3.92c-16.68,-4.05 -33.66,-6.82 -50.47,-8.3l-16.68 -1.43 -12.75 -54.16c-3.93,-16.66 -20.65,-26.99 -37.27,-23.04l-59.35 13.92 -59.36 13.99c-16.62,3.92 -26.97,20.62 -23.04,37.3l12.73 54.15 -14.29 8.69c-14.39,8.82 -28.37,18.88 -41.48,30l-12.81 10.75 -47.35 -29.31c-7.09,-4.36 -15.41,-5.69 -23.43,-3.79 -8.15,1.89 -14.96,6.82 -19.32,13.85l-64.17 103.63c-8.96,14.54 -4.46,33.73 10.09,42.74l47.32 29.29 -3.92 16.27c-4.02,16.68 -6.84,33.67 -8.3,50.53l-1.46 16.7 -54.09 12.71c-16.68,3.96 -27.04,20.68 -23.11,37.29l27.9 118.62c3.91,16.67 20.67,27.04 37.34,23.1l54.11 -12.67 8.75 14.22c8.8,14.44 18.85,28.39 29.9,41.57l10.79 12.82 -29.26 47.28c-9,14.58 -4.51,33.75 10.04,42.78l103.63 64.08c7.06,4.41 15.35,5.76 23.45,3.83 8.06,-1.86 14.95,-6.83 19.28,-13.89l29.3 -47.32 16.28 3.94c16.57,4 33.61,6.77 50.53,8.31l16.64 1.43 12.74 54.15c3.94,16.64 20.69,27.01 37.31,23.05l59.33 -13.91 59.36 -13.97c16.64,-3.92 26.98,-20.69 23.04,-37.32l-12.74 -54.11 14.3 -8.77c14.53,-8.89 28.46,-18.98 41.46,-29.94l12.83 -10.81 47.4 29.31c7.05,4.42 15.39,5.76 23.43,3.87 8.09,-1.94 14.93,-6.87 19.26,-13.93l64.16 -103.57c9,-14.56 4.48,-33.76 -10.06,-42.74l-47.36 -29.32 3.93 -16.34c4.01,-16.54 6.84,-33.53 8.33,-50.49l1.46 -16.66 54.07 -12.69c16.69,-3.94 27.06,-20.68 23.13,-37.35l-27.9 -118.66c-3.96,-16.59 -20.66,-26.95 -37.32,-23.06z"/>
  <path class="fil1" d="M904.99 1515.83c-214.96,0 -389.76,-174.88 -389.76,-389.81 0,-214.88 174.8,-389.79 389.76,-389.79 214.91,0 389.76,174.91 389.76,389.79 0,214.93 -174.85,389.81 -389.76,389.81zm599.54 -531.85l-85.85 0 -8.1 -24.51c-8.2,-24.93 -18.45,-49.54 -30.36,-73.01l-11.68 -23.1 60.84 -60.82c9.06,-9.02 14.01,-21.07 14.01,-33.89 0,-12.78 -4.95,-24.83 -14.01,-33.89l-133.08 -133.07c-9.04,-9.08 -21.1,-14.08 -33.93,-14.08 -12.8,0 -24.86,5 -33.9,14.05l-60.81 60.82 -23.1 -11.68c-23.66,-11.99 -48.22,-22.21 -72.98,-30.34l-24.55 -8.09 0 -85.91c0,-26.4 -21.51,-47.85 -47.89,-47.85l-188.3 0c-26.39,0 -47.9,21.45 -47.9,47.85l0 85.91 -24.55 8.09c-24.73,8.13 -49.31,18.35 -72.98,30.34l-23.09 11.68 -60.82 -60.79c-9.09,-9.08 -21.1,-14.08 -33.89,-14.08 -12.83,0 -24.85,5 -33.89,14.08l-133.12 133.07c-18.67,18.71 -18.67,49.12 0,67.85l60.76 60.75 -11.65 23.1c-11.96,23.64 -22.14,48.15 -30.31,73.01l-8.11 24.51 -85.85 0c-26.45,0 -47.93,21.54 -47.93,47.95l0 188.23c0,26.44 21.48,47.95 47.93,47.95l85.85 0 8.11 24.51c8.17,24.8 18.35,49.38 30.31,73.01l11.65 23.13 -60.76 60.76c-18.67,18.72 -18.67,49.12 0,67.84l133.08 133.08c9.08,9.05 21.1,14.05 33.93,14.05 12.79,0 24.87,-5 33.89,-14.05l60.82 -60.82 23.12 11.66c23.46,11.87 48.06,22.13 73,30.41l24.5 8.07 0 85.88c0,26.4 21.51,47.88 47.9,47.88l188.3 0c26.38,0 47.89,-21.48 47.89,-47.88l0 -85.88 24.51 -8.07c25.04,-8.32 49.57,-18.54 73,-30.41l23.1 -11.66 60.88 60.82c9.04,9.05 21.05,14.05 33.91,14.05 12.77,0 24.83,-5 33.87,-14.05l133.08 -133.05c18.66,-18.75 18.66,-49.15 0,-67.84l-60.84 -60.81 11.68 -23.11c11.91,-23.5 22.16,-48.08 30.36,-73.01l8.1 -24.51 85.85 0c26.46,0 47.94,-21.51 47.94,-47.95l0 -188.23c0,-26.41 -21.48,-47.95 -47.94,-47.95z"/>
  <path class="fil2" style="mask:url(#id0)" d="M905.03 1514.41c-214.96,0 -389.76,-174.88 -389.76,-389.82 0,-214.87 174.8,-389.78 389.76,-389.78 214.91,0 389.76,174.91 389.76,389.78 0,214.94 -174.85,389.82 -389.76,389.82zm599.54 -531.85l-85.85 0 -8.11 -24.51c-8.19,-24.93 -18.44,-49.54 -30.35,-73.01l-11.68 -23.1 60.84 -60.82c9.06,-9.02 14.01,-21.07 14.01,-33.89 0,-12.78 -4.95,-24.83 -14.01,-33.89l-133.08 -133.07c-9.04,-9.08 -21.11,-14.09 -33.94,-14.09 -12.79,0 -24.85,5.01 -33.89,14.06l-60.81 60.81 -23.1 -11.67c-23.66,-11.99 -48.22,-22.21 -72.98,-30.35l-24.55 -8.08 0 -85.92c0,-26.39 -21.51,-47.84 -47.89,-47.84l-188.3 0c-26.39,0 -47.9,21.45 -47.9,47.84l0 85.92 -24.55 8.08c-24.73,8.14 -49.31,18.36 -72.98,30.35l-23.09 11.67 -60.82 -60.78c-9.09,-9.08 -21.11,-14.09 -33.89,-14.09 -12.83,0 -24.85,5.01 -33.89,14.09l-133.12 133.07c-18.67,18.7 -18.67,49.12 0,67.85l60.76 60.75 -11.65 23.1c-11.96,23.63 -22.14,48.15 -30.31,73.01l-8.11 24.51 -85.85 0c-26.45,0 -47.93,21.54 -47.93,47.95l0 188.23c0,26.44 21.48,47.95 47.93,47.95l85.85 0 8.11 24.51c8.17,24.8 18.35,49.38 30.31,73.01l11.65 23.13 -60.76 60.75c-18.67,18.72 -18.67,49.13 0,67.85l133.08 133.07c9.08,9.05 21.1,14.06 33.93,14.06 12.78,0 24.86,-5.01 33.89,-14.06l60.82 -60.81 23.12 11.66c23.46,11.87 48.06,22.13 72.99,30.4l24.51 8.07 0 85.89c0,26.4 21.51,47.87 47.9,47.87l188.3 0c26.38,0 47.89,-21.47 47.89,-47.87l0 -85.89 24.51 -8.07c25.04,-8.31 49.57,-18.53 73,-30.4l23.1 -11.66 60.87 60.81c9.05,9.05 21.06,14.06 33.92,14.06 12.76,0 24.83,-5.01 33.87,-14.06l133.08 -133.04c18.66,-18.75 18.66,-49.16 0,-67.84l-60.84 -60.82 11.68 -23.1c11.91,-23.5 22.16,-48.08 30.35,-73.01l8.11 -24.51 85.85 0c26.46,0 47.94,-21.51 47.94,-47.95l0 -188.23c0,-26.41 -21.48,-47.95 -47.94,-47.95z"/>
  <path class="fil2" style="mask:url(#id2)" d="M1924.01 1838.85c-150.51,35.43 -301.79,-58.21 -337.18,-208.74 -35.42,-150.49 58.18,-301.76 208.65,-337.19 150.55,-35.42 301.79,58.2 337.22,208.7 35.39,150.51 -58.19,301.79 -208.69,337.23zm292.56 -451.45l-54.14 12.74 -8.71 -14.25c-8.89,-14.53 -19.02,-28.48 -30,-41.5l-10.78 -12.88 29.34 -47.35c4.36,-7.03 5.72,-15.32 3.81,-23.43 -1.91,-8.05 -6.85,-14.88 -13.88,-19.26l-103.63 -64.14c-7.05,-4.35 -15.35,-5.73 -23.47,-3.84 -8.05,1.91 -14.92,6.84 -19.26,13.9l-29.29 47.32 -16.32 -3.92c-16.68,-4.05 -33.66,-6.83 -50.47,-8.3l-16.68 -1.44 -12.75 -54.15c-3.93,-16.66 -20.65,-26.99 -37.27,-23.04l-59.35 13.92 -59.36 13.99c-16.62,3.92 -26.97,20.62 -23.04,37.3l12.73 54.14 -14.29 8.69c-14.39,8.83 -28.37,18.89 -41.48,30.01l-12.81 10.74 -47.35 -29.31c-7.09,-4.35 -15.41,-5.69 -23.43,-3.79 -8.15,1.89 -14.96,6.83 -19.32,13.85l-64.17 103.64c-8.96,14.54 -4.46,33.73 10.09,42.74l47.32 29.28 -3.92 16.28c-4.02,16.67 -6.84,33.66 -8.3,50.52l-1.46 16.71 -54.09 12.7c-16.68,3.97 -27.04,20.69 -23.11,37.3l27.9 118.61c3.91,16.68 20.67,27.04 37.34,23.11l54.11 -12.68 8.75 14.23c8.8,14.44 18.85,28.39 29.9,41.56l10.79 12.82 -29.26 47.28c-9,14.59 -4.51,33.75 10.04,42.78l103.63 64.09c7.06,4.41 15.35,5.75 23.45,3.83 8.06,-1.86 14.95,-6.83 19.28,-13.89l29.3 -47.33 16.28 3.95c16.57,4 33.61,6.76 50.53,8.31l16.64 1.43 12.74 54.15c3.94,16.64 20.69,27 37.31,23.05l59.33 -13.92 59.36 -13.97c16.64,-3.91 26.98,-20.68 23.04,-37.31l-12.74 -54.12 14.3 -8.76c14.53,-8.9 28.46,-18.98 41.46,-29.94l12.83 -10.81 47.4 29.31c7.05,4.42 15.39,5.76 23.43,3.87 8.09,-1.95 14.93,-6.87 19.26,-13.93l64.16 -103.57c9,-14.56 4.48,-33.76 -10.06,-42.74l-47.36 -29.32 3.93 -16.35c4.01,-16.53 6.84,-33.52 8.33,-50.48l1.46 -16.66 54.07 -12.69c16.69,-3.95 27.06,-20.69 23.13,-37.35l-27.9 -118.66c-3.96,-16.59 -20.66,-26.96 -37.32,-23.07z"/>
  <path class="fil3" d="M1860.13 1273.92c-22.68,0 -45.24,2.66 -67.2,7.81 -156.51,36.87 -253.87,194.13 -217.03,350.63 31.14,132.39 147.75,224.88 283.53,224.88 22.62,0 45.17,-2.66 67.03,-7.85 75.84,-17.84 140.17,-64.11 181.18,-130.33 40.99,-66.28 53.74,-144.48 35.89,-220.3 -31.14,-132.35 -147.68,-224.84 -283.4,-224.84zm-0.7 616c-151.03,0 -280.69,-102.81 -315.36,-250.07 -40.96,-174.02 67.32,-348.92 241.36,-389.91 24.42,-5.79 49.51,-8.7 74.55,-8.7 151.11,0 280.74,102.85 315.38,250.08 19.83,84.28 5.65,171.27 -39.94,244.94 -45.62,73.66 -117.14,125.13 -201.44,144.91 -24.3,5.8 -49.39,8.75 -74.55,8.75z"/>
  <path class="fil3" d="M904.99 698.23c-235.87,0 -427.77,191.93 -427.77,427.81 0,235.89 191.9,427.82 427.77,427.82 235.87,0 427.76,-191.93 427.76,-427.82 0,-235.88 -191.89,-427.81 -427.76,-427.81zm0 923.61c-273.38,0 -495.78,-222.41 -495.78,-495.8 0,-273.36 222.4,-495.78 495.78,-495.78 273.36,0 495.77,222.42 495.77,495.78 0,273.39 -222.41,495.8 -495.77,495.8z"/>
  <circle class="fil4" cx="906.5" cy="1125.04" r="271.64"/>
  <path class="fil5" style="mask:url(#id4)" d="M906.5 853.39c150.03,0 271.64,121.62 271.64,271.65 0,150.02 -121.61,271.64 -271.64,271.64 -150.02,0 -271.64,-121.62 -271.64,-271.64 0,-150.03 121.62,-271.65 271.64,-271.65z"/>
  <circle class="fil4" cx="1858.81" cy="1563.95" r="179.64"/>
  <path class="fil5" style="mask:url(#id6)" d="M1858.81 1384.31c99.22,0 179.65,80.43 179.65,179.64 0,99.22 -80.43,179.65 -179.65,179.65 -99.21,0 -179.64,-80.43 -179.64,-179.65 0,-99.21 80.43,-179.64 179.64,-179.64z"/>
 </g>
</svg>
