<?xml version="1.0" encoding="UTF-8"?>
<!DOCTYPE svg PUBLIC "-//W3C//DTD SVG 1.1//EN" "http://www.w3.org/Graphics/SVG/1.1/DTD/svg11.dtd">
<!-- Creator: CorelDRAW 2018 (64-Bit) -->
<svg xmlns="http://www.w3.org/2000/svg" xml:space="preserve" width="2385px" height="2385px" version="1.1" style="shape-rendering:geometricPrecision; text-rendering:geometricPrecision; image-rendering:optimizeQuality; fill-rule:evenodd; clip-rule:evenodd"
viewBox="0 0 2430.05 2430.05"
 xmlns:xlink="http://www.w3.org/1999/xlink">
 <defs>
  <style type="text/css">
   <![CDATA[
    .str0 {stroke:#04ADD9;stroke-width:67.92;stroke-miterlimit:2.61313}
    .fil0 {fill:#022045}
    .fil7 {fill:#FF6403}
    .fil6 {fill:#FFCC00}
    .fil4 {fill:#01304D;fill-rule:nonzero}
    .fil2 {fill:#04ADD9;fill-rule:nonzero}
    .fil1 {fill:#0758BA;fill-rule:nonzero}
    .fil3 {fill:#29C5F4;fill-rule:nonzero}
    .fil5 {fill:#EAEAEA;fill-rule:nonzero}
   ]]>
  </style>
   <mask id="id0">
  <linearGradient id="id1" gradientUnits="userSpaceOnUse" x1="2185.64" y1="1260.04" x2="726.08" y2="1241.32">
   <stop offset="0" style="stop-opacity:1; stop-color:white"/>
   <stop offset="1" style="stop-opacity:0; stop-color:white"/>
  </linearGradient>
    <rect style="fill:url(#id1)" x="237.22" y="242.86" width="1962.87" height="1962.88"/>
   </mask>
   <mask id="id2">
  <linearGradient id="id3" gradientUnits="userSpaceOnUse" x1="1432.15" y1="1351.84" x2="993" y2="1135.46">
   <stop offset="0" style="stop-opacity:0; stop-color:white"/>
   <stop offset="1" style="stop-opacity:1; stop-color:white"/>
  </linearGradient>
    <rect style="fill:url(#id3)" x="971.15" y="988.38" width="492" height="492.01"/>
   </mask>
 </defs>
 <g id="Layer_x0020_1">
  <metadata id="CorelCorpID_0Corel-Layer"/>
  <circle class="fil0 str0" cx="1215.03" cy="1215.03" r="1181.06"/>
  <path class="fil1" d="M1215.11 288.3c-516.52,0 -936.72,420.12 -936.72,936.61 0,516.63 420.2,936.81 936.72,936.81 516.51,0 936.72,-420.18 936.72,-936.81 0,-516.49 -420.21,-936.61 -936.72,-936.61zm783.24 936.61c0,432.72 -350.66,783.36 -783.24,783.36 -432.55,0 -783.26,-350.64 -783.26,-783.36 0,-432.44 350.71,-783.21 783.26,-783.21 432.58,0 783.24,350.77 783.24,783.21zm-783.24 981.35c-541.03,0 -981.22,-440.25 -981.22,-981.35 0,-540.99 440.19,-981.11 981.22,-981.11 541.05,0 981.23,440.12 981.23,981.11 0,541.1 -440.18,981.35 -981.23,981.35z"/>
  <path class="fil2" style="mask:url(#id0)" d="M1218.65 287.57c-516.52,0 -936.71,420.12 -936.71,936.61 0,516.63 420.19,936.81 936.71,936.81 516.51,0 936.72,-420.18 936.72,-936.81 0,-516.49 -420.21,-936.61 -936.72,-936.61zm783.25 936.61c0,432.72 -350.66,783.35 -783.25,783.35 -432.55,0 -783.26,-350.63 -783.26,-783.35 0,-432.44 350.71,-783.21 783.26,-783.21 432.59,0 783.25,350.77 783.25,783.21zm-783.25 981.35c-541.03,0 -981.22,-440.25 -981.22,-981.35 0,-540.99 440.19,-981.11 981.22,-981.11 541.06,0 981.23,440.12 981.23,981.11 0,541.1 -440.17,981.35 -981.23,981.35z"/>
  <path class="fil3" d="M1847.19 1231.81c0,349.31 -283.09,632.47 -632.43,632.47 -349.23,0 -632.42,-283.16 -632.42,-632.47 0,-349.18 283.19,-632.34 632.42,-632.34 349.34,0 632.43,283.16 632.43,632.34z"/>
  <path class="fil4" d="M1699.42 1231.81c0,267.74 -217,484.68 -484.66,484.68 -267.61,0 -484.54,-216.94 -484.54,-484.68 0,-267.51 216.93,-484.48 484.54,-484.48 267.66,0 484.66,216.97 484.66,484.48z"/>
  <path class="fil5" d="M1545.58 1231.81c0,182.78 -148.09,330.84 -330.82,330.84 -182.67,0 -330.79,-148.06 -330.79,-330.84 0,-182.65 148.12,-330.71 330.79,-330.71 182.73,0 330.82,148.06 330.82,330.71z"/>
  <circle class="fil6" cx="1217.15" cy="1234.38" r="244.94"/>
  <path class="fil7" style="mask:url(#id2)" d="M1217.15 989.44c135.28,0 244.94,109.67 244.94,244.94 0,135.28 -109.66,244.95 -244.94,244.95 -135.28,0 -244.94,-109.67 -244.94,-244.95 0,-135.27 109.66,-244.94 244.94,-244.94z"/>
  <path class="fil1" d="M2215.74 832.12l-106.73 -54.24c15.62,-9.54 21.02,-29.77 11.88,-45.69 -9.35,-16.3 -30.01,-21.83 -46.19,-12.52l10.52 -117.14 -187.46 218.96 -696.08 400.58c-7.83,4.54 -10.77,14.49 -6.5,22.6 4.34,8.22 14.56,11.34 22.78,6.96l703.38 -373.86 294.4 -45.65z"/>
 </g>
</svg>
