<?xml version="1.0" encoding="UTF-8"?>
<!DOCTYPE svg PUBLIC "-//W3C//DTD SVG 1.1//EN" "http://www.w3.org/Graphics/SVG/1.1/DTD/svg11.dtd">
<!-- Creator: CorelDRAW 2018 (64-Bit) -->
<svg xmlns="http://www.w3.org/2000/svg" xml:space="preserve" width="7.95028in" height="7.95028in" version="1.1" style="shape-rendering:geometricPrecision; text-rendering:geometricPrecision; image-rendering:optimizeQuality; fill-rule:evenodd; clip-rule:evenodd"
viewBox="0 0 8100.45 8100.45"
 xmlns:xlink="http://www.w3.org/1999/xlink">
 <defs>
  <style type="text/css">
   <![CDATA[
    .str0 {stroke:#0351B0;stroke-width:226.42;stroke-miterlimit:2.61313}
    .fil0 {fill:#002D64}
    .fil6 {fill:#F27D00}
    .fil5 {fill:#FFCC00}
    .fil3 {fill:#002D64;fill-rule:nonzero}
    .fil1 {fill:#0351B0;fill-rule:nonzero}
    .fil2 {fill:#36ABFF;fill-rule:nonzero}
    .fil4 {fill:#EAEAEA;fill-rule:nonzero}
   ]]>
  </style>
   <mask id="id0">
  <linearGradient id="id1" gradientUnits="userSpaceOnUse" x1="7273.9" y1="4202.7" x2="2408.55" y2="4140.32">
   <stop offset="0" style="stop-opacity:1; stop-color:white"/>
   <stop offset="1" style="stop-opacity:0; stop-color:white"/>
  </linearGradient>
    <rect style="fill:url(#id1)" x="778.96" y="812" width="6543.14" height="6543.16"/>
   </mask>
    <mask id="id2">
  <linearGradient id="id3" gradientUnits="userSpaceOnUse" x1="4773.98" y1="4506.29" x2="3310.13" y2="3784.99">
   <stop offset="0" style="stop-opacity:0; stop-color:white"/>
   <stop offset="1" style="stop-opacity:1; stop-color:white"/>
  </linearGradient>
     <rect style="fill:url(#id3)" x="3237.26" y="3294.72" width="1640.08" height="1640.08"/>
    </mask>
 </defs>
 <g id="Layer_x0020_1">
  <metadata id="CorelCorpID_0Corel-Layer"/>
  <circle class="fil0 str0" cx="4050.23" cy="4050.23" r="3937.02"/>
  <path class="fil1" d="M4050.49 961.05c-1721.79,0 -3122.48,1400.44 -3122.48,3122.13 0,1722.14 1400.7,3122.81 3122.48,3122.81 1721.76,0 3122.52,-1400.66 3122.52,-3122.81 0,-1721.69 -1400.76,-3122.13 -3122.52,-3122.13zm2610.91 3122.13c0,1442.43 -1168.9,2611.27 -2610.91,2611.27 -1441.88,0 -2610.94,-1168.84 -2610.94,-2611.27 0,-1441.52 1169.06,-2610.81 2610.94,-2610.81 1442.01,0 2610.91,1169.29 2610.91,2610.81zm-2610.91 3271.28c-1803.48,0 -3270.83,-1467.57 -3270.83,-3271.28 0,-1803.38 1467.35,-3270.48 3270.83,-3270.48 1803.58,0 3270.9,1467.09 3270.9,3270.48 0,1803.71 -1467.31,3271.28 -3270.9,3271.28z"/>
  <path class="fil2" style="mask:url(#id0)" d="M4050.49 961.05c-1721.79,0 -3122.48,1400.44 -3122.48,3122.13 0,1722.14 1400.7,3122.81 3122.48,3122.81 1721.76,0 3122.52,-1400.66 3122.52,-3122.81 0,-1721.69 -1400.76,-3122.13 -3122.52,-3122.13zm2610.91 3122.13c0,1442.43 -1168.9,2611.27 -2610.91,2611.27 -1441.88,0 -2610.94,-1168.84 -2610.94,-2611.27 0,-1441.52 1169.06,-2610.81 2610.94,-2610.81 1442.01,0 2610.91,1169.29 2610.91,2610.81zm-2610.91 3271.28c-1803.48,0 -3270.83,-1467.57 -3270.83,-3271.28 0,-1803.38 1467.35,-3270.48 3270.83,-3270.48 1803.58,0 3270.9,1467.09 3270.9,3270.48 0,1803.71 -1467.31,3271.28 -3270.9,3271.28z"/>
  <path class="fil2" d="M6157.51 4106.17c0,1164.41 -943.68,2108.31 -2108.18,2108.31 -1164.12,0 -2108.12,-943.9 -2108.12,-2108.31 0,-1163.96 944,-2107.86 2108.12,-2107.86 1164.51,0 2108.18,943.9 2108.18,2107.86z"/>
  <path class="fil3" d="M5664.92 4106.17c0,892.52 -723.36,1615.66 -1615.59,1615.66 -892.04,0 -1615.18,-723.14 -1615.18,-1615.66 0,-891.72 723.13,-1614.98 1615.18,-1614.98 892.23,0 1615.59,723.27 1615.59,1614.98z"/>
  <path class="fil4" d="M5152.12 4106.17c0,609.31 -493.65,1102.86 -1102.8,1102.86 -608.92,0 -1102.67,-493.55 -1102.67,-1102.86 0,-608.86 493.75,-1102.41 1102.67,-1102.41 609.14,0 1102.8,493.55 1102.8,1102.41z"/>
  <g id="_17534223648">
   <circle class="fil5" cx="4057.3" cy="4114.76" r="816.5"/>
   <path class="fil6" style="mask:url(#id2)" d="M4057.3 3298.25c450.94,0 816.5,365.56 816.5,816.5 0,450.94 -365.56,816.5 -816.5,816.5 -450.94,0 -816.5,-365.56 -816.5,-816.5 0,-450.94 365.56,-816.5 816.5,-816.5z"/>
  </g>
  <path class="fil1" d="M7386.07 2773.82l-355.79 -180.8c52.09,-31.79 70.08,-99.24 39.61,-152.29 -31.18,-54.33 -100.04,-72.77 -153.98,-41.76l35.09 -390.47 -624.9 729.9 -2320.35 1335.3c-26.11,15.14 -35.89,48.3 -21.68,75.34 14.5,27.39 48.56,37.78 75.95,23.19l2344.67 -1246.23 981.4 -152.19z"/>
 </g>
</svg>
