<?xml version="1.0" encoding="UTF-8"?>
<!DOCTYPE svg PUBLIC "-//W3C//DTD SVG 1.1//EN" "http://www.w3.org/Graphics/SVG/1.1/DTD/svg11.dtd">
<!-- Creator: CorelDRAW 2018 (64-Bit) -->
<svg xmlns="http://www.w3.org/2000/svg" xml:space="preserve" width="2385px" height="2385px" version="1.1" style="shape-rendering:geometricPrecision; text-rendering:geometricPrecision; image-rendering:optimizeQuality; fill-rule:evenodd; clip-rule:evenodd"
viewBox="0 0 2533.56 2533.56"
 xmlns:xlink="http://www.w3.org/1999/xlink">
 <defs>
  <style type="text/css">
   <![CDATA[
    .str0 {stroke:#04ADD9;stroke-width:70.82;stroke-miterlimit:2.61313}
    .fil0 {fill:#022045}
    .fil4 {fill:#FF6403}
    .fil3 {fill:#FFCC00}
    .fil2 {fill:#04ADD9;fill-rule:nonzero}
    .fil1 {fill:#0758BA;fill-rule:nonzero}
   ]]>
  </style>
   <mask id="id0">
  <linearGradient id="id1" gradientUnits="userSpaceOnUse" x1="1818.47" y1="1147.25" x2="813.67" y2="1151.33">
   <stop offset="0" style="stop-opacity:1; stop-color:white"/>
   <stop offset="1" style="stop-opacity:0; stop-color:white"/>
  </linearGradient>
    <rect style="fill:url(#id1)" x="596.95" y="285.74" width="1323.37" height="1957.08"/>
   </mask>
    <mask id="id2">
  <linearGradient id="id3" gradientUnits="userSpaceOnUse" x1="1461.66" y1="1057.29" x2="1054.82" y2="856.83">
   <stop offset="0" style="stop-opacity:0; stop-color:white"/>
   <stop offset="1" style="stop-opacity:1; stop-color:white"/>
  </linearGradient>
     <rect style="fill:url(#id3)" x="1034.45" y="720.45" width="456.06" height="456.06"/>
    </mask>
 </defs>
 <g id="Layer_x0020_1">
  <metadata id="CorelCorpID_0Corel-Layer"/>
  <circle class="fil0 str0" cx="1266.78" cy="1266.78" r="1231.37"/>
  <path class="fil1" d="M1258.91 286.66c182.39,0 347.53,73.94 467.07,193.49 119.56,119.55 193.5,284.69 193.5,467.08 0,205.1 -92.51,339.85 -189.65,481.36 -29.94,43.6 -60.44,88.02 -84.45,130.45l-386.26 682.47 -386.2 -682.47c-25.14,-44.43 -55.09,-87.9 -84.45,-130.53 -97.51,-141.56 -190.14,-276.06 -190.14,-481.28 0,-182.38 73.95,-347.53 193.49,-467.08 119.56,-119.55 284.7,-193.49 467.09,-193.49zm217.52 443.04c-55.65,-55.64 -132.56,-90.07 -217.52,-90.07 -84.96,0 -161.88,34.43 -217.53,90.07 -55.65,55.65 -90.07,132.57 -90.07,217.53 0,97.37 61.73,187.01 126.71,281.35 34.12,49.53 68.91,100.03 100.99,156.73l80.13 141.6 80.15 -141.6c32.78,-57.93 66.51,-107.06 99.61,-155.27 65.36,-95.2 127.6,-185.87 127.6,-282.81 0,-84.96 -34.42,-161.87 -90.07,-217.53z"/>
  <path class="fil2" style="mask:url(#id0)" d="M1258.63 286.85c182.39,0 347.54,73.95 467.08,193.49 119.55,119.56 193.5,284.7 193.5,467.09 0,205.1 -92.52,339.85 -189.66,481.36 -29.94,43.6 -60.43,88.02 -84.45,130.45l-386.26 682.47 -386.2 -682.47c-25.13,-44.43 -55.09,-87.9 -84.45,-130.53 -97.5,-141.56 -190.13,-276.06 -190.13,-481.28 0,-182.38 73.94,-347.53 193.49,-467.09 119.55,-119.54 284.7,-193.49 467.08,-193.49zm217.52 443.05c-55.65,-55.64 -132.56,-90.07 -217.52,-90.07 -84.96,0 -161.88,34.43 -217.53,90.07 -55.64,55.65 -90.07,132.57 -90.07,217.53 0,97.37 61.74,187.01 126.72,281.35 34.11,49.53 68.9,100.03 100.98,156.73l80.14 141.6 80.14 -141.6c32.79,-57.93 66.52,-107.06 99.62,-155.27 65.35,-95.2 127.6,-185.87 127.6,-282.81 0,-84.96 -34.43,-161.87 -90.08,-217.53z"/>
  <g id="_999000779040">
   <circle class="fil3" cx="1262.48" cy="948.48" r="226.92"/>
   <path class="fil4" style="mask:url(#id2)" d="M1262.48 721.56c125.32,0 226.92,101.6 226.92,226.92 0,125.33 -101.6,226.92 -226.92,226.92 -125.33,0 -226.92,-101.59 -226.92,-226.92 0,-125.32 101.59,-226.92 226.92,-226.92z"/>
  </g>
 </g>
</svg>
