<?xml version="1.0" encoding="UTF-8"?>
<!DOCTYPE svg PUBLIC "-//W3C//DTD SVG 1.1//EN" "http://www.w3.org/Graphics/SVG/1.1/DTD/svg11.dtd">
<!-- Creator: CorelDRAW 2018 (64-Bit) -->
<svg xmlns="http://www.w3.org/2000/svg" xml:space="preserve" width="2385px" height="2385px" version="1.1" style="shape-rendering:geometricPrecision; text-rendering:geometricPrecision; image-rendering:optimizeQuality; fill-rule:evenodd; clip-rule:evenodd"
viewBox="0 0 2381.57 2381.57"
 xmlns:xlink="http://www.w3.org/1999/xlink">
 <defs>
  <style type="text/css">
   <![CDATA[
    .str0 {stroke:#04ADD9;stroke-width:66.57;stroke-miterlimit:2.61313}
    .fil0 {fill:#022045}
    .fil7 {fill:#FF6403}
    .fil6 {fill:#FFCC00}
    .fil5 {fill:#FEFEFE;fill-rule:nonzero}
    .fil3 {fill:#022045;fill-rule:nonzero}
    .fil2 {fill:#04ADD9;fill-rule:nonzero}
    .fil1 {fill:#0758BA;fill-rule:nonzero}
    .fil4 {fill:#5CD6FF;fill-rule:nonzero}
   ]]>
  </style>
   <mask id="id0">
  <linearGradient id="id1" gradientUnits="userSpaceOnUse" x1="1939.18" y1="1771.53" x2="919.65" y2="981.99">
   <stop offset="0" style="stop-opacity:0.8; stop-color:white"/>
   <stop offset="1" style="stop-opacity:0; stop-color:white"/>
  </linearGradient>
    <rect style="fill:url(#id1)" x="347.54" y="300.35" width="1628.4" height="1719.84"/>
   </mask>
   <mask id="id2">
  <linearGradient id="id3" gradientUnits="userSpaceOnUse" x1="1247.97" y1="1139.23" x2="967.84" y2="1001.2">
   <stop offset="0" style="stop-opacity:0; stop-color:white"/>
   <stop offset="1" style="stop-opacity:1; stop-color:white"/>
  </linearGradient>
    <rect style="fill:url(#id3)" x="953.53" y="907.01" width="314.58" height="314.58"/>
   </mask>
 </defs>
 <g id="Layer_x0020_1">
  <metadata id="CorelCorpID_0Corel-Layer"/>
  <circle class="fil0 str0" cx="1190.78" cy="1190.78" r="1157.5"/>
  <path class="fil1" d="M1025.7 300.72l-0.13 0c-376.09,0 -680.97,304.87 -680.97,680.96l0.02 0.47 634.52 0c-7.82,15.69 -12.22,33.38 -12.22,52.11l0 29.13 -537.41 0c0.22,326.71 230.4,599.51 537.41,665.61l0 174.13c0,64.62 52.38,117.01 117,117.01l591.54 0c64.6,0 116.98,-52.39 116.98,-117.01l0 -335.85 152.16 0c22.61,0 33.82,-17.03 24.93,-37.82l-177.09 -414 0 -81.2c0,-7.24 -0.74,-14.31 -2,-21.18 -25.54,-353.04 -319.81,-631.57 -679.34,-631.64l0 535.81 -27.18 0c-21.19,0 -41.07,5.64 -58.22,15.49l0 -632.02z"/>
  <path class="fil2" d="M1110.88 1626.56l0 -564.02 563.73 0c-0.21,-311.13 -252.46,-563.26 -563.62,-563.26 -311.3,0 -563.65,252.34 -563.65,563.64 0,311.25 252.28,563.57 563.54,563.64z"/>
  <path class="fil2" style="mask:url(#id0)" d="M1028.85 300.56l-0.13 0c-376.09,0 -680.97,304.88 -680.97,680.96l0.02 0.47 634.52 0c-7.82,15.69 -12.22,33.39 -12.22,52.11l0 29.13 -537.42 0c0.22,326.71 230.4,599.51 537.42,665.62l0 174.13c0,64.62 52.37,117 117,117l591.54 0c64.6,0 116.97,-52.38 116.97,-117l0 -335.86 152.17 0c22.61,0 33.82,-17.02 24.92,-37.82l-177.09 -414 0 -81.2c0,-7.23 -0.73,-14.31 -2,-21.18 -25.53,-353.04 -319.8,-631.56 -679.33,-631.64l0 535.82 -27.18 0c-21.2,0 -41.08,5.63 -58.22,15.48l0 -632.02z"/>
  <path class="fil3" d="M1483.92 1062.92c0,205.97 -166.98,372.93 -372.96,372.93 -205.95,0 -372.93,-166.96 -372.93,-372.93 0,-205.98 166.98,-372.94 372.93,-372.94 205.98,0 372.96,166.96 372.96,372.94z"/>
  <path class="fil4" d="M1088.21 1114.47c0,0.09 0,39.15 0,98.54 0,178.17 0,538.48 0,570.47 0,6.58 -0.16,13.39 -0.16,20.37 0.02,8.98 0.25,18.22 1.87,27.74 1.21,7.12 3.25,14.49 6.99,21.7 5.43,10.84 15.31,20.73 27.85,26.37 12.55,5.77 27.06,8.11 44.41,8.15 116.89,0 445.48,0 445.48,0l0 -44.92c0,0 -82.14,0 -178.91,0 -96.76,0 -208.13,0 -266.57,0 -11.69,0 -19.45,-1.55 -23.95,-3.33 -3.41,-1.35 -5.06,-2.6 -6.27,-3.84 -1.73,-1.82 -3.21,-4.4 -4.4,-9.86 -1.17,-5.34 -1.59,-13 -1.57,-22.01 0,-6.22 0.15,-13.07 0.15,-20.37 0,-21.32 0,-188.57 0,-350.5 0,-80.95 0,-160.58 0,-219.97 0,-59.39 0,-98.45 0,-98.54l-44.92 0z"/>
  <path class="fil5" d="M1308.4 1062.92c0,109.05 -88.38,197.44 -197.44,197.44 -109.03,0 -197.44,-88.39 -197.44,-197.44 0,-109.06 88.41,-197.44 197.44,-197.44 109.06,0 197.44,88.38 197.44,197.44z"/>
  <path class="fil2" d="M1837.7 1119.61l-187.63 0c-55.03,0 -99.66,49.39 -99.66,110.33 0,60.94 44.63,110.34 99.66,110.34l272.89 0 -85.26 -220.67z"/>
  <path class="fil2" d="M1593.38 1706.99c-19.43,0 -35.2,15.75 -35.2,35.2l0 309.82 117.28 0c77.78,0 140.83,-63.05 140.83,-140.83l0 -204.19 -222.91 0z"/>
  <circle class="fil6" cx="1110.82" cy="1064.3" r="156.25"/>
  <path class="fil7" style="mask:url(#id2)" d="M1110.82 908.05c86.3,0 156.25,69.96 156.25,156.25 0,86.3 -69.95,156.25 -156.25,156.25 -86.29,0 -156.25,-69.95 -156.25,-156.25 0,-86.29 69.96,-156.25 156.25,-156.25z"/>
 </g>
</svg>
