<?xml version="1.0" encoding="UTF-8"?>
<!DOCTYPE svg PUBLIC "-//W3C//DTD SVG 1.1//EN" "http://www.w3.org/Graphics/SVG/1.1/DTD/svg11.dtd">
<!-- Creator: CorelDRAW 2018 (64-Bit) -->
<svg xmlns="http://www.w3.org/2000/svg" xml:space="preserve" width="2385px" height="2385px" version="1.1" style="shape-rendering:geometricPrecision; text-rendering:geometricPrecision; image-rendering:optimizeQuality; fill-rule:evenodd; clip-rule:evenodd"
viewBox="0 0 2494.52 2494.52"
 xmlns:xlink="http://www.w3.org/1999/xlink">
 <defs>
  <style type="text/css">
   <![CDATA[
    .str0 {stroke:#04ADD9;stroke-width:69.72;stroke-miterlimit:2.61313}
    .fil0 {fill:#022045}
    .fil5 {fill:#FF6403}
    .fil4 {fill:#FFCC00}
    .fil3 {fill:#002D64;fill-rule:nonzero}
    .fil2 {fill:#04ADD9;fill-rule:nonzero}
    .fil1 {fill:#0758BA;fill-rule:nonzero}
   ]]>
  </style>
   <mask id="id0">
  <linearGradient id="id1" gradientUnits="userSpaceOnUse" x1="1847.04" y1="1739.83" x2="978.88" y2="1293.35">
   <stop offset="0" style="stop-opacity:1; stop-color:white"/>
   <stop offset="1" style="stop-opacity:0; stop-color:white"/>
  </linearGradient>
    <rect style="fill:url(#id1)" x="373.12" y="840.73" width="1717.38" height="1304.5"/>
   </mask>
   <mask id="id2">
  <linearGradient id="id3" gradientUnits="userSpaceOnUse" x1="1544.71" y1="625.13" x2="1011.28" y2="362.29">
   <stop offset="0" style="stop-opacity:0; stop-color:white"/>
   <stop offset="1" style="stop-opacity:1; stop-color:white"/>
  </linearGradient>
    <rect style="fill:url(#id3)" x="984.93" y="183.83" width="597.25" height="597.25"/>
   </mask>
 </defs>
 <g id="Layer_x0020_1">
  <metadata id="CorelCorpID_0Corel-Layer"/>
  <circle class="fil0 str0" cx="1247.26" cy="1247.26" r="1212.4"/>
  <path class="fil1" d="M908.54 2144.84l-122.79 0c-22.21,0 -40.22,-18 -40.22,-40.22l-27.54 -187.95c-39.18,-34.56 -73.7,-72.96 -102.72,-114.46l-16.56 -0.07c-97.76,4.56 -140.96,-22.33 -159.76,-91.4l-61.9 -227.39c-12.61,-46.33 14.98,-94.55 61.31,-107.16l87.25 -23.75c13.83,-69.72 38.89,-135.89 74.94,-196.11 -92.67,-124.02 -78.72,-263.81 -78.51,-265.7 0.29,-2.55 1.99,-4.72 4.41,-5.61 137.59,-50.35 265.26,-7.87 343.09,32.24 103.56,-48.55 229.24,-76.48 376.57,-76.48 377.46,0 612.73,182.73 697.58,426.81 29.57,-12.89 60.93,-34.31 83.22,-71.17 8.35,-13.8 24.3,-19.88 39.72,-15.06 15.46,4.81 25.2,18.88 24.25,35.02 -3.91,65.99 -24.42,175.8 -112.05,240.12 0.37,9.25 0.58,18.52 0.58,27.83 0,151.84 -63.91,290.98 -170.1,399.09l-32.41 221.2c0,22.22 -18,40.22 -40.22,40.22l-122.78 0c-22.22,0 -40.22,-18 -40.22,-40.22l-8.64 -58.95c-96.43,39.65 -204.63,61.89 -318.93,61.89 -103.15,0 -201.3,-18.13 -290.34,-50.8l-7.01 47.86c0,22.22 -18.01,40.22 -40.22,40.22z"/>
  <path class="fil2" style="mask:url(#id0)" d="M907.88 2145.01l-122.79 0c-22.21,0 -40.21,-18 -40.21,-40.22l-27.54 -187.95c-39.18,-34.56 -73.7,-72.96 -102.72,-114.46l-16.56 -0.07c-97.77,4.56 -140.97,-22.33 -159.77,-91.4l-61.89 -227.39c-12.62,-46.33 14.97,-94.55 61.3,-107.16l87.25 -23.75c13.83,-69.71 38.89,-135.89 74.95,-196.11 -92.68,-124.02 -78.73,-263.81 -78.52,-265.7 0.3,-2.55 2,-4.72 4.41,-5.61 137.6,-50.35 265.26,-7.87 343.1,32.24 103.55,-48.55 229.23,-76.48 376.56,-76.48 377.47,0 612.73,182.73 697.59,426.81 29.56,-12.89 60.92,-34.31 83.22,-71.17 8.34,-13.8 24.3,-19.88 39.71,-15.06 15.46,4.81 25.2,18.88 24.25,35.02 -3.91,65.99 -24.41,175.8 -112.05,240.13 0.37,9.24 0.59,18.51 0.59,27.82 0,151.84 -63.92,290.98 -170.1,399.09l-32.41 221.2c0,22.22 -18.01,40.22 -40.22,40.22l-122.79 0c-22.21,0 -40.22,-18 -40.22,-40.22l-8.64 -58.95c-96.43,39.65 -204.62,61.89 -318.93,61.89 -103.14,0 -201.3,-18.13 -290.34,-50.8l-7.01 47.86c0,22.22 -18,40.22 -40.22,40.22z"/>
  <path class="fil3" d="M731.98 1337.88c0,-24.44 19.82,-44.26 44.26,-44.26 24.44,0 44.25,19.82 44.25,44.26 0,24.44 -19.81,44.25 -44.25,44.25 -24.44,0 -44.26,-19.81 -44.26,-44.25z"/>
  <path class="fil3" d="M1458.2 1018.69c-217.49,-73.57 -414.46,-1.1 -416.41,-0.35l-21.52 -57.05c8.85,-3.33 219.56,-80.82 457.46,-0.35l-19.53 57.75z"/>
  <circle class="fil4" cx="1283.51" cy="482.25" r="297.53"/>
  <path class="fil5" style="mask:url(#id2)" d="M1283.55 184.92c164.32,0 297.54,133.22 297.54,297.54 0,164.32 -133.22,297.53 -297.54,297.53 -164.32,0 -297.53,-133.21 -297.53,-297.53 0,-164.32 133.21,-297.54 297.53,-297.54z"/>
 </g>
</svg>
