<?xml version="1.0" encoding="UTF-8"?>
<!DOCTYPE svg PUBLIC "-//W3C//DTD SVG 1.1//EN" "http://www.w3.org/Graphics/SVG/1.1/DTD/svg11.dtd">
<!-- Creator: CorelDRAW 2018 (64-Bit) -->
<svg xmlns="http://www.w3.org/2000/svg" xml:space="preserve" width="7.95028in" height="7.95028in" version="1.1" style="shape-rendering:geometricPrecision; text-rendering:geometricPrecision; image-rendering:optimizeQuality; fill-rule:evenodd; clip-rule:evenodd"
viewBox="0 0 8315.34 8315.34"
 xmlns:xlink="http://www.w3.org/1999/xlink">
 <defs>
  <style type="text/css">
   <![CDATA[
    .str0 {stroke:#0351B0;stroke-width:232.42;stroke-miterlimit:2.61313}
    .fil0 {fill:#002D64}
    .fil5 {fill:#F27D00}
    .fil4 {fill:#FFCC00}
    .fil3 {fill:#002D64;fill-rule:nonzero}
    .fil1 {fill:#0351B0;fill-rule:nonzero}
    .fil2 {fill:#36ABFF;fill-rule:nonzero}
   ]]>
  </style>
   <mask id="id0">
  <linearGradient id="id1" gradientUnits="userSpaceOnUse" x1="6159.21" y1="5799.07" x2="3265.23" y2="4310.74">
   <stop offset="0" style="stop-opacity:1; stop-color:white"/>
   <stop offset="1" style="stop-opacity:0; stop-color:white"/>
  </linearGradient>
    <rect style="fill:url(#id1)" x="1245.97" y="2801.98" width="5724.8" height="4348.46"/>
   </mask>
    <mask id="id2">
  <linearGradient id="id3" gradientUnits="userSpaceOnUse" x1="5149.08" y1="2083.16" x2="3370.92" y2="1206.99">
   <stop offset="0" style="stop-opacity:0; stop-color:white"/>
   <stop offset="1" style="stop-opacity:1; stop-color:white"/>
  </linearGradient>
     <rect style="fill:url(#id3)" x="3283.07" y="612.12" width="1990.89" height="1990.9"/>
    </mask>
 </defs>
 <g id="Layer_x0020_1">
  <metadata id="CorelCorpID_0Corel-Layer"/>
  <circle class="fil0 str0" cx="4157.67" cy="4157.67" r="4041.46"/>
  <path class="fil1" d="M3028.56 7149.72l-409.3 0c-74.04,0 -134.07,-60.02 -134.07,-134.07l-91.8 -626.53c-130.6,-115.2 -245.67,-243.2 -342.41,-381.54l-55.2 -0.24c-325.9,15.19 -469.89,-74.43 -532.57,-304.67l-206.33 -758.02c-42.04,-154.43 49.92,-315.17 204.35,-357.2l290.86 -79.18c46.1,-232.38 129.62,-452.98 249.81,-653.72 -308.92,-413.41 -262.42,-879.39 -261.71,-885.68 0.97,-8.51 6.65,-15.74 14.69,-18.69 458.67,-167.85 884.24,-26.23 1143.69,107.45 345.21,-161.84 764.14,-254.92 1255.26,-254.92 1258.26,0 2042.5,609.11 2325.36,1422.73 98.56,-42.97 203.1,-114.35 277.41,-237.24 27.82,-45.98 81,-66.25 132.4,-50.19 51.53,16.03 84,62.93 80.82,116.74 -13.04,219.95 -81.38,586.03 -373.5,800.44 1.22,30.81 1.95,61.71 1.95,92.76 0,506.15 -213.07,969.96 -567.02,1330.35l-108.04 737.36c0,74.05 -60.02,134.07 -134.07,134.07l-409.3 0c-74.05,0 -134.08,-60.02 -134.08,-134.07l-28.79 -196.51c-321.45,132.16 -682.11,206.29 -1063.14,206.29 -343.83,0 -671.03,-60.43 -967.82,-169.34l-23.38 159.56c0,74.05 -60.03,134.07 -134.07,134.07z"/>
  <path class="fil2" style="mask:url(#id0)" d="M3028.56 7149.72l-409.3 0c-74.04,0 -134.07,-60.02 -134.07,-134.07l-91.8 -626.53c-130.6,-115.2 -245.67,-243.2 -342.41,-381.54l-55.2 -0.24c-325.9,15.19 -469.89,-74.43 -532.57,-304.67l-206.33 -758.02c-42.04,-154.43 49.92,-315.17 204.35,-357.2l290.86 -79.18c46.1,-232.38 129.62,-452.98 249.81,-653.72 -308.92,-413.41 -262.42,-879.39 -261.71,-885.68 0.97,-8.51 6.65,-15.74 14.69,-18.69 458.67,-167.85 884.24,-26.23 1143.69,107.45 345.21,-161.84 764.14,-254.92 1255.26,-254.92 1258.26,0 2042.5,609.11 2325.36,1422.73 98.56,-42.97 203.1,-114.35 277.41,-237.24 27.82,-45.98 81,-66.25 132.4,-50.19 51.53,16.03 84,62.93 80.82,116.74 -13.04,219.95 -81.38,586.03 -373.5,800.44 1.22,30.81 1.95,61.71 1.95,92.76 0,506.15 -213.07,969.96 -567.02,1330.35l-108.04 737.36c0,74.05 -60.02,134.07 -134.07,134.07l-409.3 0c-74.05,0 -134.08,-60.02 -134.08,-134.07l-28.79 -196.51c-321.45,132.16 -682.11,206.29 -1063.14,206.29 -343.83,0 -671.03,-60.43 -967.82,-169.34l-23.38 159.56c0,74.05 -60.03,134.07 -134.07,134.07z"/>
  <path class="fil3" d="M2440.03 4459.75c0,-81.47 66.06,-147.52 147.52,-147.52 81.47,0 147.52,66.05 147.52,147.52 0,81.47 -66.05,147.52 -147.52,147.52 -81.46,0 -147.52,-66.05 -147.52,-147.52z"/>
  <path class="fil3" d="M4860.84 3395.76c-724.99,-245.24 -1381.58,-3.66 -1388.1,-1.17l-71.71 -190.18c29.5,-11.11 731.88,-269.42 1524.9,-1.17l-65.09 192.51z"/>
  <g id="_17443915072">
   <circle class="fil4" cx="4278.52" cy="1607.57" r="991.82"/>
   <path class="fil5" style="mask:url(#id2)" d="M4278.52 615.75c547.76,0 991.82,444.05 991.82,991.82 0,547.76 -444.05,991.82 -991.82,991.82 -547.76,0 -991.82,-444.05 -991.82,-991.82 0,-547.76 444.05,-991.82 991.82,-991.82z"/>
  </g>
 </g>
</svg>
