<svg xmlns="http://www.w3.org/2000/svg" viewBox="0 0 39.79 39.79"><defs><style>.cls-1{fill:#fff;}</style></defs><title>Asset 49</title><g id="Layer_2" data-name="Layer 2"><g id="Main"><g id="Contacts"><g id="Social_Media_Icons" data-name="Social Media Icons"><g id="Linkedin"><path class="cls-1" d="M19.89,0a19.9,19.9,0,1,0,19.9,19.89A19.9,19.9,0,0,0,19.89,0Zm-5,29.53H10V12.12h5ZM12.59,11.06a2.34,2.34,0,1,1,2.33-2.34A2.33,2.33,0,0,1,12.59,11.06ZM32.33,29.53h-5V18.77c0-1.26-.36-2.15-1.91-2.15a3,3,0,0,0-3.06,2.15V29.53h-5V12.12h5v1.67a8.29,8.29,0,0,1,5-1.66c1.61,0,5,1,5,6.79V29.53Z"/></g></g></g></g></g></svg>