<svg xmlns="http://www.w3.org/2000/svg" viewBox="0 0 39.79 39.79"><defs><style>.cls-1{fill:#fff;}</style></defs><title>Asset 43</title><g id="Layer_2" data-name="Layer 2"><g id="Main"><g id="Contacts"><g id="Social_Media_Icons" data-name="Social Media Icons"><g id="Reddit"><path class="cls-1" d="M23.6,25.44a.36.36,0,0,1,0,.51,5,5,0,0,1-3.69,1.14h0A5,5,0,0,1,16.18,26a.36.36,0,0,1,.51-.51,4.38,4.38,0,0,0,3.19.93h0a4.37,4.37,0,0,0,3.18-.93A.36.36,0,0,1,23.6,25.44Zm-5.7-4A1.53,1.53,0,1,0,16.37,23,1.53,1.53,0,0,0,17.9,21.44Zm21.89-1.55A19.9,19.9,0,1,1,19.89,0,19.9,19.9,0,0,1,39.79,19.89Zm-8.29-.21a2.57,2.57,0,0,0-4.35-1.84,13.32,13.32,0,0,0-6.74-2l1.43-4.51,3.89.91v.05a2.11,2.11,0,1,0,.15-.76l-4.19-1a.35.35,0,0,0-.42.24l-1.6,5a13.33,13.33,0,0,0-7.06,2,2.56,2.56,0,0,0-4.31,1.87,2.55,2.55,0,0,0,1.27,2.2,4.49,4.49,0,0,0-.08.83c0,3.78,4.65,6.85,10.37,6.85s10.36-3.07,10.36-6.85a5.16,5.16,0,0,0-.07-.79A2.55,2.55,0,0,0,31.5,19.68Zm-8.08.23A1.53,1.53,0,1,0,25,21.44,1.54,1.54,0,0,0,23.42,19.91Z"/></g></g></g></g></g></svg>