<svg xmlns="http://www.w3.org/2000/svg" xmlns:xlink="http://www.w3.org/1999/xlink" viewBox="0 0 129 149"><defs><style>.cls-1{fill:none;}.cls-2{fill:#002d64;}.cls-3{clip-path:url(#clip-path);}.cls-4{fill:#3c5c74;}.cls-5{fill:#cea996;}.cls-6{fill:#f8cfb4;}.cls-7{fill:#e1bca4;}.cls-8{fill:#4a4844;}.cls-9{fill:#395363;}.cls-10{fill:#cad9e1;}.cls-11{fill:#f27d00;}.cls-12{fill:#e7f5fd;}.cls-13{fill:#0351b0;}.cls-14{fill:#5b6d6e;}</style><clipPath id="clip-path" transform="translate(0 0)"><polygon class="cls-1" points="64.5 0 129 37.25 129 111.75 64.5 149 0 111.75 0 37.25 64.5 0"/></clipPath></defs><title>Asset 57</title><g id="Layer_2" data-name="Layer 2"><g id="Main"><g id="Layer_1-2" data-name="Layer_1"><g id="_1424439795456" data-name=" 1424439795456"><polygon class="cls-2" points="64.5 0 129 37.25 129 111.75 64.5 149 0 111.75 0 37.25 64.5 0"/><g class="cls-3"><path id="_1" data-name="1" class="cls-4" d="M65,148.83l52-30c-.89-4.76-3.25-17-5.07-24.91-1.14-4.93-4.77-10.56-10.38-10.54,0,0-10.53-2.1-13.32-2.9-1.69-.49-3.65-2-5.29-2.27-3.28-.47-5.25,4.51-6.26,6.93-1.74,4.17-3.37,8.41-5.07,12.57-1.33,3.26-4.18,5.61-5.18,9.12-1.68,6-4.2,11.89-5,18.06-.49,4.08.43,7.86.67,11.89.05.9-.15,11.05-.15,11.05" transform="translate(0 0)"/><polygon class="cls-5" points="77.45 64.01 77.5 65.06 77.94 73.73 65.69 84.89 61.4 80.97 54.45 74.61 53.91 63.95 77.45 64.01"/><path class="cls-6" d="M63.88,31.21c1.39.38,3.28-1.41,4.17-2.14A18.9,18.9,0,0,1,73.5,26a7.37,7.37,0,0,1,4.5-.46c2.17.61,3.61,2.8,4,5,.82,4.52-1.45,9.2-.73,13.73.11.63.28,2.07,1.29,1.38.42-.29.15-1.07.6-1.41,1-.76,1.47.45,1.55,1.19a15.24,15.24,0,0,1-1.11,7.91C83,54.74,82,55.19,81,56.23s-.76,3.31-1.1,4.7a7.86,7.86,0,0,1-1.17,2.6c-1.15,1.65-3.26,2.5-4.6,4A15.4,15.4,0,0,1,70,71.34,9,9,0,0,1,66,72l-.55,0-2.08-41,.56.13Z" transform="translate(0 0)"/><path class="cls-7" d="M44.59,47.45c0-.73.36-2,1.43-1.33.47.29.29,1.09.73,1.34,1.08.58,1.11-.86,1.14-1.51.14-2.43-1.14-4.7-1-7.1.17-2.2,0-4.46.64-6.62a8.26,8.26,0,0,1,3.47-4.59,6.84,6.84,0,0,1,5.25-.71A7.58,7.58,0,0,1,60,29.45c1.12,1.26,1.66,1.25,3.37,1.64l2.08,41a8,8,0,0,1-3.51-.32,15.88,15.88,0,0,1-4.55-3.35c-1.48-1.37-3.67-2-5-3.53a7.77,7.77,0,0,1-1.42-2.47c-.49-1.35-.41-3.52-1.58-4.56s-2.08-1.28-2.87-2.62a15.42,15.42,0,0,1-1.9-7.77Z" transform="translate(0 0)"/><path class="cls-8" d="M83.51,42.31a18.81,18.81,0,0,0-.5,4.45l-1.87.1a8.59,8.59,0,0,1,0-.93,21.94,21.94,0,0,0-.18-2.8c-.46-4.35,1.1-18.71-7.84-14.19-1.31.67-2.47,1.61-3.76,2.32a13,13,0,0,1-12.21.13c-2.09-1.11-5.42-3.68-7.61-1.32-1.43,1.54-.89,5.59-1,7.48a51.64,51.64,0,0,0-.21,7.68c.08,1.08.36,2.12.39,3.21-2.87,1.08-2.26-2.12-2.82-3.78a29.35,29.35,0,0,1-1.28-8.13c-.15-2.77-1.13-5.8-.25-8.55,1.7-5.41,9-8.4,14-9.52a33.3,33.3,0,0,1,16.73.71c2.2.67,5.59,1.73,7.14,3.56s1.72,5.26,2.15,7.62c.72,3.95,0,8.08-.83,12Z" transform="translate(0 0)"/><path class="cls-9" d="M62,147.83h0s1.51-32.61.8-32.62a9.44,9.44,0,0,0-.33.92c-.12.32-.21.59-.21.59v-.24L56.35,91.11,53.57,75s-5.2,2.06-7.58,3a49.08,49.08,0,0,1-7.82,2.59c-1.68.33-8.84,2.6-9.54,4.46-.59,1.53,3.94,3.34,4,5h0c.15,5.46.44,10.9.66,16.35s.4,11,.25,16.51a52,52,0,0,0-.52,7.94" transform="translate(0 0)"/><path class="cls-10" d="M56.85,104.75a56.15,56.15,0,0,1,3.54,9.35c.51,1.67,1,4.23,2.87,4.44,2.35.26,4.43-4,5.49-5.67,1.58-2.53,3-5.13,4.54-7.64.19-2.53,0-5.63.95-8,.73-1.94,2.24-2.93,2.08-5.31a4.27,4.27,0,0,0-2.23-3.54,11.74,11.74,0,0,1-2.73-1.16,18.73,18.73,0,0,1-2-2.43c-.82-1-2.38-3.14-3.83-3.14-2.58-.51-6.18,5.17-8,6.9a19.13,19.13,0,0,0-5.27,9.32,39.84,39.84,0,0,1,4.55,6.92Z" transform="translate(0 0)"/><path class="cls-11" d="M57.42,108.33l4.95-18.1a2.55,2.55,0,0,0-.09-1.69l-1.22-2.78a.53.53,0,0,1,.14-.51L63,83.33a6.14,6.14,0,0,0,1.14-1.4c.19-.39.68-1.29,1.15-1s.51.77.76,1.16a8.83,8.83,0,0,0,1,1.06l1.34,1.47a.45.45,0,0,1,0,.49l-1.64,3a2.83,2.83,0,0,0-.35,1.73l2.18,17.28a.46.46,0,0,1,0,.26l-6,13.72a.48.48,0,0,1-.55.29.35.35,0,0,1-.52-.16l-4-12.68a.39.39,0,0,1,0-.26Z" transform="translate(0 0)"/><path class="cls-12" d="M53.91,69.87,64.8,80.55a.44.44,0,0,0,.62,0L77.79,68.25l5.08,9.18L73.09,94.16,65.41,81.48a.44.44,0,0,0-.75.06l-9.9,14.32-4-17.33,3.13-8.66Z" transform="translate(0 0)"/><path class="cls-9" d="M89,85.65c-.26-1.23,0-4.23-1.65-6.11a21.93,21.93,0,0,0-6.52-5.11L74,92.55l-2.07,5.09-9.82,22.63-.32,18.21s5.14-14.8,9.46-23.47a94,94,0,0,1,16.3-23.1l-6-4L89,85.65Z" transform="translate(0 0)"/><path class="cls-4" d="M42.12,86.56c.42-1.19,1.19-5.37,3.07-7a26.2,26.2,0,0,1,6.89-4.6l4.75,19.15,1.43,5.31,5,19.15-.94,20.9S60,125.85,56.79,116.72A93.79,93.79,0,0,0,43.46,91.78L50,88.51l-7.84-2Z" transform="translate(0 0)"/><path class="cls-13" d="M75,51.42h-.24a7.5,7.5,0,0,1-1.58-.17,6.83,6.83,0,0,1-4.85-3.93,1.15,1.15,0,0,1,.09-1.2c.8-1.18,3.48-2.11,6.38-2.2,2.39-.08,4.39.43,5.35,1.36A2.13,2.13,0,0,1,80.84,47c-.13,2.78-3,4.33-5.82,4.42ZM62.23,47.53a6.81,6.81,0,0,1-4.58,4.22,7,7,0,0,1-1.58.27h-.23c-2.8.09-5.79-1.26-6.1-4a2.13,2.13,0,0,1,.57-1.76c.9-1,2.86-1.62,5.24-1.7,2.91-.09,5.64.66,6.51,1.79a1.14,1.14,0,0,1,.17,1.19ZM84,43.62l-.53-1.31s-5.89,0-8.73.14-6.12.95-7.48,2.68l0-.07a4.23,4.23,0,0,1-4.08.13l0,.07c-1.47-1.63-4.84-2.28-7.63-2.19s-9.81,1.08-9.81,1.08L45.3,46l2.9,1.46a3.67,3.67,0,0,0,0,.74c.4,3.66,4.17,5.46,7.67,5.35h.29a10.28,10.28,0,0,0,1.92-.33A8.35,8.35,0,0,0,63.69,48a2.7,2.7,0,0,0,.18-1,5.22,5.22,0,0,0,1.41.15,5.48,5.48,0,0,0,1.4-.24,2.71,2.71,0,0,0,.24,1,8.38,8.38,0,0,0,5.93,4.79,9.43,9.43,0,0,0,1.93.2h.29c3.5-.11,7.14-2.15,7.32-5.83a4.53,4.53,0,0,0,0-.74L84,43.62Z" transform="translate(0 0)"/><path class="cls-9" d="M35,131.83c-.42-11.14,3.12-16.4,3.12-27.52,0-4.26-1.07-8.4-2-12.53a17,17,0,0,1-.59-5.35c.14-1.58,1.14-3.18,1-4.78a.53.53,0,0,0-.18-.38.58.58,0,0,0-.54,0c-.66.24-1.33.5-2,.77h0c-3.07,1.2-7.32,2.13-9.38,5-2.8,3.86-4.47,10.28-5.59,14.84-2.66,10.83-2.74,11-4.74,18" transform="translate(0 0)"/><path class="cls-14" d="M60,82.89s0,0,0,0S60,82.89,60,82.89Z" transform="translate(0 0)"/></g><polygon class="cls-1" points="64.5 0 129 37.25 129 111.75 64.5 149 0 111.75 0 37.25 64.5 0"/></g></g></g></g></svg>