<svg xmlns="http://www.w3.org/2000/svg" viewBox="0 0 1405.05 973.48"><defs><style>.cls-1{opacity:0.2;}.cls-2{fill:none;stroke:#f9f9f9;stroke-miterlimit:10;}</style></defs><title>Asset 34</title><g id="Layer_2" data-name="Layer 2"><g id="pattern"><g id="Advisor_Pattern" data-name="Advisor Pattern" class="cls-1"><path class="cls-2" d="M1404.8,851.45l-140.45-81.08V608.18l140.45-81.09"/><path class="cls-2" d="M843,527.09l140.45,81.09"/><path class="cls-2" d="M562.06,527.1l140.48,81.08L843,527.09V364.91"/><path class="cls-2" d="M1264.35,527.09V364.91"/><path class="cls-2" d="M1053.67,648.73l140.45,81.09V892M772.76,648.73l140.46,81.09"/><path class="cls-2" d="M1053.67,729.82V892"/><path class="cls-2" d="M1053.67,648.73V486.55"/><path class="cls-2" d="M772.76,486.55V648.73L632.31,729.82"/><path class="cls-2" d="M983.42,121.63,843,40.55"/><path class="cls-2" d="M843,40.55,702.54,121.63"/><path class="cls-2" d="M772.74,162.18,913.2,243.27l140.45-81.09"/><path class="cls-2" d="M1053.65,162.18V0"/><path class="cls-2" d="M772.74,243.27,632.29,162.18V0"/><path class="cls-2" d="M140.7,851.45.25,770.37"/><path class="cls-2" d="M281.16,608.18l140.45-81.09,140.45,81.09"/><path class="cls-2" d="M281.16,851.45,140.7,770.37"/><path class="cls-2" d="M351.38,648.73l140.46,81.09,140.47-81.09"/><path class="cls-2" d="M351.38,892V729.82L210.93,648.73"/><path class="cls-2" d="M562,40.55,421.59,121.63"/><path class="cls-2" d="M210.91,162.18l140.45,81.09"/><path class="cls-2" d="M632.27,162.18,491.81,243.27,351.36,162.18"/><path class="cls-2" d="M210.91,162.18,70.45,243.27"/><path class="cls-2" d="M1194.1,162.18l-140.45,81.09"/><path class="cls-2" d="M1334.56,243.27,1194.1,162.18"/><path class="cls-2" d="M140.7,364.91V527.09l140.46,81.09"/><path class="cls-2" d="M140.7,283.82l140.46,81.09"/><path class="cls-2" d="M.25,527.09,140.7,608.18V770.37"/><path class="cls-2" d="M1123.9,364.91l140.45-81.09"/><path class="cls-2" d="M1123.9,608.18l140.45-81.09"/><line class="cls-2" x1="421.95" y1="528.25" x2="421.95" y2="366.25"/><line class="cls-2" x1="1194.12" y1="648.73" x2="1053.67" y2="729.82"/><line class="cls-2" x1="1264.35" y1="770.37" x2="1123.9" y2="851.45"/><line class="cls-2" x1="1194.1" y1="973.05" x2="1053.67" y2="892"/><line class="cls-2" x1="1123.9" y1="608.19" x2="983.44" y2="527.1"/><line class="cls-2" x1="631.95" y1="486.25" x2="631.95" y2="648.25"/></g></g></g></svg>