<svg xmlns="http://www.w3.org/2000/svg" viewBox="0 0 509.36 587.02"><defs><style>.cls-1{fill:#008bad;}.cls-2{fill:#759a5c;}.cls-3{fill:#625345;}.cls-4{fill:#dac8b7;}.cls-5{fill:#c2a589;}.cls-6{fill:#4f673e;}.cls-7{fill:#9bcc7c;}.cls-8{fill:#c4e0b0;}.cls-9{fill:#949494;}.cls-10,.cls-11,.cls-12,.cls-13,.cls-14,.cls-15,.cls-16,.cls-17,.cls-18,.cls-19,.cls-20,.cls-9{fill-rule:evenodd;}.cls-10{fill:#cecece;}.cls-11{fill:#f1ccb3;}.cls-12{fill:#f8dcc9;}.cls-13{fill:#fff;}.cls-14{fill:#d2d2d2;}.cls-15{fill:#5b6872;}.cls-16{fill:#e5e5e4;}.cls-17{fill:#b3b2b3;}.cls-18{fill:#6a7580;}.cls-19{fill:#ebebeb;}.cls-20{fill:#c7c7c7;}.cls-21{fill:#4f53a2;}</style></defs><title>Asset 38</title><g id="Layer_2" data-name="Layer 2"><g id="Main"><g id="Building2"><polygon class="cls-1" points="509.36 294.08 0 0 0 587.02 509.36 294.08"/><polygon class="cls-2" points="138.3 387.46 215.19 427.41 253.84 407.32 176.95 367.43 138.3 387.46"/><polygon class="cls-3" points="170.29 389.76 179.34 394.34 179.34 378.95 170.29 374.37 170.29 389.76"/><polygon class="cls-4" points="187.17 390.28 179.34 394.34 179.34 378.95 187.17 374.89 187.17 390.28"/><polygon class="cls-5" points="187.17 374.89 179.34 378.95 170.29 374.34 178.12 370.31 187.17 374.89"/><polygon class="cls-6" points="154.77 372.43 179.31 384.85 179.31 343.13 154.77 330.7 154.77 372.43"/><polygon class="cls-7" points="200.54 373.84 179.31 384.85 179.31 343.13 200.54 332.12 200.54 373.84"/><polygon class="cls-8" points="200.54 332.12 179.31 343.13 154.77 330.62 176 319.69 200.54 332.12"/><polygon class="cls-3" points="207.01 409.42 216.06 414 216.06 398.62 207.01 394.04 207.01 409.42"/><polygon class="cls-4" points="223.89 409.94 216.06 414 216.06 398.62 223.89 394.55 223.89 409.94"/><polygon class="cls-6" points="191.5 392.1 216.04 404.52 216.04 362.8 191.5 350.37 191.5 392.1"/><polygon class="cls-7" points="237.26 393.51 216.04 404.52 216.04 362.8 237.26 351.78 237.26 393.51"/><polygon class="cls-8" points="237.26 351.78 216.04 362.8 191.5 350.29 212.72 339.36 237.26 351.78"/><g id="House"><polygon class="cls-9" points="435.31 240.53 435.31 293.06 437.61 291.64 437.61 239.11 435.31 240.53"/><polygon class="cls-10" points="435.31 240.53 435.31 293.06 433.01 291.64 433.01 239.11 435.31 240.53"/><polygon class="cls-11" points="268.82 362.18 268.82 214.65 419.75 122.45 419.75 270.02 268.82 362.18"/><polygon class="cls-12" points="133.91 279.76 133.91 132.15 268.86 214.57 268.86 362.26 133.91 279.76"/><polygon class="cls-13" points="133.91 132.15 284.73 39.96 419.71 122.42 268.86 214.53 133.91 132.15"/><polygon class="cls-14" points="152.68 131.48 283.7 51.44 400.95 123.05 269.89 203.09 152.68 131.48"/><polygon class="cls-15" points="302.66 341.47 302.66 306.21 343.91 281.03 343.91 316.3 302.66 341.47"/><polygon class="cls-9" points="322.02 310.09 322.02 362.61 324.27 361.23 324.27 308.7 322.02 310.09"/><polygon class="cls-10" points="322.02 310.09 322.02 362.61 319.72 361.23 319.72 308.7 322.02 310.09"/><polygon class="cls-15" points="354.64 309.73 354.64 274.46 410.53 240.34 410.53 275.61 354.64 309.73"/><polygon class="cls-16" points="399.44 202.22 444.57 229.81 318.42 306.84 273.21 279.33 399.44 202.22"/><polygon class="cls-17" points="444.57 229.81 444.57 235.11 318.42 312.26 318.42 306.84 444.57 229.81"/><polygon class="cls-13" points="273.13 279.21 273.13 284.55 318.42 312.26 318.42 306.84 273.13 279.21"/><polygon class="cls-18" points="233.47 230.88 233.47 249.13 215.34 238.04 215.34 219.83 233.47 230.88"/><polygon class="cls-18" points="208.33 215.52 208.29 233.77 190.2 222.68 190.2 204.47 208.33 215.52"/><polygon class="cls-18" points="233.47 276.48 233.47 294.73 215.34 283.68 215.34 265.43 233.47 276.48"/><polygon class="cls-18" points="208.33 261.12 208.29 279.37 190.2 268.32 190.2 250.07 208.33 261.12"/><polygon class="cls-18" points="183.25 199.92 183.22 218.17 165.13 207.09 165.13 188.88 183.25 199.92"/><polygon class="cls-18" points="183.25 245.52 183.22 263.77 165.13 252.73 165.13 234.48 183.25 245.52"/><polygon class="cls-18" points="374.43 175.77 374.43 194.02 392.52 182.98 392.52 164.73 374.43 175.77"/><polygon class="cls-18" points="324.16 206.49 324.16 224.74 342.25 213.7 342.25 195.45 324.16 206.49"/><polygon class="cls-18" points="349.29 191.13 349.29 209.38 367.38 198.34 367.38 180.09 349.29 191.13"/><polygon class="cls-18" points="299.61 221.5 299.61 239.7 317.74 228.66 317.74 210.41 299.61 221.5"/><polygon class="cls-19" points="283.7 51.44 283.7 60.27 159.76 135.79 152.28 131.64 283.7 51.44"/><polygon class="cls-20" points="283.7 51.44 283.7 60.27 393.7 127.44 400.95 123.05 283.7 51.44"/></g><polygon class="cls-21" points="391.06 207.05 436.67 234.25 444.3 229.58 399.26 202.04 391.06 207.05"/><polygon class="cls-21" points="377.82 215.23 423.43 242.43 431.07 237.76 386.02 210.22 377.82 215.23"/><polygon class="cls-21" points="363.35 223.92 408.96 251.12 416.6 246.46 371.55 218.91 363.35 223.92"/><polygon class="cls-21" points="348.62 232.89 394.23 260.09 401.86 255.43 356.82 227.88 348.62 232.89"/><polygon class="cls-21" points="333.77 241.95 379.38 269.15 387.02 264.49 341.97 236.94 333.77 241.95"/><polygon class="cls-21" points="318.37 251.35 363.99 278.55 371.62 273.88 326.57 246.34 318.37 251.35"/><polygon class="cls-21" points="302.59 261.15 348.2 288.34 355.84 283.68 310.79 256.14 302.59 261.15"/><polygon class="cls-21" points="287.75 270.18 333.37 297.37 341 292.71 295.96 265.17 287.75 270.18"/><polygon class="cls-21" points="273.25 279.02 318.61 306.48 326.25 301.82 281.2 274.27 273.25 279.02"/></g></g></g></svg>