<svg xmlns="http://www.w3.org/2000/svg" viewBox="0 0 1000.87 983.93"><defs><style>.cls-1{fill:#008bad;}.cls-2{fill:#dcb28b;}.cls-2,.cls-3,.cls-34,.cls-35,.cls-36,.cls-37,.cls-38,.cls-39,.cls-4,.cls-40,.cls-41,.cls-42,.cls-5,.cls-6,.cls-7,.cls-8{fill-rule:evenodd;}.cls-3{fill:#e5ca99;}.cls-16,.cls-4{fill:#fff;}.cls-5{fill:#d2d2d2;}.cls-6{fill:#6a7580;}.cls-7{fill:#ebebeb;}.cls-8{fill:#c7c7c7;}.cls-9{fill:#e2e2e2;}.cls-10{fill:#a9aaaa;}.cls-11{fill:#f3f3f3;}.cls-12{fill:#cccbcb;}.cls-13{fill:#737373;}.cls-14{fill:#eec2a4;}.cls-15{fill:#e1ac85;}.cls-17{fill:#747575;}.cls-18{fill:#b8b7b8;}.cls-19{fill:#8f8f8f;}.cls-20{fill:#726766;}.cls-21{fill:#d5cfcf;}.cls-22{fill:#e45151;}.cls-23{fill:#4c4544;}.cls-24{fill:#968686;}.cls-25{fill:#aa9e9e;}.cls-26{fill:#e6e6e5;}.cls-27{fill:#759a5c;}.cls-28{fill:#625345;}.cls-29{fill:#dac8b7;}.cls-30{fill:#c2a589;}.cls-31{fill:#4f673e;}.cls-32{fill:#9bcc7c;}.cls-33{fill:#c4e0b0;}.cls-34{fill:#e1e1c7;}.cls-35{fill:#b1b094;}.cls-36{fill:#fbf7d5;}.cls-37{fill:#f2f2f2;}.cls-38{fill:#e5e5e4;}.cls-39{fill:#a2a288;}.cls-40{fill:#8e8e79;}.cls-41{fill:#6c8e97;}.cls-42{fill:#60a3aa;}.cls-43{fill:#555;}.cls-44{fill:#414242;}.cls-45{fill:#575757;}.cls-46{fill:#d18465;}.cls-47{fill:#b43925;}.cls-48{fill:#e1ad98;}.cls-49{fill:#7084c1;}.cls-50{fill:#1a233b;}.cls-51{fill:gray;}.cls-52{fill:#354677;}.cls-53{fill:#b3b2b3;}.cls-54{fill:#6c81bf;}.cls-55{fill:#4b64ae;}.cls-56{fill:#6e655c;}</style></defs><title>Asset 39</title><g id="Layer_2" data-name="Layer 2"><g id="Main"><g id="Building3"><polyline class="cls-1" points="1000.87 983.93 1000.87 416.29 491.61 122.27 0 406.08"/><g id="House"><polygon class="cls-2" points="269.99 429.28 269.99 321.87 379.86 254.75 379.86 362.19 269.99 429.28"/><polygon class="cls-3" points="171.78 369.28 171.78 261.81 270.01 321.81 270.01 429.34 171.78 369.28"/><polygon class="cls-4" points="171.78 261.81 281.57 194.68 379.83 254.72 270.01 321.78 171.78 261.81"/><polygon class="cls-5" points="185.44 261.32 280.82 203.04 366.17 255.18 270.76 313.45 185.44 261.32"/><polygon class="cls-6" points="207.63 311.32 207.63 324.61 194.46 316.54 194.46 303.25 207.63 311.32"/><polygon class="cls-6" points="244.25 333.68 244.25 346.97 231.05 338.9 231.05 325.64 244.25 333.68"/><polygon class="cls-6" points="225.95 322.5 225.93 335.79 212.76 327.72 212.76 314.46 225.95 322.5"/><polygon class="cls-6" points="207.63 344.52 207.63 357.81 194.46 349.74 194.46 336.48 207.63 344.52"/><polygon class="cls-6" points="244.25 366.88 244.25 380.17 231.05 372.13 231.05 358.84 244.25 366.88"/><polygon class="cls-6" points="225.95 355.7 225.93 368.99 212.76 360.95 212.76 347.66 225.95 355.7"/><polygon class="cls-6" points="346.87 293.56 346.87 306.85 360.03 298.81 360.03 285.53 346.87 293.56"/><polygon class="cls-6" points="310.27 315.93 310.27 329.22 323.44 321.18 323.44 307.89 310.27 315.93"/><polygon class="cls-6" points="328.57 304.75 328.57 318.04 341.74 309.99 341.74 296.71 328.57 304.75"/><polygon class="cls-6" points="292.4 326.85 292.4 340.11 305.6 332.07 305.6 318.78 292.4 326.85"/><polygon class="cls-6" points="346.87 317.23 346.87 330.51 360.03 322.47 360.03 309.19 346.87 317.23"/><polygon class="cls-6" points="310.27 339.59 310.27 352.88 323.44 344.84 323.44 331.55 310.27 339.59"/><polygon class="cls-6" points="328.57 328.41 328.57 341.7 341.74 333.65 341.74 320.37 328.57 328.41"/><polygon class="cls-6" points="292.4 350.51 292.4 363.77 305.6 355.73 305.6 342.44 292.4 350.51"/><polygon class="cls-6" points="346.87 338.55 346.87 351.84 360.03 343.8 360.03 330.51 346.87 338.55"/><polygon class="cls-6" points="310.27 360.92 310.27 374.2 323.44 366.16 323.44 352.88 310.27 360.92"/><polygon class="cls-6" points="328.57 349.74 328.57 363.02 341.74 354.98 341.74 341.7 328.57 349.74"/><polygon class="cls-6" points="292.4 371.84 292.4 385.1 305.6 377.06 305.6 363.77 292.4 371.84"/><polygon class="cls-7" points="280.82 203.04 280.82 209.47 190.6 264.46 185.15 261.43 280.82 203.04"/><polygon class="cls-8" points="280.82 203.04 280.82 209.47 360.9 258.38 366.17 255.18 280.82 203.04"/></g><polygon class="cls-9" points="858.04 369.81 745.71 427.79 745.71 329.45 858.04 271.46 858.04 369.81"/><polygon class="cls-10" points="634.52 373.11 745.71 431.1 745.71 329.45 634.52 271.46 634.52 373.11"/><polygon class="cls-11" points="634.52 271.46 745.52 329.45 858.04 271.46 746.86 213.49 634.52 271.46"/><polygon class="cls-12" points="650.54 275.93 746.85 226.14 842.3 275.51 745.38 325.58 650.54 275.93"/><polygon class="cls-13" points="850.37 271.35 841.64 275.85 746.85 226.14 746.85 217.09 850.37 271.35"/><polygon class="cls-10" points="746.85 217.09 746.85 226.14 650.54 275.93 641.77 271.46 746.85 217.09"/><polygon class="cls-10" points="800.96 291.54 787.12 298.8 787.12 291.23 800.96 283.96 800.96 291.54"/><polygon class="cls-13" points="774.35 292.09 787.12 298.8 787.12 291.23 774.35 284.51 774.35 292.09"/><polygon class="cls-11" points="774.35 284.51 787.12 291.23 800.96 283.93 788.18 277.26 774.35 284.51"/><polygon class="cls-10" points="778.38 279.58 764.55 286.84 764.55 279.26 778.38 272 778.38 279.58"/><polygon class="cls-13" points="751.77 280.13 764.55 286.84 764.55 279.26 751.77 272.55 751.77 280.13"/><polygon class="cls-11" points="751.77 272.55 764.55 279.26 778.38 271.96 765.61 265.29 751.77 272.55"/><polygon class="cls-10" points="754.07 292.05 740.23 299.31 740.23 291.73 754.07 284.46 754.07 292.05"/><polygon class="cls-13" points="727.45 292.59 740.23 299.31 740.23 291.73 727.45 285.02 727.45 292.59"/><polygon class="cls-11" points="727.45 285.02 740.23 291.73 754.07 284.43 741.29 277.76 727.45 285.02"/><polygon class="cls-14" points="626.79 289.9 745.52 351.66 745.52 333.4 626.79 271.65 626.79 289.9"/><polygon class="cls-15" points="865.43 289.9 745.52 351.66 745.52 333.4 865.43 271.65 865.43 289.9"/><polygon class="cls-16" points="772.62 371.86 761.43 377.69 761.43 356.03 772.62 350.28 772.62 371.86"/><polygon class="cls-17" points="771.26 370.44 763.03 374.94 763.03 357.38 771.26 353.16 771.26 370.44"/><polygon class="cls-18" points="763.03 374.94 763.03 372.81 772.62 367.82 771.26 370.44 763.03 374.94"/><polygon class="cls-16" points="766.61 372.98 767.93 372.27 767.93 354.87 766.61 355.54 766.61 372.98"/><polygon class="cls-16" points="782.21 366.88 771.02 372.71 771.02 351.05 782.21 345.3 782.21 366.88"/><polygon class="cls-17" points="780.86 365.46 772.62 369.95 772.62 352.4 780.86 348.17 780.86 365.46"/><polygon class="cls-19" points="779.06 364.49 780.86 365.45 780.86 348.17 779.06 349.15 779.06 364.49"/><polygon class="cls-18" points="772.62 369.95 772.62 367.82 779.06 364.49 780.86 365.46 772.62 369.95"/><polygon class="cls-16" points="776.21 368 777.52 367.28 777.52 349.88 776.21 350.56 776.21 368"/><polygon class="cls-16" points="837.35 338.17 826.15 344 826.15 322.34 837.35 316.6 837.35 338.17"/><polygon class="cls-17" points="835.99 336.76 827.76 341.25 827.76 323.69 835.99 319.47 835.99 336.76"/><polygon class="cls-18" points="827.76 341.25 827.76 339.12 837.35 334.11 835.99 336.76 827.76 341.25"/><polygon class="cls-16" points="831.34 339.3 832.65 338.58 832.65 321.18 831.34 321.85 831.34 339.3"/><polygon class="cls-16" points="846.94 333.17 835.75 339 835.75 317.33 846.94 311.59 846.94 333.17"/><polygon class="cls-17" points="845.58 331.75 837.35 336.24 837.35 318.69 845.58 314.46 845.58 331.75"/><polygon class="cls-19" points="843.79 330.78 845.58 331.74 845.58 314.46 843.79 315.44 843.79 330.78"/><polygon class="cls-18" points="837.35 336.24 837.35 334.11 843.79 330.78 845.58 331.75 837.35 336.24"/><polygon class="cls-16" points="840.93 334.29 842.24 333.57 842.24 316.17 840.93 316.85 840.93 334.29"/><polygon class="cls-16" points="723.8 372.49 735 378.32 735 356.66 723.8 350.91 723.8 372.49"/><polygon class="cls-17" points="725.16 371.07 733.39 375.57 733.39 358.01 725.16 353.79 725.16 371.07"/><polygon class="cls-19" points="726.95 370.11 725.16 371.06 725.16 353.79 726.95 354.76 726.95 370.11"/><polygon class="cls-18" points="733.39 375.57 733.39 373.44 726.95 370.11 725.16 371.07 733.39 375.57"/><polygon class="cls-16" points="729.81 373.61 728.5 372.89 728.5 355.5 729.81 356.17 729.81 373.61"/><polygon class="cls-16" points="703.46 361.66 714.66 367.49 714.66 345.83 703.46 340.08 703.46 361.66"/><polygon class="cls-17" points="704.82 360.24 713.05 364.74 713.05 347.18 704.82 342.95 704.82 360.24"/><polygon class="cls-19" points="706.61 359.28 704.82 360.23 704.82 342.95 706.61 343.93 706.61 359.28"/><polygon class="cls-18" points="713.05 364.74 713.05 362.61 706.61 359.28 704.82 360.24 713.05 364.74"/><polygon class="cls-16" points="709.47 362.78 708.15 362.06 708.15 344.67 709.47 345.34 709.47 362.78"/><polygon class="cls-16" points="682.98 351.07 694.17 356.9 694.17 335.24 682.98 329.5 682.98 351.07"/><polygon class="cls-17" points="684.34 349.66 692.57 354.15 692.57 336.59 684.34 332.37 684.34 349.66"/><polygon class="cls-19" points="686.13 348.69 684.34 349.64 684.34 332.37 686.13 333.35 686.13 348.69"/><polygon class="cls-18" points="692.57 354.15 692.57 352.02 686.13 348.69 684.34 349.66 692.57 354.15"/><polygon class="cls-16" points="688.99 352.2 687.68 351.48 687.68 334.08 688.99 334.76 688.99 352.2"/><polygon class="cls-16" points="662.64 340.24 673.84 346.07 673.84 324.41 662.64 318.67 662.64 340.24"/><polygon class="cls-17" points="664 338.83 672.23 343.32 672.23 325.76 664 321.54 664 338.83"/><polygon class="cls-19" points="665.79 337.86 664 338.81 664 321.54 665.79 322.52 665.79 337.86"/><polygon class="cls-18" points="672.23 343.32 672.23 341.19 665.79 337.86 664 338.83 672.23 343.32"/><polygon class="cls-16" points="668.65 341.37 667.34 340.65 667.34 323.25 668.65 323.92 668.65 341.37"/><polygon class="cls-16" points="642.24 329.8 653.43 335.63 653.43 313.97 642.24 308.22 642.24 329.8"/><polygon class="cls-17" points="643.59 328.38 651.83 332.88 651.83 315.32 643.59 311.09 643.59 328.38"/><polygon class="cls-19" points="645.39 327.42 643.59 328.37 643.59 311.09 645.39 312.07 645.39 327.42"/><polygon class="cls-18" points="651.83 332.88 651.83 330.74 645.39 327.42 643.59 328.38 651.83 332.88"/><polygon class="cls-16" points="648.24 330.92 646.93 330.2 646.93 312.81 648.24 313.48 648.24 330.92"/><polygon class="cls-14" points="626.79 369.95 745.52 431.71 745.52 401.82 626.79 340.06 626.79 369.95"/><polygon class="cls-20" points="634.52 336.02 634.52 340.16 745.57 397.87 737.92 397.85 626.79 340.06 634.52 336.02"/><polygon class="cls-15" points="865.43 340.06 865.43 369.95 818.74 394 818.74 364.11 865.43 340.06"/><polygon class="cls-15" points="745.52 401.82 821.31 362.78 823.86 391.36 745.52 431.71 745.52 401.82"/><polygon class="cls-21" points="857.86 340.06 857.85 340.06 857.86 336.15 865.43 340.06 818.79 364.08 815.01 362.12 857.86 340.06"/><polygon class="cls-21" points="737.92 397.85 745.57 397.87 815.01 362.12 818.74 364.11 745.52 401.82 737.92 397.85"/><polygon class="cls-21" points="745.57 329.45 857.86 271.65 857.85 271.65 746.86 213.49 746.85 210.14 865.43 271.65 745.52 333.4 745.52 329.45 745.57 329.45"/><polygon class="cls-20" points="745.52 333.4 736.77 328.84 626.79 271.65 746.85 210.14 746.86 213.49 634.52 271.74 745.52 329.45 745.52 333.4"/><polygon class="cls-19" points="700.93 269.1 709.66 273.53 709.66 250.44 700.93 246.02 700.93 269.1"/><polygon class="cls-18" points="717.79 269.21 709.66 273.53 709.66 250.44 717.79 246.13 717.79 269.21"/><polygon class="cls-22" points="717.79 246.13 709.66 250.44 700.93 245.99 709.05 241.71 717.79 246.13"/><polygon class="cls-23" points="699.06 251.44 709.74 256.84 709.74 250.44 699.06 245.04 699.06 251.44"/><polygon class="cls-24" points="719.65 251.57 709.74 256.84 709.74 250.44 719.65 245.18 719.65 251.57"/><polygon class="cls-21" points="719.65 245.18 709.74 250.44 699.06 245.04 708.98 239.77 719.65 245.18"/><polygon class="cls-23" points="715.67 245.09 709.59 248.31 703.04 244.98 709.12 241.77 715.67 245.09"/><polygon class="cls-9" points="790.41 249.06 772.76 258.42 772.76 228.37 790.41 219.01 790.41 249.06"/><polygon class="cls-24" points="755.68 219.32 728.86 222.4 745.51 213.59 772.01 210.54 755.68 219.32"/><polygon class="cls-18" points="728.86 235.45 772.76 258.42 772.76 228.37 755.58 219.32 728.86 222.4 728.86 235.45"/><polygon class="cls-25" points="790.41 219.01 772.76 228.37 755.68 219.32 772.01 210.54 790.41 219.01"/><polygon class="cls-13" points="756.71 250.03 766.06 254.84 766.06 236.43 756.71 231.32 756.71 250.03"/><polygon class="cls-18" points="744.78 250.02 750.75 253.04 750.75 240.41 744.78 237.39 744.78 250.02"/><polygon class="cls-26" points="756.71 250.03 750.75 253.04 750.75 240.41 756.71 237.4 756.71 250.03"/><polygon class="cls-16" points="756.71 237.4 750.75 240.41 744.78 237.39 750.75 234.39 756.71 237.4"/><polygon class="cls-13" points="755.8 237.36 750.77 239.89 750.77 234.81 755.8 237.36"/><polygon class="cls-10" points="745.69 237.34 750.77 234.81 750.77 239.89 750.72 239.91 745.69 237.34"/><polygon class="cls-27" points="51.47 393.25 158.42 449.15 194.89 430.19 87.95 374.34 51.47 393.25"/><polygon class="cls-28" points="81.84 395.9 90.38 400.22 90.38 385.7 81.84 381.38 81.84 395.9"/><polygon class="cls-29" points="97.77 396.39 90.38 400.22 90.38 385.7 97.77 381.87 97.77 396.39"/><polygon class="cls-30" points="97.77 381.87 90.38 385.7 81.84 381.35 89.23 377.54 97.77 381.87"/><polygon class="cls-31" points="67.19 379.55 90.35 391.27 90.35 351.9 67.19 340.17 67.19 379.55"/><polygon class="cls-32" points="110.39 380.88 90.35 391.27 90.35 351.9 110.39 341.5 110.39 380.88"/><polygon class="cls-33" points="110.39 341.5 90.35 351.9 67.19 340.09 87.22 329.78 110.39 341.5"/><polygon class="cls-28" points="116.04 413.61 124.58 417.94 124.58 403.42 116.04 399.09 116.04 413.61"/><polygon class="cls-29" points="131.97 414.1 124.58 417.94 124.58 403.42 131.97 399.58 131.97 414.1"/><polygon class="cls-30" points="131.97 399.58 124.58 403.42 116.04 399.06 123.43 395.26 131.97 399.58"/><polygon class="cls-31" points="101.4 397.26 124.56 408.99 124.56 369.62 101.4 357.89 101.4 397.26"/><polygon class="cls-32" points="144.59 398.59 124.56 408.99 124.56 369.62 144.59 359.22 144.59 398.59"/><polygon class="cls-33" points="144.59 359.22 124.56 369.62 101.4 357.81 121.43 347.5 144.59 359.22"/><polygon class="cls-28" points="150.69 432.17 159.24 436.5 159.24 421.98 150.69 417.65 150.69 432.17"/><polygon class="cls-29" points="166.63 432.66 159.24 436.5 159.24 421.98 166.63 418.14 166.63 432.66"/><polygon class="cls-31" points="136.05 415.82 159.21 427.55 159.21 388.17 136.05 376.45 136.05 415.82"/><polygon class="cls-32" points="179.24 417.15 159.21 427.55 159.21 388.17 179.24 377.78 179.24 417.15"/><polygon class="cls-33" points="179.24 377.78 159.21 388.17 136.05 376.37 156.08 366.06 179.24 377.78"/><g id="Building"><polygon class="cls-34" points="509.76 299.84 509.76 128.66 399.84 64.36 399.84 235.75 509.76 299.84"/><polygon class="cls-35" points="509.76 128.66 619.51 64.46 619.51 235.71 509.76 299.84 509.76 128.66"/><polygon class="cls-36" points="619.51 64.77 509.69 0 399.81 64.36 509.76 128.66 619.51 64.77"/><polygon class="cls-37" points="599 64.26 509.69 12.02 420.38 64.23 509.73 116.5 599 64.26"/><polygon class="cls-4" points="509.69 12.02 509.62 22.55 428.59 69.03 420.38 64.23 509.69 12.02"/><polygon class="cls-38" points="509.69 12.02 509.62 22.52 590.8 69.03 599 64.26 509.69 12.02"/><polygon class="cls-6" points="484.38 133.8 484.38 149.41 468.19 139.97 468.19 124.36 484.38 133.8"/><polygon class="cls-6" points="461.93 120.7 461.93 136.28 445.74 126.83 445.74 111.22 461.93 120.7"/><polygon class="cls-39" points="398.36 100.39 509.76 165.7 509.76 175.21 398.43 109.29 398.36 100.39"/><polygon class="cls-36" points="398.36 100.39 399.84 99.78 509.76 163.97 509.76 165.7 398.36 100.39"/><polygon class="cls-6" points="484.38 170.57 484.38 186.18 468.19 176.73 468.19 161.13 484.38 170.57"/><polygon class="cls-6" points="461.93 157.44 461.93 173.04 445.74 163.6 445.74 147.99 461.93 157.44"/><polygon class="cls-6" points="439.32 107.22 439.32 122.8 423.13 113.35 423.13 97.75 439.32 107.22"/><polygon class="cls-6" points="439.32 143.96 439.32 159.57 423.13 150.12 423.13 134.51 439.32 143.96"/><polygon class="cls-39" points="398.36 137.16 509.76 202.47 509.76 211.98 398.43 146.06 398.36 137.16"/><polygon class="cls-36" points="398.36 137.16 399.84 136.54 509.76 200.71 509.76 202.47 398.36 137.16"/><polygon class="cls-39" points="398.36 65.95 509.76 131.26 509.76 140.78 398.43 74.82 398.36 65.95"/><polygon class="cls-36" points="398.36 65.95 399.84 65.34 509.76 129.5 509.76 131.26 398.36 65.95"/><polygon class="cls-39" points="621.17 100.39 509.76 165.7 509.76 175.21 621.1 109.29 621.17 100.39"/><polygon class="cls-36" points="621.17 100.39 619.68 99.78 509.76 163.97 509.76 165.7 621.17 100.39"/><polygon class="cls-39" points="621.17 137.16 509.76 202.47 509.76 211.98 621.1 146.06 621.17 137.16"/><polygon class="cls-36" points="621.17 137.16 619.68 136.54 509.76 200.71 509.76 202.47 621.17 137.16"/><polygon class="cls-39" points="621.17 65.95 509.76 131.26 509.76 140.78 621.1 74.82 621.17 65.95"/><polygon class="cls-36" points="621.17 65.95 619.68 65.34 509.76 129.5 509.76 131.26 621.17 65.95"/><polygon class="cls-6" points="534.58 133.8 534.58 149.41 550.78 139.97 550.78 124.36 534.58 133.8"/><polygon class="cls-6" points="557.03 120.7 557.03 136.28 573.23 126.83 573.23 111.22 557.03 120.7"/><polygon class="cls-6" points="579.52 107.53 579.52 123.14 595.68 113.69 595.68 98.08 579.52 107.53"/><polygon class="cls-6" points="534.58 170.57 534.58 186.18 550.78 176.73 550.78 161.13 534.58 170.57"/><polygon class="cls-6" points="557.03 157.44 557.03 173.04 573.23 163.6 573.23 147.99 557.03 157.44"/><polygon class="cls-6" points="579.52 144.3 579.52 159.91 595.68 150.46 595.68 134.85 579.52 144.3"/><polygon class="cls-39" points="399.84 173.21 393.06 177.17 502.87 240.66 509.76 237.41 399.84 173.21"/><polygon class="cls-39" points="399.84 189.43 393.06 193.39 502.87 256.91 509.76 253.62 399.84 189.43"/><polygon class="cls-40" points="619.68 173.21 626.47 177.17 516.62 240.66 509.76 237.41 619.68 173.21"/><polygon class="cls-40" points="619.68 189.43 626.47 193.39 516.62 256.91 509.76 253.62 619.68 189.43"/><polygon class="cls-40" points="619.68 205.68 626.47 209.64 516.62 273.13 509.76 269.88 619.68 205.68"/><polygon class="cls-41" points="473.21 279.46 473.21 248.54 426.15 221.02 426.15 252.1 473.21 279.46"/><polygon class="cls-42" points="449.34 265.64 449.66 234.77 473.31 248.58 472.89 279.46 449.34 265.64"/></g><polygon class="cls-9" points="741.72 615.16 576.14 700.62 576.14 554.5 741.72 469.03 741.72 615.16"/><polygon class="cls-10" points="282.07 548.85 576.14 700.62 576.14 554.5 282.07 402.73 282.07 548.85"/><polygon class="cls-11" points="282.07 402.73 576.14 554.5 669.17 514.7 375.09 362.94 282.07 402.73"/><polygon class="cls-12" points="305.68 409.3 447.63 335.92 718.52 475 575.67 548.79 305.68 409.3"/><polygon class="cls-13" points="730.41 468.86 717.55 475.5 447.63 335.92 447.63 322.58 730.41 468.86"/><polygon class="cls-10" points="447.63 322.58 447.63 335.92 305.68 409.3 292.76 402.73 447.63 322.58"/><polygon class="cls-10" points="686.21 474.38 575.62 531.83 575.62 463.26 686.21 405.8 686.21 474.38"/><polygon class="cls-43" points="337.82 409.3 575.62 531.83 575.62 463.26 337.82 340.73 337.82 409.3"/><polygon class="cls-9" points="701.11 423.27 575.65 488.22 575.65 398.14 701.11 333.18 701.11 423.27"/><polygon class="cls-10" points="322.18 357.48 575.65 488.22 575.65 398.14 322.18 267.39 322.18 357.48"/><polygon class="cls-11" points="322.18 267.39 575.65 398.14 701.11 333.18 447.63 202.44 322.18 267.39"/><polygon class="cls-12" points="345.79 273.97 447.63 221.09 677.91 339.14 575.18 392.43 345.79 273.97"/><polygon class="cls-13" points="689.8 333 676.94 339.64 447.63 221.09 447.63 207.75 689.8 333"/><polygon class="cls-10" points="447.63 207.75 447.63 221.09 345.79 273.97 332.87 267.39 447.63 207.75"/><polygon class="cls-16" points="733.95 505.04 709.69 517.89 709.69 502.93 733.95 490.2 733.95 505.04"/><polygon class="cls-17" points="731.95 502.95 712.06 513.84 712.06 504.92 731.95 494.44 731.95 502.95"/><polygon class="cls-19" points="729.3 501.53 731.95 502.93 731.95 494.44 729.3 495.88 729.3 501.53"/><polygon class="cls-18" points="712.06 513.84 712.06 510.7 729.3 501.53 731.95 502.95 712.06 513.84"/><polygon class="cls-16" points="721.04 509 722.97 507.95 722.97 499 721.04 499.99 721.04 509"/><polygon class="cls-16" points="704.42 520.38 680.16 533.24 680.16 518.28 704.42 505.55 704.42 520.38"/><polygon class="cls-17" points="702.42 518.3 682.52 529.18 682.52 520.27 702.42 509.78 702.42 518.3"/><polygon class="cls-19" points="699.77 516.87 702.42 518.28 702.42 509.78 699.77 511.22 699.77 516.87"/><polygon class="cls-18" points="682.52 529.18 682.52 526.04 699.77 516.87 702.42 518.3 682.52 529.18"/><polygon class="cls-16" points="691.5 524.35 693.44 523.29 693.44 514.34 691.5 515.33 691.5 524.35"/><polygon class="cls-16" points="674.28 536.21 650.02 549.06 650.02 534.1 674.28 521.37 674.28 536.21"/><polygon class="cls-17" points="672.28 534.12 652.38 545 652.38 536.09 672.28 525.6 672.28 534.12"/><polygon class="cls-19" points="669.63 532.7 672.28 534.1 672.28 525.6 669.63 527.04 669.63 532.7"/><polygon class="cls-18" points="652.38 545 652.38 541.86 669.63 532.7 672.28 534.12 652.38 545"/><polygon class="cls-16" points="661.36 540.17 663.3 539.11 663.3 530.16 661.36 531.16 661.36 540.17"/><polygon class="cls-16" points="643.76 552.07 619.5 564.93 619.5 549.97 643.76 537.24 643.76 552.07"/><polygon class="cls-17" points="641.76 549.99 621.86 560.87 621.86 551.96 641.76 541.47 641.76 549.99"/><polygon class="cls-19" points="639.11 548.56 641.76 549.97 641.76 541.47 639.11 542.91 639.11 548.56"/><polygon class="cls-18" points="621.86 560.87 621.86 557.73 639.11 548.56 641.76 549.99 621.86 560.87"/><polygon class="cls-16" points="630.84 556.04 632.78 554.98 632.78 546.03 630.84 547.02 630.84 556.04"/><polygon class="cls-16" points="612.07 568.63 587.81 581.48 587.81 566.52 612.07 553.79 612.07 568.63"/><polygon class="cls-17" points="610.07 566.54 590.17 577.43 590.17 568.51 610.07 558.02 610.07 566.54"/><polygon class="cls-19" points="607.42 565.12 610.07 566.52 610.07 558.02 607.42 559.47 607.42 565.12"/><polygon class="cls-18" points="590.17 577.43 590.17 574.28 607.42 565.12 610.07 566.54 590.17 577.43"/><polygon class="cls-16" points="599.15 572.59 601.09 571.54 601.09 562.59 599.15 563.58 599.15 572.59"/><polygon class="cls-16" points="733.95 532.73 709.69 545.59 709.69 530.63 733.95 517.89 733.95 532.73"/><polygon class="cls-17" points="731.95 530.65 712.06 541.53 712.06 532.62 731.95 522.13 731.95 530.65"/><polygon class="cls-19" points="729.3 529.22 731.95 530.63 731.95 522.13 729.3 523.57 729.3 529.22"/><polygon class="cls-18" points="712.06 541.53 712.06 538.39 729.3 529.22 731.95 530.65 712.06 541.53"/><polygon class="cls-16" points="721.04 536.7 722.97 535.64 722.97 526.69 721.04 527.68 721.04 536.7"/><polygon class="cls-16" points="704.42 548.08 680.16 560.93 680.16 545.97 704.42 533.24 704.42 548.08"/><polygon class="cls-17" points="702.42 545.99 682.52 556.87 682.52 547.96 702.42 537.47 702.42 545.99"/><polygon class="cls-19" points="699.77 544.56 702.42 545.97 702.42 537.47 699.77 538.91 699.77 544.56"/><polygon class="cls-18" points="682.52 556.87 682.52 553.73 699.77 544.56 702.42 545.99 682.52 556.87"/><polygon class="cls-16" points="691.5 552.04 693.44 550.98 693.44 542.03 691.5 543.02 691.5 552.04"/><polygon class="cls-16" points="674.28 563.9 650.02 576.75 650.02 561.79 674.28 549.06 674.28 563.9"/><polygon class="cls-17" points="672.28 561.81 652.38 572.7 652.38 563.78 672.28 553.29 672.28 561.81"/><polygon class="cls-19" points="669.63 560.39 672.28 561.79 672.28 553.29 669.63 554.74 669.63 560.39"/><polygon class="cls-18" points="652.38 572.7 652.38 569.55 669.63 560.39 672.28 561.81 652.38 572.7"/><polygon class="cls-16" points="661.36 567.86 663.3 566.81 663.3 557.86 661.36 558.85 661.36 567.86"/><polygon class="cls-16" points="643.76 579.77 619.5 592.62 619.5 577.66 643.76 564.93 643.76 579.77"/><polygon class="cls-17" points="641.76 577.68 621.86 588.56 621.86 579.65 641.76 569.16 641.76 577.68"/><polygon class="cls-19" points="639.11 576.25 641.76 577.66 641.76 569.16 639.11 570.6 639.11 576.25"/><polygon class="cls-18" points="621.86 588.56 621.86 585.42 639.11 576.25 641.76 577.68 621.86 588.56"/><polygon class="cls-16" points="630.84 583.73 632.78 582.67 632.78 573.72 630.84 574.72 630.84 583.73"/><polygon class="cls-16" points="612.07 596.32 587.81 609.18 587.81 594.21 612.07 581.48 612.07 596.32"/><polygon class="cls-17" points="610.07 594.24 590.17 605.12 590.17 596.21 610.07 585.72 610.07 594.24"/><polygon class="cls-19" points="607.42 592.81 610.07 594.21 610.07 585.72 607.42 587.16 607.42 592.81"/><polygon class="cls-18" points="590.17 605.12 590.17 601.98 607.42 592.81 610.07 594.24 590.17 605.12"/><polygon class="cls-16" points="599.15 600.28 601.09 599.23 601.09 590.28 599.15 591.27 599.15 600.28"/><polygon class="cls-16" points="733.95 560.81 709.69 573.66 709.69 558.7 733.95 545.97 733.95 560.81"/><polygon class="cls-17" points="731.95 558.72 712.06 569.6 712.06 560.69 731.95 550.2 731.95 558.72"/><polygon class="cls-19" points="729.3 557.29 731.95 558.7 731.95 550.2 729.3 551.64 729.3 557.29"/><polygon class="cls-18" points="712.06 569.6 712.06 566.46 729.3 557.29 731.95 558.72 712.06 569.6"/><polygon class="cls-16" points="721.04 564.77 722.97 563.71 722.97 554.76 721.04 555.76 721.04 564.77"/><polygon class="cls-16" points="704.42 576.15 680.16 589 680.16 574.04 704.42 561.31 704.42 576.15"/><polygon class="cls-17" points="702.42 574.06 682.52 584.95 682.52 576.03 702.42 565.54 702.42 574.06"/><polygon class="cls-19" points="699.77 572.64 702.42 574.04 702.42 565.54 699.77 566.99 699.77 572.64"/><polygon class="cls-18" points="682.52 584.95 682.52 581.8 699.77 572.64 702.42 574.06 682.52 584.95"/><polygon class="cls-16" points="691.5 580.11 693.44 579.05 693.44 570.11 691.5 571.1 691.5 580.11"/><polygon class="cls-16" points="674.28 591.97 650.02 604.83 650.02 589.87 674.28 577.13 674.28 591.97"/><polygon class="cls-17" points="672.28 589.89 652.38 600.77 652.38 591.86 672.28 581.37 672.28 589.89"/><polygon class="cls-19" points="669.63 588.46 672.28 589.87 672.28 581.37 669.63 582.81 669.63 588.46"/><polygon class="cls-18" points="652.38 600.77 652.38 597.63 669.63 588.46 672.28 589.89 652.38 600.77"/><polygon class="cls-16" points="661.36 595.93 663.3 594.88 663.3 585.93 661.36 586.92 661.36 595.93"/><polygon class="cls-16" points="643.76 607.84 619.5 620.69 619.5 605.73 643.76 593 643.76 607.84"/><polygon class="cls-17" points="641.76 605.75 621.86 616.64 621.86 607.72 641.76 597.23 641.76 605.75"/><polygon class="cls-19" points="639.11 604.33 641.76 605.73 641.76 597.23 639.11 598.68 639.11 604.33"/><polygon class="cls-18" points="621.86 616.64 621.86 613.49 639.11 604.33 641.76 605.75 621.86 616.64"/><polygon class="cls-16" points="630.84 611.8 632.78 610.75 632.78 601.79 630.84 602.79 630.84 611.8"/><polygon class="cls-16" points="612.07 624.4 587.81 637.25 587.81 622.29 612.07 609.55 612.07 624.4"/><polygon class="cls-17" points="610.07 622.31 590.17 633.19 590.17 624.28 610.07 613.79 610.07 622.31"/><polygon class="cls-19" points="607.42 620.88 610.07 622.29 610.07 613.79 607.42 615.23 607.42 620.88"/><polygon class="cls-18" points="590.17 633.19 590.17 630.05 607.42 620.88 610.07 622.31 590.17 633.19"/><polygon class="cls-16" points="599.15 628.36 601.09 627.3 601.09 618.35 599.15 619.34 599.15 628.36"/><polygon class="cls-16" points="733.95 588.25 709.69 601.1 709.69 586.14 733.95 573.41 733.95 588.25"/><polygon class="cls-17" points="731.95 586.16 712.06 597.05 712.06 588.13 731.95 577.64 731.95 586.16"/><polygon class="cls-19" points="729.3 584.74 731.95 586.14 731.95 577.64 729.3 579.09 729.3 584.74"/><polygon class="cls-18" points="712.06 597.05 712.06 593.9 729.3 584.74 731.95 586.16 712.06 597.05"/><polygon class="cls-16" points="721.04 592.21 722.97 591.15 722.97 582.21 721.04 583.2 721.04 592.21"/><polygon class="cls-16" points="704.42 603.59 680.16 616.44 680.16 601.48 704.42 588.75 704.42 603.59"/><polygon class="cls-17" points="702.42 601.5 682.52 612.39 682.52 603.47 702.42 592.99 702.42 601.5"/><polygon class="cls-19" points="699.77 600.08 702.42 601.48 702.42 592.99 699.77 594.43 699.77 600.08"/><polygon class="cls-18" points="682.52 612.39 682.52 609.24 699.77 600.08 702.42 601.5 682.52 612.39"/><polygon class="cls-16" points="691.5 607.55 693.44 606.5 693.44 597.55 691.5 598.54 691.5 607.55"/><polygon class="cls-16" points="674.28 619.41 650.02 632.27 650.02 617.31 674.28 604.58 674.28 619.41"/><polygon class="cls-17" points="672.28 617.33 652.38 628.21 652.38 619.3 672.28 608.81 672.28 617.33"/><polygon class="cls-19" points="669.63 615.9 672.28 617.31 672.28 608.81 669.63 610.25 669.63 615.9"/><polygon class="cls-18" points="652.38 628.21 652.38 625.07 669.63 615.9 672.28 617.33 652.38 628.21"/><polygon class="cls-16" points="661.36 623.38 663.3 622.32 663.3 613.37 661.36 614.37 661.36 623.38"/><polygon class="cls-16" points="643.76 635.28 619.5 648.13 619.5 633.17 643.76 620.44 643.76 635.28"/><polygon class="cls-17" points="641.76 633.2 621.86 644.08 621.86 635.16 641.76 624.67 641.76 633.2"/><polygon class="cls-19" points="639.11 631.77 641.76 633.17 641.76 624.67 639.11 626.12 639.11 631.77"/><polygon class="cls-18" points="621.86 644.08 621.86 640.93 639.11 631.77 641.76 633.2 621.86 644.08"/><polygon class="cls-16" points="630.84 639.24 632.78 638.19 632.78 629.24 630.84 630.23 630.84 639.24"/><polygon class="cls-16" points="612.07 651.84 587.81 664.69 587.81 649.73 612.07 637 612.07 651.84"/><polygon class="cls-17" points="610.07 649.75 590.17 660.63 590.17 651.72 610.07 641.23 610.07 649.75"/><polygon class="cls-19" points="607.42 648.32 610.07 649.73 610.07 641.23 607.42 642.68 607.42 648.32"/><polygon class="cls-18" points="590.17 660.63 590.17 657.49 607.42 648.32 610.07 649.75 590.17 660.63"/><polygon class="cls-16" points="599.15 655.8 601.09 654.74 601.09 645.79 599.15 646.79 599.15 655.8"/><polygon class="cls-16" points="418.66 505.04 442.92 517.89 442.92 502.93 418.66 490.2 418.66 505.04"/><polygon class="cls-17" points="420.66 502.95 440.56 513.84 440.56 504.92 420.66 494.44 420.66 502.95"/><polygon class="cls-19" points="423.31 501.53 420.66 502.93 420.66 494.44 423.31 495.88 423.31 501.53"/><polygon class="cls-18" points="440.56 513.84 440.56 510.7 423.31 501.53 420.66 502.95 440.56 513.84"/><polygon class="cls-16" points="431.58 509 429.64 507.95 429.64 499 431.58 499.99 431.58 509"/><polygon class="cls-16" points="448.2 520.38 472.45 533.24 472.45 518.28 448.2 505.55 448.2 520.38"/><polygon class="cls-17" points="450.2 518.3 470.09 529.18 470.09 520.27 450.2 509.78 450.2 518.3"/><polygon class="cls-19" points="452.84 516.87 450.2 518.28 450.2 509.78 452.84 511.22 452.84 516.87"/><polygon class="cls-18" points="470.09 529.18 470.09 526.04 452.84 516.87 450.2 518.3 470.09 529.18"/><polygon class="cls-16" points="461.11 524.35 459.18 523.29 459.18 514.34 461.11 515.33 461.11 524.35"/><polygon class="cls-16" points="478.34 536.21 502.6 549.06 502.6 534.1 478.34 521.37 478.34 536.21"/><polygon class="cls-17" points="480.34 534.12 500.23 545 500.23 536.09 480.34 525.6 480.34 534.12"/><polygon class="cls-19" points="482.98 532.7 480.34 534.1 480.34 525.6 482.98 527.04 482.98 532.7"/><polygon class="cls-18" points="500.23 545 500.23 541.86 482.98 532.7 480.34 534.12 500.23 545"/><polygon class="cls-16" points="491.25 540.17 489.31 539.11 489.31 530.16 491.25 531.16 491.25 540.17"/><polygon class="cls-16" points="508.86 552.07 533.12 564.93 533.12 549.97 508.86 537.24 508.86 552.07"/><polygon class="cls-17" points="510.86 549.99 530.75 560.87 530.75 551.96 510.86 541.47 510.86 549.99"/><polygon class="cls-19" points="513.5 548.56 510.86 549.97 510.86 541.47 513.5 542.91 513.5 548.56"/><polygon class="cls-18" points="530.75 560.87 530.75 557.73 513.5 548.56 510.86 549.99 530.75 560.87"/><polygon class="cls-16" points="521.77 556.04 519.84 554.98 519.84 546.03 521.77 547.02 521.77 556.04"/><polygon class="cls-16" points="540.55 568.63 564.8 581.48 564.8 566.52 540.55 553.79 540.55 568.63"/><polygon class="cls-17" points="542.54 566.54 562.44 577.43 562.44 568.51 542.54 558.02 542.54 566.54"/><polygon class="cls-19" points="545.19 565.12 542.54 566.52 542.54 558.02 545.19 559.47 545.19 565.12"/><polygon class="cls-18" points="562.44 577.43 562.44 574.28 545.19 565.12 542.54 566.54 562.44 577.43"/><polygon class="cls-16" points="553.46 572.59 551.52 571.54 551.52 562.59 553.46 563.58 553.46 572.59"/><polygon class="cls-16" points="418.66 532.73 442.92 545.59 442.92 530.63 418.66 517.89 418.66 532.73"/><polygon class="cls-17" points="420.66 530.65 440.56 541.53 440.56 532.62 420.66 522.13 420.66 530.65"/><polygon class="cls-19" points="423.31 529.22 420.66 530.63 420.66 522.13 423.31 523.57 423.31 529.22"/><polygon class="cls-18" points="440.56 541.53 440.56 538.39 423.31 529.22 420.66 530.65 440.56 541.53"/><polygon class="cls-16" points="431.58 536.7 429.64 535.64 429.64 526.69 431.58 527.68 431.58 536.7"/><polygon class="cls-16" points="448.2 548.08 472.45 560.93 472.45 545.97 448.2 533.24 448.2 548.08"/><polygon class="cls-17" points="450.2 545.99 470.09 556.87 470.09 547.96 450.2 537.47 450.2 545.99"/><polygon class="cls-19" points="452.84 544.56 450.2 545.97 450.2 537.47 452.84 538.91 452.84 544.56"/><polygon class="cls-18" points="470.09 556.87 470.09 553.73 452.84 544.56 450.2 545.99 470.09 556.87"/><polygon class="cls-16" points="461.11 552.04 459.18 550.98 459.18 542.03 461.11 543.02 461.11 552.04"/><polygon class="cls-16" points="478.34 563.9 502.6 576.75 502.6 561.79 478.34 549.06 478.34 563.9"/><polygon class="cls-17" points="480.34 561.81 500.23 572.7 500.23 563.78 480.34 553.29 480.34 561.81"/><polygon class="cls-19" points="482.98 560.39 480.34 561.79 480.34 553.29 482.98 554.74 482.98 560.39"/><polygon class="cls-18" points="500.23 572.7 500.23 569.55 482.98 560.39 480.34 561.81 500.23 572.7"/><polygon class="cls-16" points="491.25 567.86 489.31 566.81 489.31 557.86 491.25 558.85 491.25 567.86"/><polygon class="cls-16" points="508.86 579.77 533.12 592.62 533.12 577.66 508.86 564.93 508.86 579.77"/><polygon class="cls-17" points="510.86 577.68 530.75 588.56 530.75 579.65 510.86 569.16 510.86 577.68"/><polygon class="cls-19" points="513.5 576.25 510.86 577.66 510.86 569.16 513.5 570.6 513.5 576.25"/><polygon class="cls-18" points="530.75 588.56 530.75 585.42 513.5 576.25 510.86 577.68 530.75 588.56"/><polygon class="cls-16" points="521.77 583.73 519.84 582.67 519.84 573.72 521.77 574.72 521.77 583.73"/><polygon class="cls-16" points="540.55 596.32 564.8 609.18 564.8 594.21 540.55 581.48 540.55 596.32"/><polygon class="cls-17" points="542.54 594.24 562.44 605.12 562.44 596.21 542.54 585.72 542.54 594.24"/><polygon class="cls-19" points="545.19 592.81 542.54 594.21 542.54 585.72 545.19 587.16 545.19 592.81"/><polygon class="cls-18" points="562.44 605.12 562.44 601.98 545.19 592.81 542.54 594.24 562.44 605.12"/><polygon class="cls-16" points="553.46 600.28 551.52 599.23 551.52 590.28 553.46 591.27 553.46 600.28"/><polygon class="cls-16" points="418.66 560.81 442.92 573.66 442.92 558.7 418.66 545.97 418.66 560.81"/><polygon class="cls-17" points="420.66 558.72 440.56 569.6 440.56 560.69 420.66 550.2 420.66 558.72"/><polygon class="cls-19" points="423.31 557.29 420.66 558.7 420.66 550.2 423.31 551.64 423.31 557.29"/><polygon class="cls-18" points="440.56 569.6 440.56 566.46 423.31 557.29 420.66 558.72 440.56 569.6"/><polygon class="cls-16" points="431.58 564.77 429.64 563.71 429.64 554.76 431.58 555.76 431.58 564.77"/><polygon class="cls-16" points="448.2 576.15 472.45 589 472.45 574.04 448.2 561.31 448.2 576.15"/><polygon class="cls-17" points="450.2 574.06 470.09 584.95 470.09 576.03 450.2 565.54 450.2 574.06"/><polygon class="cls-19" points="452.84 572.64 450.2 574.04 450.2 565.54 452.84 566.99 452.84 572.64"/><polygon class="cls-18" points="470.09 584.95 470.09 581.8 452.84 572.64 450.2 574.06 470.09 584.95"/><polygon class="cls-16" points="461.11 580.11 459.18 579.05 459.18 570.11 461.11 571.1 461.11 580.11"/><polygon class="cls-16" points="478.34 591.97 502.6 604.83 502.6 589.87 478.34 577.13 478.34 591.97"/><polygon class="cls-17" points="480.34 589.89 500.23 600.77 500.23 591.86 480.34 581.37 480.34 589.89"/><polygon class="cls-19" points="482.98 588.46 480.34 589.87 480.34 581.37 482.98 582.81 482.98 588.46"/><polygon class="cls-18" points="500.23 600.77 500.23 597.63 482.98 588.46 480.34 589.89 500.23 600.77"/><polygon class="cls-16" points="491.25 595.93 489.31 594.88 489.31 585.93 491.25 586.92 491.25 595.93"/><polygon class="cls-16" points="508.86 607.84 533.12 620.69 533.12 605.73 508.86 593 508.86 607.84"/><polygon class="cls-17" points="510.86 605.75 530.75 616.64 530.75 607.72 510.86 597.23 510.86 605.75"/><polygon class="cls-19" points="513.5 604.33 510.86 605.73 510.86 597.23 513.5 598.68 513.5 604.33"/><polygon class="cls-18" points="530.75 616.64 530.75 613.49 513.5 604.33 510.86 605.75 530.75 616.64"/><polygon class="cls-16" points="521.77 611.8 519.84 610.75 519.84 601.79 521.77 602.79 521.77 611.8"/><polygon class="cls-16" points="540.55 624.4 564.8 637.25 564.8 622.29 540.55 609.55 540.55 624.4"/><polygon class="cls-17" points="542.54 622.31 562.44 633.19 562.44 624.28 542.54 613.79 542.54 622.31"/><polygon class="cls-19" points="545.19 620.88 542.54 622.29 542.54 613.79 545.19 615.23 545.19 620.88"/><polygon class="cls-18" points="562.44 633.19 562.44 630.05 545.19 620.88 542.54 622.31 562.44 633.19"/><polygon class="cls-16" points="553.46 628.36 551.52 627.3 551.52 618.35 553.46 619.34 553.46 628.36"/><polygon class="cls-16" points="418.66 588.25 442.92 601.1 442.92 586.14 418.66 573.41 418.66 588.25"/><polygon class="cls-17" points="420.66 586.16 440.56 597.05 440.56 588.13 420.66 577.64 420.66 586.16"/><polygon class="cls-19" points="423.31 584.74 420.66 586.14 420.66 577.64 423.31 579.09 423.31 584.74"/><polygon class="cls-18" points="440.56 597.05 440.56 593.9 423.31 584.74 420.66 586.16 440.56 597.05"/><polygon class="cls-16" points="431.58 592.21 429.64 591.15 429.64 582.21 431.58 583.2 431.58 592.21"/><polygon class="cls-16" points="448.2 603.59 472.45 616.44 472.45 601.48 448.2 588.75 448.2 603.59"/><polygon class="cls-17" points="450.2 601.5 470.09 612.39 470.09 603.47 450.2 592.99 450.2 601.5"/><polygon class="cls-19" points="452.84 600.08 450.2 601.48 450.2 592.99 452.84 594.43 452.84 600.08"/><polygon class="cls-18" points="470.09 612.39 470.09 609.24 452.84 600.08 450.2 601.5 470.09 612.39"/><polygon class="cls-16" points="461.11 607.55 459.18 606.5 459.18 597.55 461.11 598.54 461.11 607.55"/><polygon class="cls-16" points="478.34 619.41 502.6 632.27 502.6 617.31 478.34 604.58 478.34 619.41"/><polygon class="cls-17" points="480.34 617.33 500.23 628.21 500.23 619.3 480.34 608.81 480.34 617.33"/><polygon class="cls-19" points="482.98 615.9 480.34 617.31 480.34 608.81 482.98 610.25 482.98 615.9"/><polygon class="cls-18" points="500.23 628.21 500.23 625.07 482.98 615.9 480.34 617.33 500.23 628.21"/><polygon class="cls-16" points="491.25 623.38 489.31 622.32 489.31 613.37 491.25 614.37 491.25 623.38"/><polygon class="cls-16" points="508.86 635.28 533.12 648.13 533.12 633.17 508.86 620.44 508.86 635.28"/><polygon class="cls-17" points="510.86 633.2 530.75 644.08 530.75 635.16 510.86 624.67 510.86 633.2"/><polygon class="cls-19" points="513.5 631.77 510.86 633.17 510.86 624.67 513.5 626.12 513.5 631.77"/><polygon class="cls-18" points="530.75 644.08 530.75 640.93 513.5 631.77 510.86 633.2 530.75 644.08"/><polygon class="cls-16" points="521.77 639.24 519.84 638.19 519.84 629.24 521.77 630.23 521.77 639.24"/><polygon class="cls-16" points="540.55 651.84 564.8 664.69 564.8 649.73 540.55 637 540.55 651.84"/><polygon class="cls-17" points="542.54 649.75 562.44 660.63 562.44 651.72 542.54 641.23 542.54 649.75"/><polygon class="cls-19" points="545.19 648.32 542.54 649.73 542.54 641.23 545.19 642.68 545.19 648.32"/><polygon class="cls-18" points="562.44 660.63 562.44 657.49 545.19 648.32 542.54 649.75 562.44 660.63"/><polygon class="cls-16" points="553.46 655.8 551.52 654.74 551.52 645.79 553.46 646.79 553.46 655.8"/><polygon class="cls-16" points="296.87 441.51 321.13 454.36 321.13 439.4 296.87 426.67 296.87 441.51"/><polygon class="cls-17" points="298.87 439.42 318.77 450.31 318.77 441.39 298.87 430.9 298.87 439.42"/><polygon class="cls-19" points="301.52 438 298.87 439.4 298.87 430.9 301.52 432.35 301.52 438"/><polygon class="cls-18" points="318.77 450.31 318.77 447.16 301.52 438 298.87 439.42 318.77 450.31"/><polygon class="cls-16" points="309.79 445.47 307.85 444.42 307.85 435.46 309.79 436.46 309.79 445.47"/><polygon class="cls-16" points="327.01 457.33 351.27 470.19 351.27 455.23 327.01 442.49 327.01 457.33"/><polygon class="cls-17" points="329.01 455.25 348.91 466.13 348.91 457.21 329.01 446.73 329.01 455.25"/><polygon class="cls-19" points="331.66 453.82 329.01 455.23 329.01 446.73 331.66 448.17 331.66 453.82"/><polygon class="cls-18" points="348.91 466.13 348.91 462.99 331.66 453.82 329.01 455.25 348.91 466.13"/><polygon class="cls-16" points="339.93 461.3 337.99 460.24 337.99 451.29 339.93 452.28 339.93 461.3"/><polygon class="cls-16" points="357.54 473.2 381.79 486.05 381.79 471.09 357.54 458.36 357.54 473.2"/><polygon class="cls-17" points="359.53 471.11 379.43 482 379.43 473.08 359.53 462.59 359.53 471.11"/><polygon class="cls-19" points="362.18 469.69 359.53 471.09 359.53 462.59 362.18 464.04 362.18 469.69"/><polygon class="cls-18" points="379.43 482 379.43 478.85 362.18 469.69 359.53 471.11 379.43 482"/><polygon class="cls-16" points="370.45 477.16 368.51 476.1 368.51 467.15 370.45 468.15 370.45 477.16"/><polygon class="cls-16" points="389.22 489.75 413.48 502.61 413.48 487.65 389.22 474.92 389.22 489.75"/><polygon class="cls-17" points="391.22 487.67 411.12 498.55 411.12 489.64 391.22 479.15 391.22 487.67"/><polygon class="cls-19" points="393.87 486.24 391.22 487.65 391.22 479.15 393.87 480.59 393.87 486.24"/><polygon class="cls-18" points="411.12 498.55 411.12 495.41 393.87 486.24 391.22 487.67 411.12 498.55"/><polygon class="cls-16" points="402.14 493.72 400.2 492.66 400.2 483.71 402.14 484.7 402.14 493.72"/><polygon class="cls-16" points="296.87 469.2 321.13 482.06 321.13 467.09 296.87 454.36 296.87 469.2"/><polygon class="cls-17" points="298.87 467.11 318.77 478 318.77 469.08 298.87 458.6 298.87 467.11"/><polygon class="cls-19" points="301.52 465.69 298.87 467.09 298.87 458.6 301.52 460.04 301.52 465.69"/><polygon class="cls-18" points="318.77 478 318.77 474.86 301.52 465.69 298.87 467.11 318.77 478"/><polygon class="cls-16" points="309.79 473.16 307.85 472.11 307.85 463.16 309.79 464.15 309.79 473.16"/><polygon class="cls-16" points="327.01 485.02 351.27 497.88 351.27 482.92 327.01 470.19 327.01 485.02"/><polygon class="cls-17" points="329.01 482.94 348.91 493.82 348.91 484.91 329.01 474.42 329.01 482.94"/><polygon class="cls-19" points="331.66 481.51 329.01 482.92 329.01 474.42 331.66 475.86 331.66 481.51"/><polygon class="cls-18" points="348.91 493.82 348.91 490.68 331.66 481.51 329.01 482.94 348.91 493.82"/><polygon class="cls-16" points="339.93 488.99 337.99 487.93 337.99 478.98 339.93 479.97 339.93 488.99"/><polygon class="cls-16" points="357.54 500.89 381.79 513.74 381.79 498.78 357.54 486.05 357.54 500.89"/><polygon class="cls-17" points="359.53 498.8 379.43 509.69 379.43 500.77 359.53 490.29 359.53 498.8"/><polygon class="cls-19" points="362.18 497.38 359.53 498.78 359.53 490.29 362.18 491.73 362.18 497.38"/><polygon class="cls-18" points="379.43 509.69 379.43 506.55 362.18 497.38 359.53 498.8 379.43 509.69"/><polygon class="cls-16" points="370.45 504.85 368.51 503.8 368.51 494.85 370.45 495.84 370.45 504.85"/><polygon class="cls-16" points="389.22 517.45 413.48 530.3 413.48 515.34 389.22 502.61 389.22 517.45"/><polygon class="cls-17" points="391.22 515.36 411.12 526.24 411.12 517.33 391.22 506.84 391.22 515.36"/><polygon class="cls-19" points="393.87 513.93 391.22 515.34 391.22 506.84 393.87 508.29 393.87 513.93"/><polygon class="cls-18" points="411.12 526.24 411.12 523.1 393.87 513.93 391.22 515.36 411.12 526.24"/><polygon class="cls-16" points="402.14 521.41 400.2 520.35 400.2 511.4 402.14 512.4 402.14 521.41"/><polygon class="cls-16" points="296.87 497.27 321.13 510.13 321.13 495.17 296.87 482.44 296.87 497.27"/><polygon class="cls-17" points="298.87 495.19 318.77 506.07 318.77 497.16 298.87 486.67 298.87 495.19"/><polygon class="cls-19" points="301.52 493.76 298.87 495.17 298.87 486.67 301.52 488.11 301.52 493.76"/><polygon class="cls-18" points="318.77 506.07 318.77 502.93 301.52 493.76 298.87 495.19 318.77 506.07"/><polygon class="cls-16" points="309.79 501.24 307.85 500.18 307.85 491.23 309.79 492.22 309.79 501.24"/><polygon class="cls-16" points="327.01 513.1 351.27 525.95 351.27 510.99 327.01 498.26 327.01 513.1"/><polygon class="cls-17" points="329.01 511.01 348.91 521.89 348.91 512.98 329.01 502.49 329.01 511.01"/><polygon class="cls-19" points="331.66 509.58 329.01 510.99 329.01 502.49 331.66 503.94 331.66 509.58"/><polygon class="cls-18" points="348.91 521.89 348.91 518.75 331.66 509.58 329.01 511.01 348.91 521.89"/><polygon class="cls-16" points="339.93 517.06 337.99 516 337.99 507.05 339.93 508.05 339.93 517.06"/><polygon class="cls-16" points="357.54 528.96 381.79 541.82 381.79 526.86 357.54 514.13 357.54 528.96"/><polygon class="cls-17" points="359.53 526.88 379.43 537.76 379.43 528.85 359.53 518.36 359.53 526.88"/><polygon class="cls-19" points="362.18 525.45 359.53 526.86 359.53 518.36 362.18 519.8 362.18 525.45"/><polygon class="cls-18" points="379.43 537.76 379.43 534.62 362.18 525.45 359.53 526.88 379.43 537.76"/><polygon class="cls-16" points="370.45 532.93 368.51 531.87 368.51 522.92 370.45 523.91 370.45 532.93"/><polygon class="cls-16" points="389.22 545.52 413.48 558.37 413.48 543.41 389.22 530.68 389.22 545.52"/><polygon class="cls-17" points="391.22 543.43 411.12 554.32 411.12 545.4 391.22 534.91 391.22 543.43"/><polygon class="cls-19" points="393.87 542.01 391.22 543.41 391.22 534.91 393.87 536.36 393.87 542.01"/><polygon class="cls-18" points="411.12 554.32 411.12 551.17 393.87 542.01 391.22 543.43 411.12 554.32"/><polygon class="cls-16" points="402.14 549.48 400.2 548.43 400.2 539.48 402.14 540.47 402.14 549.48"/><polygon class="cls-16" points="296.87 524.72 321.13 537.57 321.13 522.61 296.87 509.88 296.87 524.72"/><polygon class="cls-17" points="298.87 522.63 318.77 533.51 318.77 524.6 298.87 514.11 298.87 522.63"/><polygon class="cls-19" points="301.52 521.2 298.87 522.61 298.87 514.11 301.52 515.55 301.52 521.2"/><polygon class="cls-18" points="318.77 533.51 318.77 530.37 301.52 521.2 298.87 522.63 318.77 533.51"/><polygon class="cls-16" points="309.79 528.68 307.85 527.62 307.85 518.67 309.79 519.66 309.79 528.68"/><polygon class="cls-16" points="327.01 540.54 351.27 553.39 351.27 538.43 327.01 525.7 327.01 540.54"/><polygon class="cls-17" points="329.01 538.45 348.91 549.34 348.91 540.42 329.01 529.93 329.01 538.45"/><polygon class="cls-19" points="331.66 537.03 329.01 538.43 329.01 529.93 331.66 531.38 331.66 537.03"/><polygon class="cls-18" points="348.91 549.34 348.91 546.19 331.66 537.03 329.01 538.45 348.91 549.34"/><polygon class="cls-16" points="339.93 544.5 337.99 543.45 337.99 534.5 339.93 535.49 339.93 544.5"/><polygon class="cls-16" points="357.54 556.41 381.79 569.26 381.79 554.3 357.54 541.57 357.54 556.41"/><polygon class="cls-17" points="359.53 554.32 379.43 565.2 379.43 556.29 359.53 545.8 359.53 554.32"/><polygon class="cls-19" points="362.18 552.89 359.53 554.3 359.53 545.8 362.18 547.24 362.18 552.89"/><polygon class="cls-18" points="379.43 565.2 379.43 562.06 362.18 552.89 359.53 554.32 379.43 565.2"/><polygon class="cls-16" points="370.45 560.37 368.51 559.31 368.51 550.36 370.45 551.36 370.45 560.37"/><polygon class="cls-16" points="389.22 572.96 413.48 585.82 413.48 570.85 389.22 558.12 389.22 572.96"/><polygon class="cls-17" points="391.22 570.88 411.12 581.76 411.12 572.84 391.22 562.36 391.22 570.88"/><polygon class="cls-19" points="393.87 569.45 391.22 570.85 391.22 562.36 393.87 563.8 393.87 569.45"/><polygon class="cls-18" points="411.12 581.76 411.12 578.62 393.87 569.45 391.22 570.88 411.12 581.76"/><polygon class="cls-16" points="402.14 576.92 400.2 575.87 400.2 566.92 402.14 567.91 402.14 576.92"/><polygon class="cls-17" points="422.09 621.05 442.41 631.64 442.41 608.82 422.09 598.29 422.09 621.05"/><polygon class="cls-18" points="424.74 619.63 422.09 621.03 422.09 598.29 424.74 599.65 424.74 619.63"/><polygon class="cls-19" points="433.63 624.25 433.63 604.27 431.75 603.29 431.75 623.26 424.74 619.63 422.09 621.05 442.41 631.64 442.41 628.81 433.63 624.25"/><polygon class="cls-17" points="391.32 605.08 411.64 615.67 411.64 592.85 391.32 582.32 391.32 605.08"/><polygon class="cls-18" points="393.97 603.66 391.32 605.06 391.32 582.32 393.97 583.68 393.97 603.66"/><polygon class="cls-19" points="402.86 608.28 402.86 588.3 400.98 587.32 400.98 607.3 393.97 603.66 391.32 605.08 411.64 615.67 411.64 612.84 402.86 608.28"/><polygon class="cls-44" points="457.57 334.91 455.16 336.13 455.16 318.3 457.57 317.08 457.57 334.91"/><polygon class="cls-45" points="452.89 334.95 455.16 336.13 455.16 318.3 452.89 317.08 452.89 334.95"/><polygon class="cls-44" points="481.43 347.26 479.02 348.49 479.02 330.66 481.43 329.44 481.43 347.26"/><polygon class="cls-45" points="476.75 347.3 479.02 348.49 479.02 330.66 476.75 329.44 476.75 347.3"/><polygon class="cls-46" points="485.33 341.45 483.45 342.6 483.45 330.71 485.33 329.56 485.33 341.45"/><polygon class="cls-47" points="449.76 325.05 483.45 342.6 483.45 330.71 449.76 313.16 449.76 325.05"/><polygon class="cls-48" points="449.76 313.16 483.45 330.71 485.33 329.53 451.64 312.01 449.76 313.16"/><polygon class="cls-49" points="619.74 496.73 575.61 519.69 575.61 497.3 619.74 474.38 619.74 496.73"/><polygon class="cls-49" points="686.21 462.27 652.89 479.48 652.89 457.16 686.21 439.89 686.21 462.27"/><polygon class="cls-17" points="646.88 494.71 626.56 505.3 626.56 482.47 646.88 471.95 646.88 494.71"/><polygon class="cls-18" points="644.23 493.28 646.88 494.69 646.88 471.95 644.23 473.31 644.23 493.28"/><polygon class="cls-19" points="635.34 497.9 635.34 477.92 637.22 476.95 637.22 496.92 644.23 493.28 646.88 494.71 626.56 505.3 626.56 502.46 635.34 497.9"/><polygon class="cls-10" points="337.82 399.08 575.61 522.85 575.61 494.22 337.82 370.57 337.82 399.08"/><polygon class="cls-50" points="337.82 396.37 575.61 519.69 575.61 497.3 337.82 374.08 337.82 396.37"/><polygon class="cls-10" points="572.97 518.32 575.61 519.69 575.61 497.3 572.97 495.93 572.97 518.32"/><polygon class="cls-10" points="561.93 512.57 564.56 513.94 564.56 491.55 561.93 490.19 561.93 512.57"/><polygon class="cls-10" points="551.01 506.9 553.65 508.26 553.65 485.87 551.01 484.51 551.01 506.9"/><polygon class="cls-10" points="539.97 501.15 542.6 502.51 542.6 480.13 539.97 478.76 539.97 501.15"/><polygon class="cls-10" points="528.69 495.46 531.32 496.82 531.32 474.43 528.69 473.07 528.69 495.46"/><polygon class="cls-10" points="517.65 489.71 520.28 491.08 520.28 468.69 517.65 467.32 517.65 489.71"/><polygon class="cls-10" points="506.73 484.03 509.36 485.4 509.36 463.01 506.73 461.65 506.73 484.03"/><polygon class="cls-10" points="495.69 478.29 498.32 479.65 498.32 457.26 495.69 455.9 495.69 478.29"/><polygon class="cls-10" points="484.23 472.15 486.86 473.52 486.86 451.13 484.23 449.77 484.23 472.15"/><polygon class="cls-10" points="473.19 466.41 475.82 467.77 475.82 445.39 473.19 444.02 473.19 466.41"/><polygon class="cls-10" points="462.27 460.73 464.9 462.1 464.9 439.71 462.27 438.35 462.27 460.73"/><polygon class="cls-10" points="451.23 454.99 453.86 456.35 453.86 433.96 451.23 432.6 451.23 454.99"/><polygon class="cls-10" points="439.94 449.29 442.57 450.66 442.57 428.27 439.94 426.91 439.94 449.29"/><polygon class="cls-10" points="428.9 443.55 431.53 444.91 431.53 422.52 428.9 421.16 428.9 443.55"/><polygon class="cls-10" points="416.84 437.42 419.47 438.78 419.47 416.39 416.84 415.03 416.84 437.42"/><polygon class="cls-10" points="404.3 430.82 406.94 432.18 406.94 409.8 404.3 408.43 404.3 430.82"/><polygon class="cls-10" points="392.1 424.48 394.73 425.84 394.73 403.45 392.1 402.09 392.1 424.48"/><polygon class="cls-10" points="380.39 418.42 383.02 419.78 383.02 397.39 380.39 396.03 380.39 418.42"/><polygon class="cls-10" points="368.88 412.6 371.51 413.97 371.51 391.58 368.88 390.21 368.88 412.6"/><polygon class="cls-10" points="357.57 406.54 360.21 407.91 360.21 385.52 357.57 384.15 357.57 406.54"/><polygon class="cls-10" points="347.75 401.56 350.38 402.93 350.38 380.54 347.75 379.18 347.75 401.56"/><polygon class="cls-10" points="337.82 396.46 340.45 397.83 340.45 375.44 337.82 374.08 337.82 396.46"/><polygon class="cls-51" points="328.73 350.2 566.52 473.97 566.52 445.34 328.73 321.69 328.73 350.2"/><polygon class="cls-52" points="328.73 347.49 566.52 470.81 566.52 448.42 328.73 325.2 328.73 347.49"/><polygon class="cls-51" points="563.89 469.44 566.52 470.81 566.52 448.42 563.89 447.06 563.89 469.44"/><polygon class="cls-51" points="552.85 463.69 555.48 465.06 555.48 442.67 552.85 441.31 552.85 463.69"/><polygon class="cls-51" points="541.93 458.02 544.56 459.38 544.56 436.99 541.93 435.63 541.93 458.02"/><polygon class="cls-51" points="530.88 452.27 533.52 453.64 533.52 431.25 530.88 429.88 530.88 452.27"/><polygon class="cls-51" points="519.6 446.58 522.23 447.94 522.23 425.56 519.6 424.19 519.6 446.58"/><polygon class="cls-51" points="508.56 440.83 511.19 442.2 511.19 419.81 508.56 418.44 508.56 440.83"/><polygon class="cls-51" points="497.64 435.15 500.27 436.52 500.27 414.13 497.64 412.77 497.64 435.15"/><polygon class="cls-51" points="486.6 429.41 489.23 430.77 489.23 408.38 486.6 407.02 486.6 429.41"/><polygon class="cls-51" points="475.14 423.28 477.77 424.64 477.77 402.25 475.14 400.89 475.14 423.28"/><polygon class="cls-51" points="464.1 417.53 466.73 418.9 466.73 396.51 464.1 395.14 464.1 417.53"/><polygon class="cls-51" points="453.18 411.85 455.81 413.22 455.81 390.83 453.18 389.47 453.18 411.85"/><polygon class="cls-51" points="442.14 406.11 444.77 407.47 444.77 385.08 442.14 383.72 442.14 406.11"/><polygon class="cls-51" points="430.86 400.41 433.49 401.78 433.49 379.39 430.86 378.03 430.86 400.41"/><polygon class="cls-51" points="419.81 394.67 422.44 396.03 422.44 373.64 419.81 372.28 419.81 394.67"/><polygon class="cls-51" points="407.76 388.54 410.39 389.9 410.39 367.51 407.76 366.15 407.76 388.54"/><polygon class="cls-51" points="395.22 381.94 397.86 383.31 397.86 360.92 395.22 359.55 395.22 381.94"/><polygon class="cls-51" points="383.02 375.6 385.65 376.96 385.65 354.57 383.02 353.21 383.02 375.6"/><polygon class="cls-51" points="371.3 369.54 373.93 370.9 373.93 348.51 371.3 347.15 371.3 369.54"/><polygon class="cls-51" points="359.8 363.72 362.43 365.09 362.43 342.7 359.8 341.33 359.8 363.72"/><polygon class="cls-51" points="348.49 357.66 351.12 359.03 351.12 336.64 348.49 335.28 348.49 357.66"/><polygon class="cls-51" points="338.66 352.69 341.3 354.05 341.3 331.66 338.66 330.3 338.66 352.69"/><polygon class="cls-51" points="328.73 347.58 331.37 348.95 331.37 326.56 328.73 325.2 328.73 347.58"/><polygon class="cls-53" points="689.92 419.19 587.5 472.82 587.5 444.2 689.92 390.68 689.92 419.19"/><polygon class="cls-54" points="689.92 416.48 587.5 469.66 587.5 447.27 689.92 394.19 689.92 416.48"/><polygon class="cls-53" points="590.13 468.3 587.5 469.66 587.5 447.27 590.13 445.91 590.13 468.3"/><polygon class="cls-53" points="601.17 462.55 598.54 463.92 598.54 441.53 601.17 440.17 601.17 462.55"/><polygon class="cls-53" points="612.09 456.87 609.46 458.24 609.46 435.85 612.09 434.49 612.09 456.87"/><polygon class="cls-53" points="623.13 451.13 620.5 452.49 620.5 430.1 623.13 428.74 623.13 451.13"/><polygon class="cls-53" points="634.41 445.43 631.78 446.8 631.78 424.41 634.41 423.05 634.41 445.43"/><polygon class="cls-53" points="645.45 439.69 642.82 441.05 642.82 418.66 645.45 417.3 645.45 439.69"/><polygon class="cls-53" points="656.37 434.01 653.74 435.37 653.74 412.99 656.37 411.62 656.37 434.01"/><polygon class="cls-53" points="667.41 428.26 664.78 429.63 664.78 407.24 667.41 405.88 667.41 428.26"/><polygon class="cls-53" points="678.88 422.81 676.24 424.18 676.24 401.11 678.88 399.75 678.88 422.81"/><polygon class="cls-53" points="689.92 416.84 687.28 418.21 687.28 395.36 689.92 394 689.92 416.84"/><polygon class="cls-53" points="689.92 381.44 587.5 435.07 587.5 406.44 689.92 352.93 689.92 381.44"/><polygon class="cls-54" points="689.92 378.73 587.5 431.91 587.5 409.52 689.92 356.43 689.92 378.73"/><polygon class="cls-53" points="590.13 430.55 587.5 431.91 587.5 409.52 590.13 408.16 590.13 430.55"/><polygon class="cls-53" points="601.17 424.8 598.54 426.17 598.54 403.78 601.17 402.41 601.17 424.8"/><polygon class="cls-53" points="612.09 419.12 609.46 420.49 609.46 398.1 612.09 396.74 612.09 419.12"/><polygon class="cls-53" points="623.13 413.38 620.5 414.74 620.5 392.35 623.13 390.99 623.13 413.38"/><polygon class="cls-53" points="634.41 407.68 631.78 409.05 631.78 386.66 634.41 385.3 634.41 407.68"/><polygon class="cls-53" points="645.45 401.94 642.82 403.3 642.82 380.91 645.45 379.55 645.45 401.94"/><polygon class="cls-53" points="656.37 396.26 653.74 397.62 653.74 375.23 656.37 373.87 656.37 396.26"/><polygon class="cls-53" points="667.41 390.51 664.78 391.88 664.78 369.49 667.41 368.13 667.41 390.51"/><polygon class="cls-53" points="678.88 385.06 676.24 386.43 676.24 363.36 678.88 361.99 678.88 385.06"/><polygon class="cls-53" points="689.92 379.09 687.28 380.46 687.28 357.61 689.92 356.25 689.92 379.09"/><polygon class="cls-51" points="328.73 311.92 566.52 435.69 566.52 407.06 328.73 283.42 328.73 311.92"/><polygon class="cls-52" points="328.73 309.22 566.52 432.53 566.52 410.14 328.73 286.92 328.73 309.22"/><polygon class="cls-51" points="563.89 431.17 566.52 432.53 566.52 410.14 563.89 408.78 563.89 431.17"/><polygon class="cls-51" points="552.85 425.42 555.48 426.79 555.48 404.4 552.85 403.03 552.85 425.42"/><polygon class="cls-51" points="541.93 419.74 544.56 421.11 544.56 398.72 541.93 397.36 541.93 419.74"/><polygon class="cls-51" points="530.88 414 533.52 415.36 533.52 392.97 530.88 391.61 530.88 414"/><polygon class="cls-51" points="519.6 408.3 522.23 409.67 522.23 387.28 519.6 385.92 519.6 408.3"/><polygon class="cls-51" points="508.56 402.56 511.19 403.92 511.19 381.53 508.56 380.17 508.56 402.56"/><polygon class="cls-51" points="497.64 396.88 500.27 398.24 500.27 375.86 497.64 374.49 497.64 396.88"/><polygon class="cls-51" points="486.6 391.13 489.23 392.5 489.23 370.11 486.6 368.75 486.6 391.13"/><polygon class="cls-51" points="475.14 385 477.77 386.37 477.77 363.98 475.14 362.62 475.14 385"/><polygon class="cls-51" points="464.1 379.25 466.73 380.62 466.73 358.23 464.1 356.87 464.1 379.25"/><polygon class="cls-51" points="453.18 373.58 455.81 374.94 455.81 352.55 453.18 351.19 453.18 373.58"/><polygon class="cls-51" points="442.14 367.83 444.77 369.2 444.77 346.81 442.14 345.44 442.14 367.83"/><polygon class="cls-51" points="430.86 362.14 433.49 363.5 433.49 341.12 430.86 339.75 430.86 362.14"/><polygon class="cls-51" points="419.81 356.39 422.44 357.76 422.44 335.37 419.81 334 419.81 356.39"/><polygon class="cls-51" points="407.76 350.26 410.39 351.63 410.39 329.24 407.76 327.87 407.76 350.26"/><polygon class="cls-51" points="395.22 343.66 397.86 345.03 397.86 322.64 395.22 321.28 395.22 343.66"/><polygon class="cls-51" points="383.02 337.32 385.65 338.69 385.65 316.3 383.02 314.94 383.02 337.32"/><polygon class="cls-51" points="371.3 331.26 373.93 332.63 373.93 310.24 371.3 308.88 371.3 331.26"/><polygon class="cls-51" points="359.8 325.45 362.43 326.81 362.43 304.42 359.8 303.06 359.8 325.45"/><polygon class="cls-51" points="348.49 319.39 351.12 320.75 351.12 298.36 348.49 297 348.49 319.39"/><polygon class="cls-51" points="338.66 314.41 341.3 315.78 341.3 293.39 338.66 292.02 338.66 314.41"/><polygon class="cls-51" points="328.73 309.31 331.37 310.68 331.37 288.29 328.73 286.92 328.73 309.31"/><polygon class="cls-55" points="652.89 457.16 686.21 439.85 686.21 462.15 652.89 479.48 652.89 457.16"/><polygon class="cls-55" points="619.74 496.73 575.61 519.69 575.61 497.3 619.74 474.38 619.74 496.73"/><path class="cls-9" d="M575.6,494.22v28.63l45.46-23.75V470.3Zm35.64-15.46h-.16l7.35-3.84v22.39l-7.19,3.75Zm-11.16,5.75,8.53-4.46v22.39l-8.41,4.39V484.51Zm-10.89,5.69,8.37-4.38v22.39l-8.28,4.33V490.19Zm-11,5.72,8.41-4.39v22.38l-8.41,4.4Z"/><path class="cls-9" d="M652.89,453.78v28.54l33.32-17.47v-2.7L678,466.4V444.1l8.18-4.25v-3.5Zm22.5,14L667,472.15V449.84l8.41-4.37Zm-19.87-12,8.83-4.58v22.31l-8.83,4.59Z"/><polygon class="cls-27" points="469.24 252.34 403.34 286.71 370.39 269.58 436.29 235.26 469.24 252.34"/><polygon class="cls-29" points="441.8 254.74 434.09 258.64 434.09 245.52 441.8 241.62 441.8 254.74"/><polygon class="cls-56" points="427.41 255.18 434.09 258.64 434.09 245.52 427.41 242.06 427.41 255.18"/><polygon class="cls-30" points="427.41 242.06 434.09 245.52 441.8 241.59 435.13 238.16 427.41 242.06"/><polygon class="cls-32" points="455.03 239.97 434.11 250.55 434.11 214.99 455.03 204.4 455.03 239.97"/><polygon class="cls-31" points="416.01 241.17 434.11 250.55 434.11 214.99 416.01 205.6 416.01 241.17"/><polygon class="cls-33" points="416.01 205.6 434.11 214.99 455.03 204.32 436.94 195.01 416.01 205.6"/><polygon class="cls-29" points="410.9 270.74 403.19 274.64 403.19 261.53 410.9 257.62 410.9 270.74"/><polygon class="cls-56" points="396.52 271.18 403.19 274.64 403.19 261.53 396.52 258.06 396.52 271.18"/><polygon class="cls-30" points="396.52 258.06 403.19 261.53 410.9 257.59 404.23 254.16 396.52 258.06"/><polygon class="cls-32" points="424.13 255.97 403.21 266.56 403.21 230.99 424.13 220.4 424.13 255.97"/><polygon class="cls-31" points="385.12 257.17 403.21 266.56 403.21 230.99 385.12 221.6 385.12 257.17"/><polygon class="cls-33" points="385.12 221.6 403.21 230.99 424.13 220.33 406.04 211.01 385.12 221.6"/><polygon class="cls-18" points="568.68 366.58 587.32 376.46 587.32 344.74 568.68 334.86 568.68 366.58"/><polygon class="cls-10" points="605.34 335.19 633.65 338.44 616.07 329.13 588.1 325.92 605.34 335.19"/><polygon class="cls-9" points="633.65 352.21 587.32 376.46 587.32 344.74 605.45 335.19 633.65 338.44 633.65 352.21"/><polygon class="cls-13" points="568.68 334.86 587.32 344.74 605.34 335.19 588.1 325.92 568.68 334.86"/><polygon class="cls-18" points="556.3 366.56 562.49 369.69 562.49 356.56 556.3 353.43 556.3 366.56"/><polygon class="cls-26" points="568.68 366.57 562.49 369.69 562.49 356.56 568.68 353.44 568.68 366.57"/><polygon class="cls-16" points="568.68 353.44 562.49 356.56 556.3 353.43 562.49 350.31 568.68 353.44"/><polygon class="cls-13" points="567.75 353.4 562.51 356.02 562.51 350.75 567.75 353.4"/><polygon class="cls-10" points="557.24 353.38 562.51 350.75 562.51 356.02 562.47 356.04 557.24 353.38"/><polygon class="cls-10" points="552.26 289.66 537.17 297.57 537.17 289.31 552.26 281.39 552.26 289.66"/><polygon class="cls-13" points="523.23 290.25 537.17 297.57 537.17 289.31 523.23 281.99 523.23 290.25"/><polygon class="cls-11" points="523.23 281.99 537.17 289.31 552.26 281.35 538.33 274.07 523.23 281.99"/><polygon class="cls-10" points="580.1 304.42 565.01 312.33 565.01 304.07 580.1 296.15 580.1 304.42"/><polygon class="cls-13" points="551.08 305.01 565.01 312.33 565.01 304.07 551.08 296.75 551.08 305.01"/><polygon class="cls-11" points="551.08 296.75 565.01 304.07 580.1 296.11 566.17 288.84 551.08 296.75"/><polygon class="cls-27" points="721.07 628.24 828.24 684.26 864.79 665.25 757.62 609.28 721.07 628.24"/><polygon class="cls-28" points="751.5 630.89 760.05 635.22 760.05 620.67 751.5 616.34 751.5 630.89"/><polygon class="cls-29" points="767.46 631.38 760.05 635.22 760.05 620.67 767.46 616.83 767.46 631.38"/><polygon class="cls-30" points="767.46 616.83 760.05 620.67 751.5 616.31 758.9 612.5 767.46 616.83"/><polygon class="cls-31" points="736.82 614.5 760.03 626.25 760.03 586.8 736.82 575.04 736.82 614.5"/><polygon class="cls-32" points="780.11 615.84 760.03 626.25 760.03 586.8 780.11 576.38 780.11 615.84"/><polygon class="cls-33" points="780.11 576.38 760.03 586.8 736.82 574.96 756.89 564.63 780.11 576.38"/><polygon class="cls-28" points="785.77 648.64 794.33 652.98 794.33 638.42 785.77 634.09 785.77 648.64"/><polygon class="cls-29" points="801.74 649.14 794.33 652.98 794.33 638.42 801.74 634.58 801.74 649.14"/><polygon class="cls-30" points="801.74 634.58 794.33 638.42 785.77 634.06 793.18 630.25 801.74 634.58"/><polygon class="cls-31" points="771.1 632.26 794.31 644.01 794.31 604.55 771.1 592.8 771.1 632.26"/><polygon class="cls-32" points="814.38 633.59 794.31 644.01 794.31 604.55 814.38 594.13 814.38 633.59"/><polygon class="cls-33" points="814.38 594.13 794.31 604.55 771.1 592.72 791.17 582.38 814.38 594.13"/><polygon class="cls-28" points="820.5 667.24 829.06 671.58 829.06 657.02 820.5 652.69 820.5 667.24"/><polygon class="cls-29" points="836.47 667.74 829.06 671.58 829.06 657.02 836.47 653.18 836.47 667.74"/><polygon class="cls-31" points="805.83 650.86 829.04 662.61 829.04 623.15 805.83 611.4 805.83 650.86"/><polygon class="cls-32" points="849.11 652.19 829.04 662.61 829.04 623.15 849.11 612.73 849.11 652.19"/><polygon class="cls-33" points="849.11 612.73 829.04 623.15 805.83 611.32 825.9 600.99 849.11 612.73"/><polygon class="cls-27" points="636.08 677.52 745.78 734.87 783.2 715.42 673.49 658.13 636.08 677.52"/><polygon class="cls-28" points="667.22 680.24 675.99 684.68 675.99 669.78 667.22 665.35 667.22 680.24"/><polygon class="cls-29" points="683.57 680.75 675.99 684.68 675.99 669.78 683.57 665.85 683.57 680.75"/><polygon class="cls-30" points="683.57 665.85 675.99 669.78 667.22 665.32 674.8 661.41 683.57 665.85"/><polygon class="cls-31" points="652.2 663.47 675.96 675.5 675.96 635.11 652.2 623.08 652.2 663.47"/><polygon class="cls-32" points="696.51 664.84 675.96 675.5 675.96 635.11 696.51 624.45 696.51 664.84"/><polygon class="cls-33" points="696.51 624.45 675.96 635.11 652.2 623 672.75 612.42 696.51 624.45"/><polygon class="cls-28" points="702.31 698.42 711.08 702.85 711.08 687.96 702.31 683.52 702.31 698.42"/><polygon class="cls-29" points="718.65 698.92 711.08 702.85 711.08 687.96 718.65 684.02 718.65 698.92"/><polygon class="cls-30" points="718.65 684.02 711.08 687.96 702.31 683.49 709.89 679.59 718.65 684.02"/><polygon class="cls-31" points="687.29 681.64 711.05 693.67 711.05 653.28 687.29 641.25 687.29 681.64"/><polygon class="cls-32" points="731.6 683.01 711.05 693.67 711.05 653.28 731.6 642.62 731.6 683.01"/><polygon class="cls-33" points="731.6 642.62 711.05 653.28 687.29 641.17 707.84 630.59 731.6 642.62"/><polygon class="cls-28" points="737.86 717.46 746.62 721.89 746.62 707 737.86 702.56 737.86 717.46"/><polygon class="cls-29" points="754.2 717.96 746.62 721.89 746.62 707 754.2 703.06 754.2 717.96"/><polygon class="cls-31" points="722.84 700.68 746.6 712.71 746.6 672.32 722.84 660.29 722.84 700.68"/><polygon class="cls-32" points="767.15 702.05 746.6 712.71 746.6 672.32 767.15 661.66 767.15 702.05"/><polygon class="cls-33" points="767.15 661.66 746.6 672.32 722.84 660.21 743.39 649.63 767.15 661.66"/></g></g></g></svg>