<?xml version="1.0" encoding="UTF-8"?>
<!DOCTYPE svg PUBLIC "-//W3C//DTD SVG 1.1//EN" "http://www.w3.org/Graphics/SVG/1.1/DTD/svg11.dtd">
<!-- Creator: CorelDRAW 2018 (64-Bit) -->
<svg xmlns="http://www.w3.org/2000/svg" xml:space="preserve" width="579.91px" height="756.26px" version="1.1" style="shape-rendering:geometricPrecision; text-rendering:geometricPrecision; image-rendering:optimizeQuality; fill-rule:evenodd; clip-rule:evenodd"
viewBox="0 0 579.91 756.26" role="img"
 xmlns:xlink="http://www.w3.org/1999/xlink">
 <title>WERIZ Ecosystem</title>
 <desc>Describes how different parties in Weriz interact with eachother</desc>

 <defs>
  <style type="text/css">
    @import url('https://fonts.googleapis.com/css?family=Roboto:400');
 </style>
  <style type="text/css">
   <![CDATA[
    .str0 {stroke:#FEFEFE;stroke-width:2.15;stroke-miterlimit:2.61313}
    .fil2 {fill:#FEFEFE}
    .fil9 {fill:#D9DADA}
    .fil8 {fill:#727271}
    .fil10 {fill:#5B5B5B}
    .fil1 {fill:#0351B0}
    .fil12 {fill:#1564BB}
    .fil0 {fill:#6CB1FA}
    .fil4 {fill:#F27D00}
    .fil11 {fill:#FFCC00}
    .fil3 {fill:#FFE787}
    .fil7 {fill:#D9DADA;fill-rule:nonzero}
    .fil6 {fill:#727271;fill-rule:nonzero}
    .fil5 {fill:#727271;fill-rule:nonzero}
    .fil14 {fill:#0351B0;fill-rule:nonzero}
    .fil13 {fill:#F27D00;fill-rule:nonzero}
    .fil15 {fill:#FFCC00;fill-rule:nonzero}
    .fnt1 {font-weight:normal;font-size:13.22px;font-family:'Roboto'}
    .fnt4 {font-weight:normal;font-size:14.23px;font-family:'Roboto'}
    .fnt6 {font-weight:normal;font-size:15.11px;font-family:'Roboto'}
    .fnt3 {font-weight:normal;font-size:15.24px;font-family:'Roboto'}
    .fnt0 {font-weight:normal;font-size:15.64px;font-family:'Roboto'}
    .fnt2 {font-weight:normal;font-size:17.19px;font-family:'Roboto'}
    .fnt5 {font-weight:normal;font-size:17.5px;font-family:'Roboto'}
   ]]>
  </style>
 </defs>
 <g id="Layer_x0020_1">
  <metadata id="CorelCorpID_0Corel-Layer"/>
   <image xlink:href="logo-light.svg" x="207.4" y="285" height="172px" width="165px"/>
  <polygon class="fil0" points="514.41,192.19 421.08,245.2 329.85,192.59 289.82,220.99 420.95,297.28 421.39,448.58 289.24,524.57 424.27,524.16 579.91,432.3 579.72,230.87 "/>
  <polygon class="fil1" points="579.77,230.86 551.24,214.03 551.08,449.45 579.91,432.3 "/>
  <polygon class="fil1 str0" points="290.07,220.97 355.76,258.9 421.45,296.82 391.04,315.67 340.75,286.64 290.11,257.38 "/>
  <g transform="matrix(0.859174 0.511683 -0.511683 0.859174 303.118 -197.404)">
   <text x="242.7" y="384.73"  class="fil2 fnt0">Blockchain</text>
  </g>
  <polygon class="fil1 str0" points="421.5,296.5 421.73,372.35 421.5,448.76 390.38,431.38 390.2,373.31 390.02,315.24 "/>
  <g transform="matrix(0.0105009 -0.999945 0.999945 0.0105009 23.2052 648.987)">
   <text x="220.79" y="384.73"  class="fil2 fnt1">Artificail Intelligense</text>
  </g>
  <polygon class="fil1 str0" points="289.83,524.78 355.52,486.86 421.51,448.76 390.79,430.08 340.5,459.12 290.21,488.15 "/>
  <g transform="matrix(0.00777741 -0.99997 0.99997 0.00777741 180.857 621.025)">
   <text x="224.86" y="384.73"  class="fil2 fnt0">Marketing Tools</text>
  </g>
  <polygon class="fil3" points="65.17,192.58 158.99,245.4 251.25,192.38 290.1,220.99 158.97,297.28 158.53,448.58 290.67,524.57 158.02,524.16 0,431.53 0.19,230.87 "/>
  <polygon class="fil4" points="159.14,241.98 67.59,190.6 249.16,190.6 "/>
  <text x="140.09" y="210.87"  class="fil2 fnt2">User</text>
  <polygon class="fil4 str0" points="290.09,220.97 224.41,258.9 158.72,296.82 189.13,315.67 239.42,286.64 290.11,257.37 "/>
  <polygon class="fil4 str0" points="158.67,296.5 158.44,372.35 158.67,448.76 189.79,431.38 189.97,373.31 190.15,315.24 "/>
  <g transform="matrix(0.0105009 -0.999945 0.999945 0.0105009 -209.491 651.521)">
   <text x="234.5" y="384.73"  class="fil2 fnt3">Customizable</text>
  </g>
  <polygon class="fil4 str0" points="290.34,524.78 224.65,486.86 158.66,448.76 189.38,430.08 239.67,459.12 289.96,488.15 "/>
  <g transform="matrix(0.871486 0.490421 -0.490421 0.871486 171.374 4.03996)">
   <text x="226.92" y="384.73"  class="fil2 fnt0">Location Based</text>
  </g>
  <polygon class="fil4" points="0.15,230.86 28.68,214.03 28.71,448.35 0,431.53 "/>
  <polygon class="fil1" points="290.62,603.05 424.19,528.07 159.27,528.07 "/>
  <polygon class="fil4" points="159.3,528.09 424.28,528.09 384.66,550.22 198.72,550.55 "/>
  <g transform="matrix(0.997796 0 0 1 -18.7269 161.744)">
   <text x="281.5" y="384.73"  class="fil2 fnt2">Efficient</text>
  </g>
  <g transform="matrix(0.857781 -0.514016 0.514016 0.857781 -127.639 316.48)">
   <text x="281.5" y="384.73"  class="fil2 fnt4">Commision free</text>
  </g>
  <g transform="matrix(0.863119 -0.505 0.505 0.863119 -235.252 107.674)">
   <text x="281.5" y="384.73"  class="fil2 fnt5">Monetized</text>
  </g>
  <path class="fil5" d="M178.44 110.88c-1.1,1.69 -1.89,3.42 -2.21,5.19 -0.32,1.76 -0.42,3.53 -0.42,5.27 9.78,-1.47 23.29,-4.27 39.41,-9.64 0,-17.34 -0.92,-32.04 -2.53,-44.49 -6.97,-53.8 -26.79,-65.61 -40.35,-67.05 -1.07,-0.11 -2.11,-0.16 -3.09,-0.16 -6.2,0 -10.47,1.95 -10.47,1.95 0,0 -4.28,-1.95 -10.48,-1.95 -16.32,0 -45.97,13.51 -45.97,111.7 16.12,5.37 29.63,8.17 39.42,9.64 -0.01,-1.78 -0.11,-3.58 -0.45,-5.38 -0.33,-1.73 -1.11,-3.42 -2.19,-5.08l-1.18 -1.79c-6.54,-7.52 -10.12,-18.45 -12.02,-31.91l0.15 -0.05c1.55,-0.61 3.02,-1.23 4.46,-1.88 36.74,-16.37 45.19,-45.19 45.19,-45.19 0,0 9.71,16.33 16.58,32.03l0.63 1.45 0.06 0.16c-1.2,19.8 -4.75,35.5 -13.36,45.39l-1.18 1.79z"/>
  <path class="fil6" d="M193.3 141.56c-1.09,18.2 -16.04,32.66 -34.52,32.66 -18.49,0 -33.44,-14.46 -34.53,-32.66 -14.3,2.44 -35.63,6.96 -42.89,13.19 -11.28,9.69 -12.9,33.37 -12.9,33.37l180.63 0c0,0 -1.62,-23.68 -12.9,-33.37 -7.26,-6.23 -28.59,-10.75 -42.89,-13.19z"/>
  <path class="fil7" d="M158.78 167.28c14.59,0 26.71,-11.48 27.59,-26.14l0.04 -0.69c-4.13,-0.63 -6.79,-0.96 -6.79,-0.96 0,0 -3.87,-8.58 -3.81,-18.15 0,-1.74 0.1,-3.51 0.42,-5.27 0.32,-1.77 1.11,-3.5 2.21,-5.19l1.18 -1.79c8.61,-9.89 12.16,-25.59 13.36,-45.39l-0.06 -0.16 -0.63 -1.45c-6.87,-15.7 -16.58,-32.03 -16.58,-32.03 0,0 -8.45,28.82 -45.19,45.19 -1.44,0.65 -2.91,1.27 -4.46,1.88l-0.15 0.05c1.9,13.46 5.48,24.39 12.02,31.91l1.18 1.79c1.08,1.66 1.86,3.35 2.19,5.08 0.34,1.8 0.44,3.6 0.45,5.38 0.07,9.57 -3.82,18.15 -3.82,18.15 0,0 -2.66,0.33 -6.79,0.96l0.04 0.69c0.88,14.66 13,26.14 27.6,26.14z"/>
  <path class="fil8" d="M334.42 189.17l176 0 0 -148.79 -176 0 0 148.79zm5.77 -22.96l37.46 0 0 -53.82c0,-21.37 -37.46,-21.32 -37.46,0l0 53.82zm43.14 16.21l78.19 0 0 -52.62c0,-44.62 -78.19,-44.49 -78.19,0l0 52.62zm84.12 -16.21l37.46 0 0 -53.82c0,-21.37 -37.46,-21.32 -37.46,0l0 53.82z"/>
  <polygon class="fil8" points="309.79,82.3 535.05,82.3 510.42,40.38 334.42,40.38 "/>
  <path class="fil9" d="M330.27 82.3c0,5.81 4.58,10.52 10.24,10.52 5.66,0 10.24,-4.71 10.24,-10.52l-20.48 0z"/>
  <path class="fil9" d="M371.23 82.3c0,5.81 4.58,10.52 10.24,10.52 5.65,0 10.24,-4.71 10.24,-10.52l-20.48 0z"/>
  <path class="fil9" d="M412.18 82.3c0,5.81 4.59,10.52 10.24,10.52 5.66,0 10.24,-4.71 10.24,-10.52l-20.48 0z"/>
  <path class="fil9" d="M453.14 82.3c0,5.81 4.59,10.52 10.24,10.52 5.66,0 10.24,-4.71 10.24,-10.52l-20.48 0z"/>
  <path class="fil9" d="M494.1 82.3c0,5.81 4.58,10.52 10.24,10.52 5.65,0 10.24,-4.71 10.24,-10.52l-20.48 0z"/>
  <path class="fil10" d="M330.27 82.3c0,5.81 -4.58,10.52 -10.24,10.52 -5.65,0 -10.24,-4.71 -10.24,-10.52l20.48 0z"/>
  <path class="fil10" d="M371.23 82.3c0,5.81 -4.59,10.52 -10.24,10.52 -5.66,0 -10.24,-4.71 -10.24,-10.52l20.48 0z"/>
  <path class="fil10" d="M412.18 82.3c0,5.81 -4.58,10.52 -10.23,10.52 -5.66,0 -10.24,-4.71 -10.24,-10.52l20.47 0z"/>
  <path class="fil10" d="M453.14 82.3c0,5.81 -4.58,10.52 -10.24,10.52 -5.65,0 -10.24,-4.71 -10.24,-10.52l20.48 0z"/>
  <path class="fil10" d="M494.1 82.3c0,5.81 -4.59,10.52 -10.24,10.52 -5.66,0 -10.24,-4.71 -10.24,-10.52l20.48 0z"/>
  <path class="fil10" d="M535.05 82.3c0,5.81 -4.58,10.52 -10.23,10.52 -5.66,0 -10.24,-4.71 -10.24,-10.52l20.47 0z"/>
  <polygon class="fil9" points="330.27,82.3 514.58,82.3 494.42,40.38 350.42,40.38 "/>
  <polygon class="fil8" points="350.75,82.3 494.1,82.3 478.42,40.38 366.42,40.38 "/>
  <polygon class="fil9" points="371.23,82.3 473.62,82.3 462.42,40.38 382.42,40.38 "/>
  <polygon class="fil8" points="391.71,82.3 453.14,82.3 446.42,40.38 398.42,40.38 "/>
  <polygon class="fil9" points="412.18,82.3 432.66,82.3 430.42,40.38 414.42,40.38 "/>
  <polygon class="fil1" points="421.45,241.41 509.89,191.78 334.49,191.78 "/>
  <text x="372.13" y="212.76" id="R" class="fil2 fnt6">Local Business</text>
  <g transform="matrix(-0.0150489 -0.999887 0.999887 -0.0150489 -360.745 628.87)">
   <text x="223.39" y="384.73"  class="fil2 fnt0">Needs &amp; Intrests</text>
  </g>
  <polygon class="fil4" points="251.77,756.26 424.68,756.26 424.68,610.08 251.77,610.08 "/>
  <path class="fil11" d="M299.81 749.63l76.83 0 0 -51.7c0,-43.83 -76.83,-43.71 -76.83,0l0 51.7z"/>
  <polygon class="fil1" points="227.57,651.27 448.88,651.27 424.68,610.08 251.77,610.08 "/>
  <path class="fil12" d="M247.69 651.27c0,5.71 4.5,10.34 10.06,10.34 5.55,0 10.06,-4.63 10.06,-10.34l-20.12 0z"/>
  <path class="fil12" d="M287.93 651.27c0,5.71 4.5,10.34 10.05,10.34 5.56,0 10.07,-4.63 10.07,-10.34l-20.12 0z"/>
  <path class="fil12" d="M328.17 651.27c0,5.71 4.5,10.34 10.06,10.34 5.55,0 10.05,-4.63 10.05,-10.34l-20.11 0z"/>
  <path class="fil12" d="M368.4 651.27c0,5.71 4.51,10.34 10.06,10.34 5.56,0 10.07,-4.63 10.07,-10.34l-20.13 0z"/>
  <path class="fil12" d="M408.64 651.27c0,5.71 4.51,10.34 10.06,10.34 5.56,0 10.07,-4.63 10.07,-10.34l-20.13 0z"/>
  <path class="fil1" d="M247.69 651.27c0,5.71 -4.51,10.34 -10.06,10.34 -5.56,0 -10.07,-4.63 -10.07,-10.34l20.13 0z"/>
  <path class="fil1" d="M287.93 651.27c0,5.71 -4.51,10.34 -10.06,10.34 -5.56,0 -10.06,-4.63 -10.06,-10.34l20.12 0z"/>
  <path class="fil1" d="M328.17 651.27c0,5.71 -4.51,10.34 -10.07,10.34 -5.55,0 -10.05,-4.63 -10.05,-10.34l20.12 0z"/>
  <path class="fil1" d="M368.4 651.27c0,5.71 -4.5,10.34 -10.05,10.34 -5.56,0 -10.07,-4.63 -10.07,-10.34l20.12 0z"/>
  <path class="fil1" d="M408.64 651.27c0,5.71 -4.5,10.34 -10.05,10.34 -5.56,0 -10.06,-4.63 -10.06,-10.34l20.11 0z"/>
  <path class="fil1" d="M448.88 651.27c0,5.71 -4.5,10.34 -10.06,10.34 -5.55,0 -10.05,-4.63 -10.05,-10.34l20.11 0z"/>
  <polygon class="fil12" points="247.69,651.27 428.77,651.27 408.96,610.08 267.49,610.08 "/>
  <polygon class="fil1" points="267.81,651.27 408.64,651.27 393.24,610.08 283.2,610.08 "/>
  <polygon class="fil12" points="287.93,651.27 388.53,651.27 377.52,610.08 298.92,610.08 "/>
  <polygon class="fil1" points="308.05,651.27 368.4,651.27 361.81,610.08 314.64,610.08 "/>
  <polygon class="fil12" points="328.17,651.27 348.28,651.27 346.09,610.08 330.36,610.08 "/>
  <path class="fil11" d="M382.46 733.71l36.8 0 0 -52.88c0,-21 -36.8,-20.94 -36.8,0l0 52.88z"/>
  <path class="fil11" d="M257.44 733.71l36.8 0 0 -52.88c0,-21 -36.8,-20.94 -36.8,0l0 52.88z"/>
  <path class="fil13" d="M210.52 686.72c-0.99,1.52 -1.7,3.07 -1.99,4.66 -0.28,1.59 -0.38,3.17 -0.38,4.74 8.79,-1.32 20.94,-3.84 35.43,-8.67 0,-15.58 -0.83,-28.8 -2.28,-39.99 -6.26,-48.35 -24.08,-58.96 -36.27,-60.26 -0.96,-0.1 -1.89,-0.14 -2.77,-0.14 -5.57,0 -9.42,1.75 -9.42,1.75 0,0 -3.84,-1.75 -9.41,-1.75 -14.68,0 -41.32,12.14 -41.32,100.39 14.49,4.83 26.63,7.35 35.43,8.67 -0.01,-1.6 -0.1,-3.22 -0.41,-4.83 -0.29,-1.56 -1,-3.08 -1.96,-4.57l-1.06 -1.61c-5.88,-6.76 -9.1,-16.58 -10.81,-28.68l0.14 -0.05c1.39,-0.55 2.71,-1.1 4.01,-1.68 33.02,-14.72 40.61,-40.62 40.61,-40.62 0,0 8.73,14.67 14.91,28.79l0.57 1.3 0.05 0.14c-1.08,17.8 -4.28,31.91 -12.01,40.8l-1.06 1.61z"/>
  <path class="fil14" d="M223.88 714.29c-0.99,16.36 -14.43,29.36 -31.04,29.36 -16.61,0 -30.05,-13 -31.03,-29.36 -12.85,2.2 -32.02,6.26 -38.55,11.86 -10.14,8.71 -11.59,29.99 -11.59,29.99l162.35 0c0,0 -1.46,-21.28 -11.59,-29.99 -6.53,-5.6 -25.7,-9.66 -38.55,-11.86z"/>
  <path class="fil15" d="M192.84 737.41c13.12,0 24.01,-10.32 24.8,-23.49l0.04 -0.62c-3.71,-0.57 -6.1,-0.87 -6.1,-0.87 0,0 -3.48,-7.71 -3.43,-16.31 0,-1.57 0.1,-3.15 0.38,-4.74 0.29,-1.59 1,-3.14 1.99,-4.66l1.06 -1.61c7.73,-8.89 10.93,-23 12.01,-40.8l-0.05 -0.14 -0.57 -1.3c-6.18,-14.12 -14.91,-28.79 -14.91,-28.79 0,0 -7.59,25.9 -40.61,40.62 -1.3,0.58 -2.62,1.13 -4.01,1.68l-0.14 0.05c1.71,12.1 4.93,21.92 10.81,28.68l1.06 1.61c0.96,1.49 1.67,3.01 1.96,4.57 0.31,1.61 0.4,3.23 0.41,4.83 0.06,8.6 -3.43,16.31 -3.43,16.31 0,0 -2.39,0.3 -6.1,0.87l0.03 0.62c0.79,13.17 11.69,23.49 24.8,23.49z"/>
 </g>
</svg>
