<svg xmlns="http://www.w3.org/2000/svg" viewBox="0 0 1405.11 892"><defs><style>.cls-1,.cls-2{fill:#2d3a8c;}.cls-1{opacity:0.13;}.cls-2{opacity:0.28;}.cls-3{opacity:0.2;}.cls-4{opacity:0.93;}.cls-5,.cls-6{fill:none;stroke:#f9f9f9;stroke-miterlimit:10;}.cls-5{stroke-width:1.07px;}</style></defs><title>Asset 25</title><g id="Layer_2" data-name="Layer 2"><g id="pattern"><g id="Fotter_Pattern" data-name="Fotter Pattern"><g id="Shades"><polygon class="cls-1" points="281.95 324.17 352.18 364.71 352.18 445.8 281.95 486.35 211.73 445.8 211.73 364.71 281.95 324.17"/><polygon class="cls-1" points="913.63 202.52 983.85 243.06 983.85 324.15 913.63 364.7 843.4 324.15 843.4 243.06 913.63 202.52"/><polygon class="cls-2" points="492.63 446 562.86 486.55 562.86 567.64 492.63 608.18 422.41 567.64 422.41 486.55 492.63 446"/><polygon class="cls-2" points="211.59 445.82 141.38 405.04 141.62 323.97 211.96 283.61 282.08 324.36 211.82 364.73 211.59 445.82"/><polygon class="cls-1" points="562.84 567.64 562.86 648.83 492.66 689.36 422.41 648.83 422.41 567.73 492.61 608.18 562.84 567.64"/><polygon class="cls-1" points="1194.14 202.94 1194.16 284.13 1123.96 324.66 1053.71 284.13 1053.71 203.03 1123.91 243.48 1194.14 202.94"/><polygon class="cls-2" points="773.68 688.78 773.7 769.98 703.5 810.51 633.25 769.98 633.25 688.87 703.46 729.33 773.68 688.78"/><polygon class="cls-2" points="563.49 324.15 633.19 283.61 703.48 324.17 633.1 364.7 633.19 445.78 563.49 405.24 563.49 324.15"/><polygon class="cls-1" points="141.49 567.15 211.08 526.61 281.32 567.16 210.91 607.7 211.1 688.78 141.49 648.24 141.49 567.15"/></g><g id="Lines" class="cls-3"><g class="cls-4"><path class="cls-5" d="M702.58,729.82,843,648.73l140.45,81.09V892"/><path class="cls-5" d="M1264.39,405.46l140.45,81.09"/><path class="cls-5" d="M772.8,770.37l140.46,81.09,140.45-81.09,140.45,81.09"/><path class="cls-5" d="M1194.16,770.37l-140.45,81.09"/><path class="cls-5" d="M772.8,851.45,632.35,770.37V608.18"/><path class="cls-5" d="M772.8,608.18V770.37L632.35,851.45"/><path class="cls-5" d="M983.46,405.45V243.27"/><path class="cls-5" d="M983.46,243.27,843,162.18V0"/><path class="cls-5" d="M702.58,243.27,562.12,162.18"/><path class="cls-5" d="M1053.69,283.82V121.64l140.45-81.09,140.46,81.09"/><path class="cls-5" d="M772.78,364.91,632.33,283.82"/><path class="cls-5" d="M772.78,121.64V283.82L632.33,364.91"/><path class="cls-5" d="M140.74,648.73,281.2,729.82"/><path class="cls-5" d="M421.65,648.73,562.1,729.82V892"/><path class="cls-5" d="M140.74,892V729.82"/><path class="cls-5" d="M70.52,608.18,211,527.09l140.45,81.09"/><path class="cls-5" d="M491.88,608.18l140.45-81.09"/><path class="cls-5" d="M211,770.37V608.18l140.45-81.09,140.46,81.09"/><path class="cls-5" d="M211,364.91V527.09"/><path class="cls-5" d="M632.31,364.91V527.09"/><path class="cls-5" d="M211,283.82,351.4,364.91V527.09"/><path class="cls-5" d="M632.31,283.82,491.85,364.91,351.4,283.82,211,364.91"/><path class="cls-5" d="M562.08,0V162.18"/><path class="cls-5" d="M211,121.64V283.82L70.49,364.91"/><path class="cls-5" d="M140.72,162.18l140.45,81.09,140.46-81.09"/><path class="cls-5" d="M140.72,0V162.18L.27,243.27"/><path class="cls-5" d="M140.72,243.27V405.45"/><path class="cls-5" d="M351.4,40.55l140.45,81.09"/><path class="cls-5" d="M421.63,243.27l140.45-81.09"/><path class="cls-5" d="M.29,405.46l140.45,81.09V648.73"/><path class="cls-5" d="M140.74,405.46,281.2,486.55M140.74,729.82.29,648.73"/><path class="cls-5" d="M632.33,770.37,491.88,851.45,351.42,770.37V608.18"/><path class="cls-5" d="M421.65,648.73V486.55L562.1,405.46l140.46,81.09"/><path class="cls-5" d="M281.2,486.55l140.45-81.09L562.1,486.55V648.73"/><path class="cls-5" d="M421.65,892V729.82L562.1,648.73l140.46,81.09"/><path class="cls-5" d="M843,892V729.82l140.45-81.09"/><path class="cls-5" d="M1194.14,121.64V283.82l-140.45,81.09M913.24,121.64l140.45-81.09"/><path class="cls-5" d="M70.52,851.46,211,770.37l140.45,81.09"/><path class="cls-5" d="M1334.6,364.91l-140.46-81.09"/><path class="cls-5" d="M1123.94,729.82l140.45-81.09,140.45,81.09"/><path class="cls-5" d="M1334.62,851.45l-140.46-81.08"/></g><polyline class="cls-5" points="562.1 405.46 562.08 243.27 421.63 162.18"/><polyline class="cls-6" points="842.99 406.05 842.99 243.48 983.45 162.59 1123.91 243.27 1264.37 162.18"/><polyline class="cls-6" points="1194.14 365.12 1053.69 284.03 913.24 365.12 772.78 283.82"/><line class="cls-6" x1="210.95" y1="121.64" x2="351.4" y2="40.55"/></g></g></g></g></svg>