<svg xmlns="http://www.w3.org/2000/svg" viewBox="0 0 914.2 730.4"><defs><style>.cls-1{opacity:0.2;}.cls-2{fill:none;stroke:#f9f9f9;stroke-miterlimit:10;}.cls-3,.cls-4{fill:#2d3a8c;}.cls-3{opacity:0.13;}.cls-4{opacity:0.28;}</style></defs><title>Asset 35</title><g id="Layer_2" data-name="Layer 2"><g id="pattern"><g id="Header_Pattern" data-name="Header Pattern"><g id="Header_Lines" data-name="Header Lines" class="cls-1"><path class="cls-2" d="M352.14,487.12l140.45,81.09"/><path class="cls-2" d="M211.71,568.21l140.43-81.09V324.94l140.45-81.09,140.46,81.09"/><path class="cls-2" d="M633.05,324.94,773.5,243.85"/><path class="cls-2" d="M633.05,568.21,492.59,487.12V324.94"/><path class="cls-2" d="M773.5,487.12V324.94L914,243.85"/><path class="cls-2" d="M633.05,568.21,773.5,487.12,914,568.21"/><path class="cls-2" d="M773.5,730.4V568.21L914,487.12"/><path class="cls-2" d="M211.69,324.94l140.45-81.09"/><path class="cls-2" d="M422.37,689.85l140.45-81.09,140.45,81.09"/><path class="cls-2" d="M562.82,608.76V446.58l140.45-81.09,140.46,81.09"/><path class="cls-2" d="M422.37,446.58l140.45-81.09,140.45,81.09"/><path class="cls-2" d="M141.46,608.76V446.58l140.46-81.09,140.45,81.09"/><path class="cls-2" d="M141.46,365.49l140.46,81.09V608.76"/><path class="cls-2" d="M773.48,243.85V81.67L913.93.58"/><path class="cls-2" d="M492.57,243.85V81.67"/><path class="cls-2" d="M492.57,81.66,352.12.58"/><path class="cls-2" d="M633,81.67,773.48.58"/><path class="cls-2" d="M211.69,81.66,71.24.58"/><path class="cls-2" d="M281.89,122.21,422.35,203.3,562.8,122.21,703.25,203.3V365.49"/><path class="cls-2" d="M281.89,365.49V203.3m280.91,0V365.49"/><path class="cls-2" d="M492.62,324.94V487.12M211.71,324.94l140.45-81.09"/><path class="cls-2" d="M211.71,568.21,71.26,487.12"/><path class="cls-2" d="M1.23,203.43,1,203.3l140.45-81.09"/><path class="cls-2" d="M562.82,203.3V365.48"/><path class="cls-2" d="M281.89,203.3,141.44,122.21"/><path class="cls-2" d="M281.89,122.21,141.44,203.3"/><path class="cls-2" d="M352.14,568.21l140.45-81.09"/><path class="cls-2" d="M352.12,243.85V81.67L492.57.58,633,81.67"/><path class="cls-2" d="M703.25,122.21,562.8,203.3"/><path class="cls-2" d="M843.71,203.3,703.25,122.21"/><path class="cls-2" d="M843.73,689.85,703.27,608.76V446.58"/></g><g id="Header_Shades" data-name="Header Shades"><polygon class="cls-3" points="633.02 162.76 562.8 203.3 562.8 284.39 633.02 324.94 703.25 284.39 703.25 203.3 633.02 162.76"/><polygon class="cls-3" points="211.56 406.04 141.34 446.58 141.34 527.67 211.56 568.21 281.79 527.67 281.79 446.58 211.56 406.04"/><polygon class="cls-3" points="422.35 41.12 352.12 81.67 352.12 162.76 422.35 203.3 492.57 162.76 492.57 81.67 422.35 41.12"/><polygon class="cls-4" points="703.39 284.41 773.6 243.63 773.36 162.56 703.02 122.2 632.9 162.95 703.16 203.32 703.39 284.41"/><polygon class="cls-3" points="352.17 406.12 352.14 487.31 422.35 527.84 492.59 487.31 492.59 406.2 422.39 446.66 352.17 406.12"/><polygon class="cls-4" points="351.73 163.03 281.92 122.49 211.56 163.04 281.92 203.58 281.93 284.66 351.73 244.12 351.73 163.03"/><polygon class="cls-4" points="703.73 528.03 773.46 487.49 843.77 528.04 773.4 568.58 773.46 649.66 703.73 609.12 703.73 528.03"/><polygon class="cls-3" points="773.73 406.03 704.02 365.49 633.72 406.05 704.1 446.58 704.02 527.66 773.73 487.12 773.73 406.03"/></g></g></g></g></svg>