<svg xmlns="http://www.w3.org/2000/svg" viewBox="0 0 39.79 39.79"><defs><style>.cls-1{fill:#fff;}</style></defs><title>Asset 47</title><g id="Layer_2" data-name="Layer 2"><g id="Main"><g id="Contacts"><g id="Social_Media_Icons" data-name="Social Media Icons"><g id="Instagram"><path class="cls-1" d="M25.82,10.59H14A3.44,3.44,0,0,0,10.53,14V25.88A3.44,3.44,0,0,0,14,29.31H25.82a3.44,3.44,0,0,0,3.44-3.43V14A3.44,3.44,0,0,0,25.82,10.59ZM19.89,26.11A6.17,6.17,0,1,1,26.06,20,6.16,6.16,0,0,1,19.89,26.11Zm6.37-11a1.46,1.46,0,1,1,1.45-1.46A1.46,1.46,0,0,1,26.26,15.06Z"/><path class="cls-1" d="M19.89,16.39A3.56,3.56,0,1,0,23.45,20,3.56,3.56,0,0,0,19.89,16.39Z"/><path class="cls-1" d="M19.89,0a19.9,19.9,0,1,0,19.9,19.89A19.9,19.9,0,0,0,19.89,0Zm12,25.88a6,6,0,0,1-6,6H14a6,6,0,0,1-6-6V14a6,6,0,0,1,6-6H25.82a6,6,0,0,1,6,6Z"/></g></g></g></g></g></svg>