<?xml version="1.0" encoding="UTF-8"?>
<!DOCTYPE svg PUBLIC "-//W3C//DTD SVG 1.1//EN" "http://www.w3.org/Graphics/SVG/1.1/DTD/svg11.dtd">
<!-- Creator: CorelDRAW 2018 (64-Bit) -->
<svg xmlns="http://www.w3.org/2000/svg" xml:space="preserve" width="4.28333in" height="4.45428in" version="1.1" style="shape-rendering:geometricPrecision; text-rendering:geometricPrecision; image-rendering:optimizeQuality; fill-rule:evenodd; clip-rule:evenodd"
viewBox="0 0 4070.46 4232.91"
 xmlns:xlink="http://www.w3.org/1999/xlink">
 <defs>
  <style type="text/css">
   <![CDATA[
    .fil4 {fill:#44C0F0}
    .fil0 {fill:#0755BA}
    .fil2 {fill:#0758BA}
    .fil5 {fill:#FF7300}
    .fil3 {fill:#FFCC00}
    .fil6 {fill:#FF6403;fill-rule:nonzero}
    .fil1 {fill:#FFCC00;fill-rule:nonzero}
   ]]>
  </style>
    <mask id="id0">
  <linearGradient id="id1" gradientUnits="userSpaceOnUse" x1="2504.25" y1="3446.28" x2="2263.16" y2="616.63">
   <stop offset="0" style="stop-opacity:1; stop-color:white"/>
   <stop offset="1" style="stop-opacity:0; stop-color:white"/>
  </linearGradient>
     <rect style="fill:url(#id1)" x="-3.3" y="-2.57" width="3171.03" height="3619.03"/>
    </mask>
    <mask id="id2">
  <linearGradient id="id3" gradientUnits="userSpaceOnUse" x1="2366.45" y1="1334.29" x2="1684.68" y2="998.35">
   <stop offset="0" style="stop-opacity:0; stop-color:white"/>
   <stop offset="1" style="stop-opacity:1; stop-color:white"/>
  </linearGradient>
     <rect style="fill:url(#id3)" x="1649.09" y="768.36" width="767.16" height="767.16"/>
    </mask>
    <mask id="id4">
  <linearGradient id="id5" gradientUnits="userSpaceOnUse" x1="3093.15" y1="3960.04" x2="1223.87" y2="3966.95">
   <stop offset="0" style="stop-opacity:0; stop-color:white"/>
   <stop offset="1" style="stop-opacity:1; stop-color:white"/>
  </linearGradient>
     <rect style="fill:url(#id5)" x="922.74" y="3681.41" width="2228.35" height="551.5"/>
    </mask>
 </defs>
 <g id="Layer_x0020_1">
  <metadata id="CorelCorpID_0Corel-Layer"/>
  <g id="_998799523424">
   <path class="fil0" d="M1333.21 3612.43l-3.68 -3.69 -707.71 -784.89c-298.45,-375.66 -621.49,-589.48 -621.49,-1131.82 0,-605.39 472.56,-1100.31 1068.91,-1136.27 -90.13,151.06 -146.22,324.74 -157.82,510.5 -272.34,94.09 -467.95,352.7 -467.95,657.03 0,331.1 207.12,497.33 389.33,726.67l498.98 526.13 1000.5 -1079.97c182.2,-229.34 389.33,-395.56 389.33,-726.67 0,-380.39 -306.79,-689.34 -685.86,-694.88l2.74 -474.57c621.37,8.57 1126.26,514.78 1126.26,1138.19 0,542.34 -323.03,756.15 -621.49,1131.82 -403.78,447.82 -808.71,897.61 -1210.06,1342.42z"/>
   <path class="fil1" d="M1630.8 3683.36l-126.28 302.15 -120.89 -214.15 -49.65 -88.98 -49.65 88.98 -120.89 214.15 -124.13 -302.15 -116.57 0 180.25 440.03 44.26 107.56 58.29 -102.67 128.44 -227.84 128.44 227.84 58.28 102.67 44.25 -107.56 182.41 -440.03 -116.57 0zm116.57 0l-116.57 0 116.57 0zm138.57 98.76l220.19 0 0 -99.74 -330.28 0 0 550.52 330.28 0 0 -100.72 -220.19 0 0 -122.23 164.06 0 0 -99.74 -164.06 0 0 -128.1zm0 128.1l0 -128.1 0 128.1zm508.79 119.3c21.59,-8.8 41.01,-20.54 59.36,-37.16 37.78,-32.27 59.37,-78.39 59.37,-128.59 0,-50.19 -22.67,-93.38 -59.37,-128.59 -36.7,-34.22 -86.34,-52.8 -141.39,-52.8l-51.81 0 0 -0.98 -110.1 0 0 551.5 110.1 0 0 -186.77 16.19 0 123.05 186.77 128.44 0 -133.84 -203.39zm-133.84 -247.39l51.81 0c24.82,0 46.42,7.82 63.68,23.63 17.27,16.62 25.91,36.34 25.91,58.02 0,22.65 -8.64,42.37 -25.91,58.02 -17.27,15.81 -38.86,23.63 -63.68,23.63l-51.81 0 0 -163.3zm295.07 -99.74l110.1 0 -110.1 0zm110.1 0l0 550.52 -110.1 0 0 -550.52 110.1 0zm73.8 0l0 99.74 0 -99.74zm0 0l42.1 0 245.01 0 124.13 0 -264.44 449.81 236.38 0 0 99.74 -45.34 0 -250.4 0 -125.21 0 265.52 -449.81 -227.75 0 0 -99.74z"/>
   <path class="fil2" d="M2737.8 3612.65l3.45 -3.92 707.72 -784.89c298.45,-375.66 621.48,-589.48 621.48,-1131.82 0,-605.39 -472.55,-1100.31 -1068.91,-1136.27 90.13,151.06 146.22,324.74 157.81,510.5 272.34,94.09 467.95,352.7 467.95,657.03 0,331.1 -207.12,497.33 -389.33,726.67l-498.98 526.13 -1000.5 -1079.97c-182.2,-229.34 -389.33,-395.56 -389.33,-726.67 0,-380.39 309.05,-689.32 688.13,-694.86l4.38 -474.54c-621.38,8.56 -1135.66,514.73 -1135.66,1138.14 0,542.34 323.03,756.15 621.49,1131.82 403.78,447.82 808.93,897.83 1210.29,1342.65z"/>
   <path class="fil3" d="M2032.67 771.66c210.02,0 380.28,170.26 380.28,380.28 0,210.02 -170.25,380.28 -380.28,380.28 -210.02,0 -380.28,-170.26 -380.28,-380.28 0,-210.02 170.26,-380.28 380.28,-380.28z"/>
   <path class="fil4" style="mask:url(#id0)" d="M1332.88 3613.16l-3.68 -3.69 -707.71 -784.89c-298.46,-375.66 -621.49,-589.48 -621.49,-1131.82 0,-605.39 472.55,-1100.31 1068.91,-1136.27 -90.13,151.06 -146.22,324.74 -157.82,510.5 -272.34,94.09 -467.95,352.7 -467.95,657.03 0,331.1 207.12,497.33 389.33,726.67l498.98 526.13 1000.51 -1079.97c182.2,-229.34 389.33,-395.56 389.33,-726.67 0,-380.39 -306.79,-689.34 -685.86,-694.88l2.74 -474.57c621.37,8.57 1126.26,514.78 1126.26,1138.19 0,542.34 -323.03,756.15 -621.48,1131.82 -403.79,447.82 -808.71,897.61 -1210.06,1342.42z"/>
   <path class="fil5" style="mask:url(#id2)" d="M2032.67 771.66c210.02,0 380.28,170.26 380.28,380.28 0,210.02 -170.25,380.28 -380.28,380.28 -210.02,0 -380.28,-170.26 -380.28,-380.28 0,-210.02 170.26,-380.28 380.28,-380.28z"/>
   <path class="fil6" style="mask:url(#id4)" d="M1630.8 3683.36l-126.28 302.15 -120.89 -214.15 -49.65 -88.98 -49.65 88.98 -120.89 214.15 -124.13 -302.15 -116.57 0 180.25 440.03 44.26 107.56 58.29 -102.67 128.44 -227.84 128.44 227.84 58.28 102.67 44.25 -107.56 182.41 -440.03 -116.57 0zm116.57 0l-116.57 0 116.57 0zm138.57 98.76l220.19 0 0 -99.74 -330.28 0 0 550.52 330.28 0 0 -100.72 -220.19 0 0 -122.23 164.06 0 0 -99.74 -164.06 0 0 -128.1zm0 128.1l0 -128.1 0 128.1zm508.79 119.3c21.59,-8.8 41.01,-20.54 59.36,-37.16 37.78,-32.27 59.37,-78.39 59.37,-128.59 0,-50.19 -22.67,-93.38 -59.37,-128.59 -36.7,-34.22 -86.34,-52.8 -141.39,-52.8l-51.81 0 0 -0.98 -110.1 0 0 551.5 110.1 0 0 -186.77 16.19 0 123.05 186.77 128.44 0 -133.84 -203.39zm-133.84 -247.39l51.81 0c24.82,0 46.42,7.82 63.68,23.63 17.27,16.62 25.91,36.34 25.91,58.02 0,22.65 -8.64,42.37 -25.91,58.02 -17.27,15.81 -38.86,23.63 -63.68,23.63l-51.81 0 0 -163.3zm295.07 -99.74l110.1 0 -110.1 0zm110.1 0l0 550.52 -110.1 0 0 -550.52 110.1 0zm73.8 0l0 99.74 0 -99.74zm0 0l42.1 0 245.01 0 124.13 0 -264.44 449.81 236.38 0 0 99.74 -45.34 0 -250.4 0 -125.21 0 265.52 -449.81 -227.75 0 0 -99.74z"/>
  </g>
 </g>
</svg>
