<?xml version="1.0" encoding="UTF-8"?>
<!DOCTYPE svg PUBLIC "-//W3C//DTD SVG 1.1//EN" "http://www.w3.org/Graphics/SVG/1.1/DTD/svg11.dtd">
<!-- Creator: CorelDRAW 2018 (64-Bit) -->
<svg xmlns="http://www.w3.org/2000/svg" xml:space="preserve" width="4.15068in" height="4.31668in" version="1.1" style="shape-rendering:geometricPrecision; text-rendering:geometricPrecision; image-rendering:optimizeQuality; fill-rule:evenodd; clip-rule:evenodd"
viewBox="0 0 4017.73 4178.42"
 xmlns:xlink="http://www.w3.org/1999/xlink">
 <defs>
  <style type="text/css">
   <![CDATA[
    .fil1 {fill:#002D64}
    .fil5 {fill:#0351B0}
    .fil3 {fill:#F27D00}
    .fil2 {fill:#FFCC00}
    .fil4 {fill:#F27D00;fill-rule:nonzero}
    .fil0 {fill:#FFCC00;fill-rule:nonzero}
   ]]>
  </style>
    <mask id="id0">
  <linearGradient id="id1" gradientUnits="userSpaceOnUse" x1="2335.66" y1="1317.11" x2="1662.66" y2="985.5">
   <stop offset="0" style="stop-opacity:0; stop-color:white"/>
   <stop offset="1" style="stop-opacity:1; stop-color:white"/>
  </linearGradient>
     <rect style="fill:url(#id1)" x="1627.43" y="758.36" width="757.49" height="757.49"/>
    </mask>
    <mask id="id2">
  <linearGradient id="id3" gradientUnits="userSpaceOnUse" x1="3052.99" y1="3909.06" x2="1207.79" y2="3915.88">
   <stop offset="0" style="stop-opacity:0; stop-color:white"/>
   <stop offset="1" style="stop-opacity:1; stop-color:white"/>
  </linearGradient>
     <rect style="fill:url(#id3)" x="910.54" y="3634.01" width="2199.65" height="544.4"/>
    </mask>
    <mask id="id4">
  <linearGradient id="id5" gradientUnits="userSpaceOnUse" x1="1821.86" y1="2996.18" x2="1163.42" y2="2681.07">
   <stop offset="0" style="stop-opacity:1; stop-color:white"/>
   <stop offset="1" style="stop-opacity:0; stop-color:white"/>
  </linearGradient>
     <rect style="fill:url(#id5)" x="-3.36" y="-3.36" width="3130.41" height="3572.64"/>
    </mask>
 </defs>
 <g id="Layer_x0020_1">
  <metadata id="CorelCorpID_0Corel-Layer"/>
  <g id="_584769164560">
   <path class="fil0" d="M1609.48 3635.94l-124.66 298.26 -119.33 -211.39 -49.01 -87.84 -49.02 87.84 -119.33 211.39 -122.53 -298.26 -115.07 0 177.93 434.37 43.68 106.18 57.53 -101.35 126.79 -224.9 126.79 224.9 57.54 101.35 43.68 -106.18 180.07 -434.37 -115.07 0zm115.07 0l-115.07 0 115.07 0zm136.78 97.49l217.35 0 0 -98.45 -326.03 0 0 543.44 326.03 0 0 -99.42 -217.35 0 0 -120.66 161.95 0 0 -98.45 -161.95 0 0 -126.45zm0 126.45l0 -126.45 0 126.45zm502.24 117.76c21.31,-8.69 40.49,-20.27 58.6,-36.68 37.29,-31.85 58.6,-77.38 58.6,-126.93 0,-49.55 -22.37,-92.18 -58.6,-126.93 -36.23,-33.79 -85.24,-52.13 -139.58,-52.13l-51.14 0 0 -0.96 -108.68 0 0 544.4 108.68 0 0 -184.36 15.99 0 121.46 184.36 126.79 0 -132.12 -200.77zm-132.12 -244.21l51.14 0c24.51,0 45.82,7.72 62.86,23.33 17.05,16.41 25.57,35.88 25.57,57.27 0,22.36 -8.52,41.83 -25.57,57.27 -17.05,15.61 -38.36,23.33 -62.86,23.33l-51.14 0 0 -161.2zm291.28 -98.45l108.68 0 -108.68 0zm108.68 0l0 543.44 -108.68 0 0 -543.44 108.68 0zm72.85 0l0 98.45 0 -98.45zm0 0l41.56 0 241.86 0 122.52 0 -261.04 444.02 233.34 0 0 98.46 -44.76 0 -247.18 0 -123.6 0 262.1 -444.02 -224.81 0 0 -98.45z"/>
   <path class="fil1" d="M2702.23 3566.14l3.41 -3.86 698.6 -774.79c294.61,-370.83 613.48,-581.89 613.48,-1117.24 0,-597.6 -466.47,-1086.15 -1055.15,-1121.64 88.97,149.11 144.34,320.56 155.78,503.92 268.83,92.88 461.93,348.16 461.93,648.57 0,326.84 -204.46,490.92 -384.31,717.31l-492.56 519.36 -987.62 -1066.07c-179.86,-226.39 -384.31,-390.47 -384.31,-717.31 0,-375.5 305.07,-680.45 679.27,-685.91l4.33 -468.43c-613.38,8.46 -1121.04,508.1 -1121.04,1123.49 0,535.36 318.87,746.42 613.48,1117.24 398.59,442.06 798.51,886.28 1194.71,1325.36z"/>
   <circle class="fil2" cx="2006.17" cy="1137.11" r="375.38"/>
   <path class="fil1" d="M1315.72 3565.92l-3.63 -3.64 -698.6 -774.79c-294.61,-370.83 -613.48,-581.89 -613.48,-1117.24 0,-597.6 466.47,-1086.15 1055.15,-1121.64 -88.97,149.11 -144.34,320.56 -155.79,503.92 -268.83,92.88 -461.92,348.16 -461.92,648.57 0,326.84 204.46,490.92 384.31,717.31l492.56 519.36 987.62 -1066.07c179.86,-226.39 384.31,-390.47 384.31,-717.31 0,-375.5 -302.84,-680.47 -677.03,-685.94l2.71 -468.46c613.37,8.46 1111.76,508.15 1111.76,1123.54 0,535.36 -318.87,746.42 -613.48,1117.24 -398.59,442.06 -798.29,886.05 -1194.49,1325.14z"/>
   <path class="fil3" style="mask:url(#id0)" d="M2006.17 761.72c207.32,0 375.38,168.06 375.38,375.38 0,207.32 -168.06,375.39 -375.38,375.39 -207.32,0 -375.38,-168.06 -375.38,-375.39 0,-207.32 168.06,-375.38 375.38,-375.38z"/>
   <path class="fil4" style="mask:url(#id2)" d="M1609.48 3635.94l-124.66 298.26 -119.33 -211.39 -49.01 -87.84 -49.02 87.84 -119.33 211.39 -122.53 -298.26 -115.07 0 177.93 434.37 43.68 106.18 57.53 -101.35 126.79 -224.9 126.79 224.9 57.54 101.35 43.68 -106.18 180.07 -434.37 -115.07 0zm115.07 0l-115.07 0 115.07 0zm136.78 97.49l217.35 0 0 -98.45 -326.03 0 0 543.44 326.03 0 0 -99.42 -217.35 0 0 -120.66 161.95 0 0 -98.45 -161.95 0 0 -126.45zm0 126.45l0 -126.45 0 126.45zm502.24 117.76c21.31,-8.69 40.49,-20.27 58.6,-36.68 37.29,-31.85 58.6,-77.38 58.6,-126.93 0,-49.55 -22.37,-92.18 -58.6,-126.93 -36.23,-33.79 -85.24,-52.13 -139.58,-52.13l-51.14 0 0 -0.96 -108.68 0 0 544.4 108.68 0 0 -184.36 15.99 0 121.46 184.36 126.79 0 -132.12 -200.77zm-132.12 -244.21l51.14 0c24.51,0 45.82,7.72 62.86,23.33 17.05,16.41 25.57,35.88 25.57,57.27 0,22.36 -8.52,41.83 -25.57,57.27 -17.05,15.61 -38.36,23.33 -62.86,23.33l-51.14 0 0 -161.2zm291.28 -98.45l108.68 0 -108.68 0zm108.68 0l0 543.44 -108.68 0 0 -543.44 108.68 0zm72.85 0l0 98.45 0 -98.45zm0 0l41.56 0 241.86 0 122.52 0 -261.04 444.02 233.34 0 0 98.46 -44.76 0 -247.18 0 -123.6 0 262.1 -444.02 -224.81 0 0 -98.45z"/>
   <path class="fil5" style="mask:url(#id4)" d="M1315.72 3565.92l-3.63 -3.64 -698.6 -774.79c-294.61,-370.83 -613.48,-581.89 -613.48,-1117.24 0,-597.6 466.47,-1086.15 1055.15,-1121.64 -88.97,149.11 -144.34,320.56 -155.79,503.92 -268.83,92.88 -461.92,348.16 -461.92,648.57 0,326.84 204.46,490.92 384.31,717.31l492.56 519.36 987.62 -1066.07c179.86,-226.39 384.31,-390.47 384.31,-717.31 0,-375.5 -302.84,-680.47 -677.03,-685.94l2.71 -468.46c613.37,8.46 1111.76,508.15 1111.76,1123.54 0,535.36 -318.87,746.42 -613.48,1117.24 -398.59,442.06 -798.29,886.05 -1194.49,1325.14z"/>
  </g>
 </g>
</svg>
