<?xml version="1.0" encoding="UTF-8"?>
<!DOCTYPE svg PUBLIC "-//W3C//DTD SVG 1.1//EN" "http://www.w3.org/Graphics/SVG/1.1/DTD/svg11.dtd">
<!-- Creator: CorelDRAW 2018 (64-Bit) -->
<svg xmlns="http://www.w3.org/2000/svg" xml:space="preserve" width="1.98819in" height="2.06771in" version="1.1" style="shape-rendering:geometricPrecision; text-rendering:geometricPrecision; image-rendering:optimizeQuality; fill-rule:evenodd; clip-rule:evenodd"
viewBox="0 0 1948.31 2026.24"
 xmlns:xlink="http://www.w3.org/1999/xlink">
 <defs>
  <style type="text/css">
   <![CDATA[
    .fil1 {fill:#0351B0}
    .fil5 {fill:#0E79EB}
    .fil3 {fill:#F27D00}
    .fil2 {fill:#FFCC00}
    .fil4 {fill:#F27D00;fill-rule:nonzero}
    .fil0 {fill:#FFCC00;fill-rule:nonzero}
   ]]>
  </style>
   <mask id="id0">
  <linearGradient id="id1" gradientUnits="userSpaceOnUse" x1="1132.63" y1="638.7" x2="806.27" y2="477.9">
   <stop offset="0" style="stop-opacity:0; stop-color:white"/>
   <stop offset="1" style="stop-opacity:1; stop-color:white"/>
  </linearGradient>
    <rect style="fill:url(#id1)" x="787.41" y="365.98" width="370.87" height="370.87"/>
   </mask>
   <mask id="id2">
  <linearGradient id="id3" gradientUnits="userSpaceOnUse" x1="1480.46" y1="1895.62" x2="585.69" y2="1898.92">
   <stop offset="0" style="stop-opacity:0; stop-color:white"/>
   <stop offset="1" style="stop-opacity:1; stop-color:white"/>
  </linearGradient>
    <rect style="fill:url(#id3)" x="441.55" y="1762.24" width="1066.66" height="263.99"/>
   </mask>
   <mask id="id4">
  <linearGradient id="id5" gradientUnits="userSpaceOnUse" x1="884.67" y1="1452.93" x2="565.37" y2="1300.13">
   <stop offset="0" style="stop-opacity:1; stop-color:white"/>
   <stop offset="1" style="stop-opacity:0; stop-color:white"/>
  </linearGradient>
    <rect style="fill:url(#id5)" x="-2.21" y="-3.4" width="1521.57" height="1736.02"/>
   </mask>
 </defs>
 <g id="Layer_x0020_1">
  <metadata id="CorelCorpID_0Corel-Layer"/>
  <path class="fil0" d="M836.28 1762.71l-55.8 0 55.8 0zm-55.8 0l-60.45 144.63 -57.87 -102.51 -23.77 -42.59 -23.76 42.59 -57.87 102.51 -59.42 -144.63 -55.8 0 86.29 210.63 21.18 51.49 27.9 -49.15 61.48 -109.06 61.49 109.06 27.9 49.15 21.18 -51.49 87.32 -210.63 -55.8 0z"/>
  <path id="1" class="fil0" d="M902.61 1871.77l0 -61.32 0 61.32zm0 -61.32l105.4 0 0 -47.74c-53.21,0 -105.91,0 -158.1,0l0 263.53c52.7,0 105.4,0 158.1,0l0 -48.21 -105.4 0 0 -58.51 78.53 0 0 -47.74 -78.53 0 0 -61.32z"/>
  <path id="2" class="fil0" d="M1082.08 1810.45l24.8 0c11.88,0 22.73,4.21 30.48,11.31 7.75,7.49 12.4,16.93 12.4,27.77 0,10.84 -4.65,20.75 -12.4,27.77 -7.75,7.1 -18.6,11.31 -30.48,11.31l-24.8 0 0 -78.17zm64.06 118.42c10.85,-4.21 20.15,-10.3 28.42,-17.79 17.57,-15.45 28.42,-37.52 28.42,-61.55 0,-24.03 -10.85,-45.64 -28.42,-61.55 -17.05,-15.91 -41.33,-25.28 -67.68,-25.28l-24.8 0 0 -0.47 -52.7 0 0 263.99 52.7 0 0 -89.4 7.75 0 58.9 89.4 61.48 0 -64.07 -97.36z"/>
  <path id="3" class="fil0" d="M1276.02 1762.71l-52.7 0 52.7 0zm-52.7 0l0 263.53 52.7 0 0 -263.53 -52.7 0z"/>
  <path id="4" class="fil0" d="M1311.35 1810.45l0 -47.74 0 47.74zm0 0l109.02 0 -127.1 215.31 59.93 0 119.87 0 21.7 0 0 -47.74 -113.15 0 126.59 -215.31 -59.41 0 -117.28 0 -20.15 0 0 47.74z"/>
  <path class="fil1" d="M1310.39 1729.33l1.66 -1.88 338.77 -375.72c142.87,-179.83 297.5,-282.17 297.5,-541.79 0,-289.79 -226.2,-526.7 -511.67,-543.91 43.14,72.31 70,155.45 75.54,244.36 130.37,45.04 224,168.84 224,314.51 0,158.49 -99.15,238.06 -186.37,347.85l-238.86 251.85 -478.93 -516.97c-87.22,-109.78 -186.37,-189.35 -186.37,-347.85 0,-182.09 147.94,-329.97 329.4,-332.62l2.1 -227.15c-297.44,4.1 -543.62,246.39 -543.62,544.81 0,259.61 154.63,361.96 297.49,541.78 193.29,214.36 387.22,429.78 579.35,642.71z"/>
  <circle class="fil2" cx="972.85" cy="551.42" r="182.03"/>
  <path class="fil1" d="M638.03 1729.22l-1.76 -1.77 -338.77 -375.72c-142.86,-179.83 -297.49,-282.17 -297.49,-541.79 0,-289.79 226.2,-526.7 511.67,-543.91 -43.14,72.31 -69.99,155.45 -75.54,244.36 -130.37,45.04 -224,168.84 -224,314.51 0,158.49 99.15,238.06 186.37,347.85l238.86 251.85 478.93 -516.97c87.22,-109.78 186.36,-189.35 186.36,-347.85 0,-182.09 -146.85,-329.98 -328.31,-332.63l1.32 -227.17c297.44,4.1 539.12,246.42 539.12,544.84 0,259.61 -154.63,361.96 -297.49,541.78 -193.29,214.36 -387.12,429.67 -579.24,642.6z"/>
  <path class="fil3" style="mask:url(#id0)" d="M972.85 369.38c100.54,0 182.03,81.5 182.03,182.03 0,100.54 -81.5,182.03 -182.03,182.03 -100.53,0 -182.03,-81.5 -182.03,-182.03 0,-100.53 81.5,-182.03 182.03,-182.03z"/>
  <path class="fil4" style="mask:url(#id2)" d="M836.28 1762.71l-55.8 0 55.8 0zm-55.8 0l-60.45 144.63 -57.87 -102.51 -23.77 -42.59 -23.76 42.59 -57.87 102.51 -59.42 -144.63 -55.8 0 86.29 210.63 21.18 51.49 27.9 -49.15 61.48 -109.06 61.49 109.06 27.9 49.15 21.18 -51.49 87.32 -210.63 -55.8 0zm122.13 109.06l0 -61.32 0 61.32zm0 -61.32l105.4 0 0 -47.74c-53.21,0 -105.91,0 -158.1,0l0 263.53c52.7,0 105.4,0 158.1,0l0 -48.21 -105.4 0 0 -58.51 78.53 0 0 -47.74 -78.53 0 0 -61.32zm179.48 0l24.8 0c11.88,0 22.73,4.21 30.48,11.31 7.75,7.49 12.4,16.93 12.4,27.77 0,10.84 -4.65,20.75 -12.4,27.77 -7.75,7.1 -18.6,11.31 -30.48,11.31l-24.8 0 0 -78.17zm64.06 118.42c10.85,-4.21 20.15,-10.3 28.42,-17.79 17.57,-15.45 28.42,-37.52 28.42,-61.55 0,-24.03 -10.85,-45.64 -28.42,-61.55 -17.05,-15.91 -41.33,-25.28 -67.68,-25.28l-24.8 0 0 -0.47 -52.7 0 0 263.99 52.7 0 0 -89.4 7.75 0 58.9 89.4 61.48 0 -64.07 -97.36zm129.88 -166.17l-52.7 0 52.7 0zm-52.7 0l0 263.53 52.7 0 0 -263.53 -52.7 0zm88.03 47.74l0 -47.74 0 47.74zm0 0l109.02 0 -127.1 215.31 59.93 0 119.87 0 21.7 0 0 -47.74 -113.15 0 126.59 -215.31 -59.41 0 -117.28 0 -20.15 0 0 47.74z"/>
  <path class="fil5" style="mask:url(#id4)" d="M639.22 1729.22l-1.76 -1.77 -338.77 -375.72c-142.87,-179.83 -297.49,-282.17 -297.49,-541.79 0,-289.79 226.2,-526.7 511.67,-543.91 -43.14,72.31 -69.99,155.45 -75.54,244.36 -130.36,45.04 -224,168.84 -224,314.51 0,158.49 99.15,238.06 186.37,347.85l238.86 251.85 478.93 -516.97c87.22,-109.78 186.37,-189.35 186.37,-347.85 0,-182.09 -146.86,-329.98 -328.31,-332.63l1.31 -227.17c297.44,4.1 539.13,246.42 539.13,544.84 0,259.61 -154.63,361.96 -297.5,541.78 -193.28,214.36 -387.12,429.67 -579.24,642.6z"/>
 </g>
</svg>
