<svg xmlns="http://www.w3.org/2000/svg" viewBox="0 0 1000.87 861.66"><defs><style>.cls-1{fill:#008bad;}.cls-2{fill:#e1e1c7;}.cls-10,.cls-11,.cls-12,.cls-13,.cls-14,.cls-15,.cls-16,.cls-17,.cls-18,.cls-19,.cls-2,.cls-20,.cls-21,.cls-22,.cls-23,.cls-24,.cls-25,.cls-26,.cls-27,.cls-28,.cls-29,.cls-3,.cls-30,.cls-31,.cls-32,.cls-4,.cls-46,.cls-47,.cls-48,.cls-49,.cls-5,.cls-50,.cls-51,.cls-52,.cls-53,.cls-6,.cls-7,.cls-8,.cls-9{fill-rule:evenodd;}.cls-3{fill:#b1b094;}.cls-4{fill:#fbf7d5;}.cls-5{fill:#f2f2f2;}.cls-6{fill:#fff;}.cls-7{fill:#e5e5e4;}.cls-8{fill:#6a7580;}.cls-9{fill:#a2a288;}.cls-10{fill:#8e8e79;}.cls-11{fill:#6c8e97;}.cls-12{fill:#60a3aa;}.cls-13{fill:#f3e5db;}.cls-14{fill:#f3d7c6;}.cls-15{fill:#e9b18b;}.cls-16{fill:#f6e0d2;}.cls-17{fill:#5c9398;}.cls-18{fill:#c08148;}.cls-19{fill:#c67533;}.cls-20{fill:#e7d2d0;}.cls-21{fill:#5f6c77;}.cls-22{fill:#e1ac85;}.cls-23{fill:#eec2a4;}.cls-24{fill:#5f8c93;}.cls-25{fill:#b4b4b6;}.cls-26{fill:#b3b2b3;}.cls-27{fill:#d2d2d2;}.cls-28{fill:#d6d6d6;}.cls-29{fill:#a9a9a8;}.cls-30{fill:#99999a;}.cls-31{fill:#b4a3a2;}.cls-32{fill:#d6c1bf;}.cls-33{fill:#759a5c;}.cls-34{fill:#625345;}.cls-35{fill:#dac8b7;}.cls-36{fill:#c2a589;}.cls-37{fill:#4f673e;}.cls-38{fill:#9bcc7c;}.cls-39{fill:#c4e0b0;}.cls-40{fill:#e2a153;}.cls-41{fill:#586d88;}.cls-42{fill:#e7c47b;}.cls-43{fill:#e1e1e5;}.cls-44{fill:#798aa0;}.cls-45{fill:#d9d9df;}.cls-46{fill:#949494;}.cls-47{fill:#cecece;}.cls-48{fill:#7da8bb;}.cls-49{fill:#a0c1ce;}.cls-50{fill:#303a6d;}.cls-51{fill:#4c547e;}.cls-52{fill:#ebebeb;}.cls-53{fill:#c7c7c7;}.cls-54{fill:#4f53a2;}</style></defs><title>Asset 37</title><g id="Layer_2" data-name="Layer 2"><g id="Main"><g id="Building1"><polygon class="cls-1" points="0 577.85 1000.87 0 1000.87 567.64 491.61 861.66 0 577.85"/><g id="Building"><polygon class="cls-2" points="496.97 532.11 496.97 330.32 367.4 254.53 367.4 456.56 496.97 532.11"/><polygon class="cls-3" points="496.97 330.32 626.34 254.65 626.34 456.52 496.97 532.11 496.97 330.32"/><polygon class="cls-4" points="626.34 255.01 496.89 178.66 367.36 254.53 496.97 330.32 626.34 255.01"/><polygon class="cls-5" points="602.17 254.41 496.89 192.82 391.61 254.37 496.93 315.99 602.17 254.41"/><polygon class="cls-6" points="496.89 192.82 496.81 205.24 401.28 260.04 391.61 254.37 496.89 192.82"/><polygon class="cls-7" points="496.89 192.82 496.81 205.2 592.5 260.04 602.17 254.41 496.89 192.82"/><polygon class="cls-8" points="467.05 336.39 467.05 354.79 447.96 343.65 447.96 325.25 467.05 336.39"/><polygon class="cls-8" points="440.58 320.94 440.58 339.3 421.5 328.17 421.5 309.77 440.58 320.94"/><polygon class="cls-9" points="365.65 297 496.97 373.98 496.97 385.2 365.73 307.49 365.65 297"/><polygon class="cls-4" points="365.65 297 367.4 296.27 496.97 371.95 496.97 373.98 365.65 297"/><polygon class="cls-8" points="467.05 379.73 467.05 398.13 447.96 386.99 447.96 368.6 467.05 379.73"/><polygon class="cls-8" points="440.58 364.25 440.58 382.64 421.5 371.51 421.5 353.11 440.58 364.25"/><polygon class="cls-8" points="413.93 305.06 413.93 323.42 394.85 312.28 394.85 293.88 413.93 305.06"/><polygon class="cls-8" points="413.93 348.36 413.93 366.76 394.85 355.63 394.85 337.23 413.93 348.36"/><polygon class="cls-9" points="365.65 340.34 496.97 417.33 496.97 428.54 365.73 350.83 365.65 340.34"/><polygon class="cls-4" points="365.65 340.34 367.4 339.62 496.97 415.25 496.97 417.33 365.65 340.34"/><polygon class="cls-9" points="365.65 256.4 496.97 333.39 496.97 344.61 365.73 266.86 365.65 256.4"/><polygon class="cls-4" points="365.65 256.4 367.4 255.69 496.97 331.32 496.97 333.39 365.65 256.4"/><polygon class="cls-9" points="628.3 297 496.97 373.98 496.97 385.2 628.22 307.49 628.3 297"/><polygon class="cls-4" points="628.3 297 626.55 296.27 496.97 371.95 496.97 373.98 628.3 297"/><polygon class="cls-9" points="628.3 340.34 496.97 417.33 496.97 428.54 628.22 350.83 628.3 340.34"/><polygon class="cls-4" points="628.3 340.34 626.55 339.62 496.97 415.25 496.97 417.33 628.3 340.34"/><polygon class="cls-9" points="628.3 256.4 496.97 333.39 496.97 344.61 628.22 266.86 628.3 256.4"/><polygon class="cls-4" points="628.3 256.4 626.55 255.69 496.97 331.32 496.97 333.39 628.3 256.4"/><polygon class="cls-8" points="526.23 336.39 526.23 354.79 545.32 343.65 545.32 325.25 526.23 336.39"/><polygon class="cls-8" points="552.7 320.94 552.7 339.3 571.78 328.17 571.78 309.77 552.7 320.94"/><polygon class="cls-8" points="579.2 305.42 579.2 323.81 598.25 312.68 598.25 294.28 579.2 305.42"/><polygon class="cls-8" points="526.23 379.73 526.23 398.13 545.32 386.99 545.32 368.6 526.23 379.73"/><polygon class="cls-8" points="552.7 364.25 552.7 382.64 571.78 371.51 571.78 353.11 552.7 364.25"/><polygon class="cls-8" points="579.2 348.76 579.2 367.16 598.25 356.02 598.25 337.62 579.2 348.76"/><polygon class="cls-9" points="367.4 382.84 359.39 387.51 488.85 462.35 496.97 458.52 367.4 382.84"/><polygon class="cls-9" points="367.4 401.96 359.39 406.63 488.85 481.5 496.97 477.63 367.4 401.96"/><polygon class="cls-10" points="626.55 382.84 634.55 387.51 505.06 462.35 496.97 458.52 626.55 382.84"/><polygon class="cls-10" points="626.55 401.96 634.55 406.63 505.06 481.5 496.97 477.63 626.55 401.96"/><polygon class="cls-10" points="626.55 421.12 634.55 425.79 505.06 500.62 496.97 496.79 626.55 421.12"/><polygon class="cls-11" points="453.88 508.08 453.88 471.65 398.41 439.2 398.41 475.84 453.88 508.08"/><polygon class="cls-12" points="425.75 491.8 426.12 455.4 454 471.69 453.5 508.08 425.75 491.8"/></g><g id="Building_3" data-name="Building 3"><polygon class="cls-13" points="737.32 654.89 737.32 394.47 609.74 319.85 609.74 580.5 737.32 654.89"/><polygon class="cls-14" points="737.32 394.47 864.69 319.97 864.69 580.46 737.32 654.89 737.32 394.47"/><polygon class="cls-15" points="864.69 320.32 737.28 245.15 609.74 319.85 737.32 394.47 864.69 320.32"/><polygon class="cls-16" points="840.93 319.69 737.28 259.1 633.62 319.69 737.28 380.37 840.93 319.69"/><polygon class="cls-13" points="737.28 259.1 737.19 271.32 643.1 325.27 633.62 319.69 737.28 259.1"/><polygon class="cls-14" points="737.28 259.1 737.19 271.28 831.41 325.27 840.93 319.69 737.28 259.1"/><polygon class="cls-17" points="707.85 446.19 707.85 464.3 689.1 453.34 689.1 435.22 707.85 446.19"/><polygon class="cls-17" points="681.8 430.94 681.8 449.06 663.04 438.09 663.04 419.98 681.8 430.94"/><polygon class="cls-17" points="655.74 415.69 655.74 433.81 636.94 422.85 636.94 404.73 655.74 415.69"/><polygon class="cls-17" points="707.85 489.3 707.85 507.41 689.1 496.41 689.1 478.33 707.85 489.3"/><polygon class="cls-17" points="681.8 474.05 681.8 492.17 663.04 481.16 663.04 463.09 681.8 474.05"/><polygon class="cls-17" points="655.74 458.8 655.74 476.92 636.94 465.92 636.94 447.8 655.74 458.8"/><polygon class="cls-18" points="608.01 349.87 737.32 425.68 737.32 436.72 608.1 360.21 608.01 349.87"/><polygon class="cls-19" points="866.66 466.07 737.32 541.88 737.36 552.92 866.58 476.41 866.66 466.07"/><polygon class="cls-20" points="866.66 466.07 864.94 465.36 737.36 539.83 737.32 541.88 866.66 466.07"/><polygon class="cls-19" points="866.66 349.87 737.32 425.68 737.36 436.72 866.58 360.21 866.66 349.87"/><polygon class="cls-19" points="866.66 508.55 737.32 584.35 737.36 595.39 866.58 518.85 866.66 508.55"/><polygon class="cls-20" points="866.66 508.55 864.94 507.84 737.36 582.31 737.32 584.35 866.66 508.55"/><polygon class="cls-21" points="818.28 516.84 818.28 534.96 837.08 523.96 837.08 505.84 818.28 516.84"/><polygon class="cls-22" points="737.32 654.89 737.32 595.39 864.9 519.83 864.9 580.5 737.32 654.89"/><polygon class="cls-21" points="766.16 547.34 766.16 565.45 784.92 554.45 784.92 536.33 766.16 547.34"/><polygon class="cls-21" points="792.22 532.09 792.22 550.21 810.98 539.2 810.98 521.13 792.22 532.09"/><polygon class="cls-18" points="608.01 508.55 737.32 584.35 737.32 595.39 608.1 518.85 608.01 508.55"/><polygon class="cls-20" points="608.01 508.55 609.74 507.84 737.32 582.31 737.32 584.35 608.01 508.55"/><polygon class="cls-18" points="608.01 466.07 737.32 541.88 737.32 552.92 608.1 476.41 608.01 466.07"/><polygon class="cls-20" points="608.01 466.07 609.74 465.36 737.32 539.83 737.32 541.88 608.01 466.07"/><polygon class="cls-17" points="656.19 516.84 656.19 534.96 637.44 523.96 637.44 505.84 656.19 516.84"/><polygon class="cls-17" points="708.35 547.34 708.35 565.45 689.59 554.45 689.59 536.33 708.35 547.34"/><polygon class="cls-17" points="682.29 532.09 682.29 550.21 663.49 539.2 663.49 521.13 682.29 532.09"/><polygon class="cls-21" points="767.44 441.98 767.44 460.1 786.19 449.13 786.19 431.02 767.44 441.98"/><polygon class="cls-21" points="793.5 426.74 793.5 444.85 812.25 433.89 812.25 415.77 793.5 426.74"/><polygon class="cls-21" points="819.55 411.49 819.55 429.61 838.3 418.64 838.3 400.52 819.55 411.49"/><polygon class="cls-21" points="767.44 485.09 767.44 503.21 786.19 492.2 786.19 474.09 767.44 485.09"/><polygon class="cls-21" points="793.5 469.85 793.5 487.96 812.25 476.96 812.25 458.88 793.5 469.85"/><polygon class="cls-21" points="819.55 454.6 819.55 472.71 838.3 461.71 838.3 443.59 819.55 454.6"/><polygon class="cls-23" points="737.32 654.89 737.32 595.39 609.74 519.83 609.74 580.5 737.32 654.89"/><polygon class="cls-24" points="667.19 614.02 667.6 579.36 695.05 594.89 694.35 629.86 667.19 614.02"/><polygon class="cls-25" points="708.8 330.23 706.95 242.48 705.76 240.47 705.31 330.11 706.87 332.15 708.8 330.23"/><path class="cls-26" d="M699,302.56c3.78,0,6.81,5.34,6.81,11.95s-3,11.94-6.81,11.94-6.81-5.34-6.81-11.94,3-11.95,6.81-11.95Z"/><path class="cls-27" d="M696.49,302.4c3.73,0,6.81,5,6.81,11.12s-3.08,11.16-6.81,11.16-6.82-5-6.82-11.16,3-11.12,6.82-11.12Z"/><path class="cls-26" d="M712.74,254.11c-5.58,0-10.14,7.94-10.14,17.72s4.56,17.76,10.14,17.76,10.09-7.94,10.09-17.76-4.51-17.72-10.09-17.72Z"/><path class="cls-28" d="M716,253.71c-5.58,0-10.1,7.39-10.1,16.55s4.52,16.5,10.1,16.5,10.09-7.38,10.09-16.5-4.51-16.55-10.09-16.55Z"/><polygon class="cls-29" points="717.33 267.51 737.11 258.78 718.03 273.44 717.33 267.51"/><polygon class="cls-30" points="737.11 258.78 717 275.68 717.33 267.51 718.03 273.44 737.11 258.78"/><polygon class="cls-31" points="766.08 320.75 791.61 305.82 791.61 332.31 766.08 347.24 766.08 320.75"/><polygon class="cls-32" points="770.15 322.32 795.71 307.39 795.71 333.92 770.15 348.85 770.15 322.32"/><polygon class="cls-31" points="745.52 302.44 762.6 292.46 762.6 310.18 745.52 320.13 745.52 302.44"/><polygon class="cls-32" points="748.23 303.5 765.3 293.52 765.3 311.25 748.23 321.19 748.23 303.5"/></g><polygon class="cls-33" points="113.69 543.49 210.44 594.07 243.43 576.91 146.68 526.38 113.69 543.49"/><polygon class="cls-34" points="141.16 545.89 148.88 549.8 148.88 536.66 141.16 532.75 141.16 545.89"/><polygon class="cls-35" points="155.57 546.33 148.88 549.8 148.88 536.66 155.57 533.2 155.57 546.33"/><polygon class="cls-36" points="155.57 533.2 148.88 536.66 141.16 532.72 147.84 529.28 155.57 533.2"/><polygon class="cls-37" points="127.91 531.1 148.86 541.7 148.86 506.08 127.91 495.48 127.91 531.1"/><polygon class="cls-38" points="166.98 532.3 148.86 541.7 148.86 506.08 166.98 496.68 166.98 532.3"/><polygon class="cls-39" points="166.98 496.68 148.86 506.08 127.91 495.4 146.03 486.07 166.98 496.68"/><polygon class="cls-34" points="172.1 561.92 179.83 565.83 179.83 552.69 172.1 548.78 172.1 561.92"/><polygon class="cls-35" points="186.51 562.36 179.83 565.83 179.83 552.69 186.51 549.22 186.51 562.36"/><polygon class="cls-36" points="186.51 549.22 179.83 552.69 172.1 548.75 178.78 545.31 186.51 549.22"/><polygon class="cls-37" points="158.85 547.12 179.81 557.73 179.81 522.11 158.85 511.5 158.85 547.12"/><polygon class="cls-38" points="197.93 548.33 179.81 557.73 179.81 522.11 197.93 512.71 197.93 548.33"/><polygon class="cls-39" points="197.93 512.71 179.81 522.11 158.85 511.43 176.97 502.1 197.93 512.71"/><polygon class="cls-34" points="203.45 578.71 211.18 582.62 211.18 569.48 203.45 565.57 203.45 578.71"/><polygon class="cls-35" points="217.86 579.15 211.18 582.62 211.18 569.48 217.86 566.01 217.86 579.15"/><polygon class="cls-37" points="190.2 563.91 211.16 574.52 211.16 538.9 190.2 528.29 190.2 563.91"/><polygon class="cls-38" points="229.28 565.12 211.16 574.52 211.16 538.9 229.28 529.5 229.28 565.12"/><polygon class="cls-39" points="229.28 529.5 211.16 538.9 190.2 528.22 208.33 518.89 229.28 529.5"/><polygon class="cls-40" points="452.25 552.22 452.25 648.87 373.22 687.43 373.22 590.78 452.25 552.22"/><polygon class="cls-41" points="422.45 585.98 422.45 599.17 411.67 604.43 411.67 591.24 422.45 585.98"/><polygon class="cls-42" points="373.52 591.21 373.52 687.86 249.45 620.62 249.45 524.92 373.52 591.21"/><polygon class="cls-43" points="237.32 537.95 239.6 539.03 239.6 560.06 237.32 558.97 237.32 537.95"/><polygon class="cls-43" points="323.36 587.64 323.36 635.63 257.39 600.74 257.39 553.22 323.36 587.64"/><polygon class="cls-44" points="321.34 589.33 321.34 632.29 259.57 599.56 259.57 557.02 321.34 589.33"/><polygon class="cls-43" points="332.69 590.84 358.61 604.55 358.61 679.77 332.69 665.73 332.69 590.84"/><polygon class="cls-44" points="334.45 593.74 356.86 605.8 356.86 650.73 334.45 638.58 334.45 593.74"/><polygon class="cls-45" points="452.56 552.59 373.52 591.16 249.44 524.92 327.04 489.19 452.56 552.59"/><polygon class="cls-41" points="367.84 531.72 339.37 545.62 299.93 522.79 327.89 509.92 367.84 531.72"/><polygon class="cls-43" points="254.45 529.57 256.8 530.64 239.6 539.04 237.31 537.96 254.45 529.57"/><polygon class="cls-41" points="326.7 500.3 266.25 528.06 260.15 525.17 327.2 494.37 437.36 551.06 430.78 554.28 326.7 500.3"/><polygon class="cls-41" points="256.79 530.64 256.79 551.67 239.6 560.06 239.6 539.03 256.79 530.64"/><g id="House"><polygon class="cls-46" points="690.68 687.33 690.68 731.33 692.79 730.14 692.79 686.14 690.68 687.33"/><polygon class="cls-47" points="690.68 687.33 690.68 731.33 688.57 730.14 688.57 686.14 690.68 687.33"/><polygon class="cls-48" points="537.77 789.23 537.77 665.64 676.39 588.42 676.39 712.03 537.77 789.23"/><polygon class="cls-49" points="413.86 720.19 413.86 596.54 537.8 665.58 537.8 789.29 413.86 720.19"/><polygon class="cls-6" points="413.86 596.54 552.38 519.32 676.36 588.39 537.8 665.54 413.86 596.54"/><polygon class="cls-27" points="431.1 595.98 551.44 528.93 659.13 588.91 538.75 655.96 431.1 595.98"/><polygon class="cls-50" points="568.85 771.88 568.85 742.34 606.73 721.25 606.73 750.79 568.85 771.88"/><polygon class="cls-46" points="586.63 745.59 586.63 789.59 588.7 788.43 588.7 744.43 586.63 745.59"/><polygon class="cls-47" points="586.63 745.59 586.63 789.59 584.52 788.43 584.52 744.43 586.63 745.59"/><polygon class="cls-51" points="616.59 745.29 616.59 715.75 667.92 687.16 667.92 716.71 616.59 745.29"/><polygon class="cls-7" points="657.74 655.23 699.19 678.34 583.32 742.87 541.8 719.82 657.74 655.23"/><polygon class="cls-26" points="699.19 678.34 699.19 682.79 583.32 747.41 583.32 742.87 699.19 678.34"/><polygon class="cls-6" points="541.73 719.73 541.73 724.2 583.32 747.41 583.32 742.87 541.73 719.73"/><polygon class="cls-8" points="459.09 653.51 459.09 668.79 442.48 659.51 442.48 644.22 459.09 653.51"/><polygon class="cls-8" points="505.3 679.24 505.3 694.52 488.65 685.24 488.65 669.99 505.3 679.24"/><polygon class="cls-8" points="482.21 666.37 482.18 681.66 465.56 672.38 465.56 657.12 482.21 666.37"/><polygon class="cls-8" points="459.09 691.71 459.09 706.99 442.48 697.71 442.48 682.46 459.09 691.71"/><polygon class="cls-8" points="505.3 717.44 505.3 732.72 488.65 723.47 488.65 708.19 505.3 717.44"/><polygon class="cls-8" points="482.21 704.57 482.18 719.86 465.56 710.61 465.56 695.32 482.21 704.57"/><polygon class="cls-8" points="634.77 633.08 634.77 648.37 651.38 639.12 651.38 623.83 634.77 633.08"/><polygon class="cls-8" points="588.59 658.81 588.59 674.1 605.21 664.85 605.21 649.56 588.59 658.81"/><polygon class="cls-8" points="611.68 645.95 611.68 661.24 628.29 651.98 628.29 636.7 611.68 645.95"/><polygon class="cls-8" points="566.05 671.38 566.05 686.63 582.7 677.38 582.7 662.1 566.05 671.38"/><polygon class="cls-52" points="551.44 528.93 551.44 536.33 437.6 599.59 430.73 596.11 551.44 528.93"/><polygon class="cls-53" points="551.44 528.93 551.44 536.33 652.47 592.6 659.13 588.91 551.44 528.93"/></g><polygon class="cls-54" points="638.02 666.3 679.98 689.12 687.01 685.21 645.56 662.1 638.02 666.3"/><polygon class="cls-54" points="650.2 659.44 692.16 682.26 699.19 678.34 657.74 655.23 650.2 659.44"/><polygon class="cls-54" points="624.71 673.6 666.67 696.41 673.7 692.5 632.25 669.39 624.71 673.6"/><polygon class="cls-54" points="611.15 681.12 653.12 703.94 660.14 700.03 618.69 676.92 611.15 681.12"/><polygon class="cls-54" points="597.49 688.72 639.46 711.54 646.48 707.63 605.04 684.52 597.49 688.72"/><polygon class="cls-54" points="583.32 696.61 625.29 719.43 632.32 715.52 590.87 692.4 583.32 696.61"/><polygon class="cls-54" points="568.8 704.83 610.77 727.65 617.79 723.74 576.35 700.63 568.8 704.83"/><polygon class="cls-54" points="555.15 712.41 597.12 735.23 604.14 731.31 562.7 708.2 555.15 712.41"/><polygon class="cls-54" points="541.8 719.82 583.54 742.87 590.57 738.96 549.12 715.85 541.8 719.82"/></g></g></g></svg>