<svg xmlns="http://www.w3.org/2000/svg" viewBox="0 0 515.99 385.98"><defs><style>.cls-1{isolation:isolate;}.cls-2{opacity:0.2;}.cls-2,.cls-6{mix-blend-mode:multiply;}.cls-3{fill:#0f3b7c;}.cls-4{fill:#032351;}.cls-5{fill:#052142;}.cls-6{fill:#9a9b9a;opacity:0.4;}.cls-7{fill:#231f20;}.cls-8{fill:#949494;}.cls-10,.cls-11,.cls-12,.cls-13,.cls-14,.cls-15,.cls-16,.cls-17,.cls-18,.cls-19,.cls-20,.cls-8,.cls-9{fill-rule:evenodd;}.cls-9{fill:#cecece;}.cls-10{fill:#75b6c6;}.cls-11{fill:#55a4b7;}.cls-12{fill:#d0dee2;}.cls-13{fill:#9cb1b7;}.cls-14{fill:#2b3160;}.cls-15{fill:#e5e5e4;}.cls-16{fill:#b3b2b3;}.cls-17{fill:#fff;}.cls-18{fill:#115688;}.cls-19,.cls-23{fill:#ebebeb;}.cls-20{fill:#717677;}.cls-21{fill:#ef4a23;}.cls-22{fill:#e08a73;}</style></defs><title>Asset 40</title><g class="cls-1"><g id="Layer_2" data-name="Layer 2"><g id="Vision_Picture" data-name="Vision Picture"><g class="cls-2"><path d="M501.42,152.19c14.39,8.3,14.47,21.78.17,30.09L188.67,364.12c-14.29,8.31-37.55,8.31-51.94,0L14.62,293.62c-14.39-8.3-14.47-21.78-.18-30.09L327.36,81.69c14.29-8.31,37.56-8.31,51.95,0Z"/><path d="M326.26,81.66a1,1,0,0,1,1.1,0c14.29-8.31,37.56-8.31,51.95,0a1,1,0,0,1,1.08,0,38.42,38.42,0,0,0-4.95-2.42c-1.52-.59-3.57-1.3-5.13-1.79-.81-.26-1.91-.52-2.74-.72a63.83,63.83,0,0,0-14.27-1.61A62.9,62.9,0,0,0,339,76.73c-.84.21-2,.47-2.8.74-1.55.5-3.59,1.21-5.1,1.8-.8.31-1.82.8-2.59,1.18S326.93,81.29,326.26,81.66Z"/><path d="M380.39,81.65l12.21,7,12.21,7,12.22,7,12.21,7,12.21,7.05,12.21,7,12.21,7,12.21,7.05,12.21,7,12.21,7.05a1,1,0,0,0-1.08,0L379.31,81.69A1,1,0,0,1,380.39,81.65Z"/><path d="M13.34,263.5l31.29-18.18,31.3-18.19L107.22,209l31.29-18.19,31.29-18.18,31.29-18.18,31.29-18.19L263.67,118,295,99.84l31.3-18.18a1,1,0,0,1,1.1,0L14.44,263.53A1,1,0,0,0,13.34,263.5Z"/><path d="M515.79,170.84a24.09,24.09,0,0,0-.69-3.47,22.12,22.12,0,0,0-1.32-3.59,23.26,23.26,0,0,0-1.57-2.83,20,20,0,0,0-1.71-2.29,35.85,35.85,0,0,0-2.59-2.64,40.45,40.45,0,0,0-3.45-2.65c-.56-.4-1.37-.85-2-1.22a1,1,0,0,0-1.08,0c14.39,8.3,14.47,21.78.17,30.09L188.67,364.12c-14.29,8.31-37.55,8.31-51.94,0h0L14.62,293.62c-14.39-8.3-14.47-21.78-.18-30.09a1,1,0,0,0-1.1,0c-1.1.69-2.55,1.65-3.6,2.41a17.54,17.54,0,0,0-1.64,1.35,31.19,31.19,0,0,0-2.3,2.3,24.37,24.37,0,0,0-2.25,3,22.69,22.69,0,0,0-2.68,6.14,25.45,25.45,0,0,0-.67,3.43,26,26,0,0,0-.2,3.1V287a14,14,0,0,0,.41,3.39A14,14,0,0,1,0,287a24.78,24.78,0,0,0,1,7,23,23,0,0,0,2.62,5.87,22.46,22.46,0,0,0,1.83,2.51,39.05,39.05,0,0,0,2.77,2.84,37.16,37.16,0,0,0,3.4,2.59c.55.39,1.34.83,1.91,1.19h0l122.11,70.5a40.37,40.37,0,0,0,4.95,2.43c1.52.58,3.57,1.29,5.12,1.78.81.26,1.92.52,2.75.72A63.7,63.7,0,0,0,162.7,386a62.88,62.88,0,0,0,14.3-1.62c.84-.21,2-.47,2.8-.74,1.54-.5,3.59-1.21,5.1-1.8.8-.3,1.82-.8,2.59-1.18s1.57-.84,2.24-1.21a2.58,2.58,0,0,0,1-1.35,2.58,2.58,0,0,1-1,1.35L314.9,306.7,502.64,197.59c1.07-.66,2.48-1.54,3.47-2.3s2.2-1.85,3.09-2.7a20.85,20.85,0,0,0,1.87-2.12c.56-.73,1.24-1.75,1.72-2.53a23.51,23.51,0,0,0,2.25-5.28,24.57,24.57,0,0,0,.71-3.39,26.9,26.9,0,0,0,.24-3.43h0v-1.7A25.14,25.14,0,0,0,515.79,170.84Z"/></g><g class="cls-1"><path class="cls-3" d="M501.42,142.81c14.39,8.31,14.47,21.78.17,30.09L188.67,354.75c-14.29,8.31-37.55,8.31-51.94,0L14.62,284.25C.23,275.94.15,262.46,14.44,254.16L327.36,72.31c14.29-8.31,37.56-8.31,51.95,0Z"/><path class="cls-4" d="M326.26,72.28a1.06,1.06,0,0,1,1.1,0c14.29-8.31,37.56-8.31,51.95,0a1,1,0,0,1,1.08,0,41.2,41.2,0,0,0-4.95-2.43c-1.52-.58-3.57-1.29-5.13-1.79-.81-.25-1.91-.51-2.74-.71a63.25,63.25,0,0,0-14.27-1.61A62.34,62.34,0,0,0,339,67.36c-.84.2-2,.47-2.8.74-1.55.49-3.59,1.21-5.1,1.79-.8.31-1.82.81-2.59,1.19S326.93,71.92,326.26,72.28Z"/><path class="cls-4" d="M380.39,72.28l12.21,7,12.21,7L417,93.43l12.21,7,12.21,7,12.21,7,12.21,7,12.21,7.05,12.21,7,12.21,7.05a1,1,0,0,0-1.08,0L379.31,72.31A1,1,0,0,1,380.39,72.28Z"/><path class="cls-4" d="M13.34,254.13l31.29-18.19,31.3-18.18,31.29-18.19,31.29-18.18,31.29-18.18L201.09,145l31.29-18.18,31.29-18.19L295,90.47l31.3-18.19a1.06,1.06,0,0,1,1.1,0L14.44,254.16A1,1,0,0,0,13.34,254.13Z"/><path class="cls-4" d="M515.79,161.46a23.86,23.86,0,0,0-.69-3.46,21.79,21.79,0,0,0-1.32-3.59,23.26,23.26,0,0,0-1.57-2.83,20,20,0,0,0-1.71-2.29,36,36,0,0,0-2.59-2.65,42.61,42.61,0,0,0-3.45-2.65c-.56-.4-1.37-.85-2-1.21a1,1,0,0,0-1.08,0c14.39,8.31,14.47,21.78.17,30.09L188.67,354.75c-14.29,8.31-37.55,8.31-51.94,0h0L14.62,284.25C.23,275.94.15,262.46,14.44,254.16a1,1,0,0,0-1.1,0c-1.1.68-2.55,1.65-3.6,2.4a19.27,19.27,0,0,0-1.64,1.35,29.49,29.49,0,0,0-2.3,2.31,25.29,25.29,0,0,0-2.25,3,22.73,22.73,0,0,0-2.68,6.15,25.45,25.45,0,0,0-.67,3.43,26,26,0,0,0-.2,3.1v1.69A13.92,13.92,0,0,0,.41,281,13.92,13.92,0,0,1,0,277.57a24.92,24.92,0,0,0,1,7,22.52,22.52,0,0,0,4.45,8.37,37.26,37.26,0,0,0,2.77,2.85,41.14,41.14,0,0,0,3.4,2.59c.55.39,1.34.83,1.91,1.18h0l122.11,70.51a39.33,39.33,0,0,0,4.95,2.42c1.52.59,3.57,1.29,5.12,1.79.81.26,1.92.52,2.75.72a63.71,63.71,0,0,0,14.27,1.6A62.89,62.89,0,0,0,177,375c.84-.21,2-.48,2.8-.74,1.54-.5,3.59-1.22,5.1-1.8.8-.31,1.82-.8,2.59-1.18s1.57-.85,2.24-1.21a2.63,2.63,0,0,0,1-1.35,2.63,2.63,0,0,1-1,1.35L314.9,297.32l187.74-109.1c1.07-.66,2.48-1.55,3.47-2.31a39.54,39.54,0,0,0,3.09-2.7,19.83,19.83,0,0,0,1.87-2.12c.56-.72,1.24-1.74,1.72-2.52a23.51,23.51,0,0,0,2.25-5.28,24.43,24.43,0,0,0,.71-3.4,26.9,26.9,0,0,0,.24-3.43h0v-1.7A25.24,25.24,0,0,0,515.79,161.46Z"/></g><path class="cls-5" d="M427.67,124.5c1.48.85,1.48,2.23,0,3.08a5.86,5.86,0,0,1-5.3,0l-26.6-15.35c-1.47-.85-1.48-2.23,0-3.07a5.85,5.85,0,0,1,5.31,0Z"/><path class="cls-5" d="M385.71,100.27c1.46.85,1.47,2.22,0,3.07a5.83,5.83,0,0,1-5.3,0c-1.47-.85-1.48-2.22,0-3.07A5.85,5.85,0,0,1,385.71,100.27Z"/><ellipse class="cls-6" cx="84.68" cy="301.56" rx="10.86" ry="18.75" transform="translate(-217.12 385.38) rotate(-89.84)"/><path class="cls-5" d="M73.24,295.76c7.31-4.24,19.17-4.24,26.51,0a16.32,16.32,0,0,1,2,1.36,13.2,13.2,0,0,0-3.85-3.24c-7.34-4.24-19.21-4.24-26.51,0-6.56,3.82-7.17,9.76-1.89,14C66.37,303.89,67.6,299,73.24,295.76Z"/><path class="cls-7" d="M468.24,176.28c2.37,1.37,2.39,3.6,0,5L198.71,337.91a9.49,9.49,0,0,1-8.59,0L38.51,250.37c-2.38-1.37-2.39-3.61,0-5L308,88.74a9.49,9.49,0,0,1,8.59,0ZM198.08,337.54,467.64,180.89c2-1.17,2-3.07,0-4.24L316,89.11a8.07,8.07,0,0,0-7.32,0L39.12,245.76c-2,1.17-2,3.07,0,4.24l151.62,87.54a8.07,8.07,0,0,0,7.32,0"/><path class="cls-5" d="M467.61,176.65c2,1.17,2,3.07,0,4.24L198.08,337.54a8.07,8.07,0,0,1-7.32,0L39.14,250c-2-1.17-2-3.07,0-4.24L308.67,89.11a8.07,8.07,0,0,1,7.32,0Z"/><g id="House"><polygon class="cls-8" points="117.41 198.68 117.41 235.94 115.63 234.93 115.63 197.67 117.41 198.68"/><polygon class="cls-9" points="117.41 198.68 117.41 235.94 119.2 234.93 119.2 197.67 117.41 198.68"/><polygon class="cls-10" points="246.91 284.97 246.91 180.31 129.51 114.91 129.51 219.6 246.91 284.97"/><polygon class="cls-11" points="351.85 226.51 351.85 121.79 246.88 180.26 246.88 285.03 351.85 226.51"/><polygon class="cls-12" points="351.85 121.79 234.54 56.39 129.54 114.89 246.88 180.23 351.85 121.79"/><polygon class="cls-13" points="337.25 121.31 235.34 64.53 144.14 115.33 246.08 172.11 337.25 121.31"/><polygon class="cls-14" points="220.59 270.29 220.59 245.27 188.51 227.41 188.51 252.43 220.59 270.29"/><polygon class="cls-8" points="205.53 248.02 205.53 285.28 203.78 284.3 203.78 247.03 205.53 248.02"/><polygon class="cls-9" points="205.53 248.02 205.53 285.28 207.32 284.3 207.32 247.03 205.53 248.02"/><polygon class="cls-14" points="180.16 247.76 180.16 222.75 136.69 198.54 136.69 223.56 180.16 247.76"/><polygon class="cls-15" points="145.31 171.5 110.21 191.07 208.33 245.72 243.5 226.2 145.31 171.5"/><polygon class="cls-16" points="110.21 191.07 110.21 194.83 208.33 249.56 208.33 245.72 110.21 191.07"/><polygon class="cls-17" points="243.56 226.11 243.56 229.91 208.33 249.56 208.33 245.72 243.56 226.11"/><polygon class="cls-18" points="313.54 170.03 313.54 182.98 327.62 175.12 327.62 162.17 313.54 170.03"/><polygon class="cls-18" points="274.41 191.83 274.41 204.77 288.51 196.91 288.51 183.99 274.41 191.83"/><polygon class="cls-18" points="293.96 180.93 293.99 193.88 308.06 186.01 308.06 173.09 293.96 180.93"/><polygon class="cls-18" points="313.54 202.38 313.54 215.33 327.62 207.47 327.62 194.55 313.54 202.38"/><polygon class="cls-18" points="274.41 224.18 274.41 237.12 288.51 229.29 288.51 216.34 274.41 224.18"/><polygon class="cls-18" points="293.96 213.28 293.99 226.23 308.06 218.39 308.06 205.45 293.96 213.28"/><polygon class="cls-19" points="235.34 64.53 235.34 70.8 331.74 124.38 337.56 121.43 235.34 64.53"/><polygon class="cls-20" points="235.34 64.53 235.34 70.8 149.77 118.45 144.14 115.33 235.34 64.53"/></g><polygon class="cls-21" points="162.01 180.87 126.47 200.19 120.52 196.88 155.62 177.31 162.01 180.87"/><polygon class="cls-21" points="151.7 175.06 116.16 194.38 110.21 191.07 145.31 171.5 151.7 175.06"/><polygon class="cls-21" points="173.29 187.05 137.74 206.37 131.79 203.06 166.9 183.49 173.29 187.05"/><polygon class="cls-21" points="184.77 193.42 149.23 212.75 143.28 209.43 178.38 189.86 184.77 193.42"/><polygon class="cls-21" points="196.34 199.86 160.79 219.19 154.84 215.87 189.94 196.3 196.34 199.86"/><polygon class="cls-21" points="208.33 206.54 172.79 225.86 166.84 222.55 201.94 202.98 208.33 206.54"/><polygon class="cls-21" points="220.63 213.5 185.09 232.83 179.14 229.51 214.24 209.94 220.63 213.5"/><polygon class="cls-21" points="232.19 219.92 196.65 239.24 190.7 235.93 225.8 216.36 232.19 219.92"/><polygon class="cls-21" points="243.5 226.2 208.15 245.72 202.2 242.4 237.3 222.83 243.5 226.2"/><g class="cls-1"><path class="cls-22" d="M256.34,69.4l-2.53,1.47c-3.69,2.15-8.8,1.84-14.44-1.41L241.9,68C247.53,71.25,252.65,71.55,256.34,69.4Z"/><path class="cls-22" d="M225.05,21.38l2.53-1.47c-3.65,2.12-5.91,6.62-5.92,13,0,12.89,9,28.59,20.24,35.06l-2.53,1.47C228.16,63,219.09,47.29,219.13,34.4,219.15,28,221.41,23.49,225.05,21.38Z"/><polygon class="cls-22" points="268.71 84.39 271.24 82.92 241.73 127.6 239.2 129.07 268.71 84.39"/><path class="cls-22" d="M214.84,3.81l2.53-1.47c6.31-3.67,15-3.15,24.71,2.42l-2.53,1.47C229.9.66,221.15.14,214.84,3.81Z"/><path class="cls-22" d="M239.55,6.23l2.53-1.47c19.17,11.07,34.66,37.91,34.6,60,0,7.84-2,13.76-5.44,18.21l-2.53,1.47c3.42-4.45,5.42-10.38,5.44-18.21C274.22,44.14,258.72,17.3,239.55,6.23Z"/><path class="cls-21" d="M239.55,6.23c19.17,11.07,34.67,37.91,34.6,60,0,7.83-2,13.76-5.44,18.21L239.2,129.07,210,50.51c-3.38-8.37-5.34-16.58-5.32-24.43C204.77,4.05,220.37-4.84,239.55,6.23Zm-.18,63.23c11.21,6.47,20.33,1.27,20.37-11.62s-9-28.58-20.24-35.05-20.33-1.28-20.37,11.61,9,28.58,20.24,35.06"/></g><path class="cls-23" d="M175.1,152.73l1,19.42L174,171l-.39-8.51c-.11-2.69-.25-5.94-.22-8.27l-.07-.05c-.57,1.89-1.26,3.84-2.09,6l-2.92,7.47-1.6-.92-2.63-10.51c-.78-3.1-1.42-5.91-1.88-8.42-.1,2.3-.23,5.39-.39,8.12l-.46,7.82-2-1.16,1.2-18.17,2.7,1.56L166,156.6c.68,2.72,1.23,5.11,1.64,7.3l.07,0a50.59,50.59,0,0,1,1.74-5.35l3-7.43Z"/><path class="cls-23" d="M186,159l5.54,22.06-2.26-1.3-1.74-6.93-5.81-3.36L180,174.44l-2.19-1.26,5.62-15.62Zm-3.83,8.82,4.94,2.85-1.59-6.34c-.36-1.45-.6-2.7-.84-3.93l0,0c-.25,1-.52,2-.84,2.93l-1.62,4.52"/><path class="cls-23" d="M203.39,182.75a48.86,48.86,0,0,0,1.25,5.9l-2.19-1.26a42.43,42.43,0,0,1-1.08-5.13c-.48-2.88-1.35-4.37-3.27-5.56l-2-1.15,0,8.15L194,182.48,194,163.9a26.52,26.52,0,0,1,4.06,2,12.49,12.49,0,0,1,4.74,4.27,8.37,8.37,0,0,1,1.28,4.32c0,2.49-1.38,3.36-3.11,3v.09A9.36,9.36,0,0,1,203.39,182.75Zm-5.12-7.8c2.27,1.31,3.71.71,3.71-1.44,0-2.43-1.52-4.38-3.76-5.7a10.07,10.07,0,0,0-2.1-1l0,6.88,2.17,1.25"/><path class="cls-23" d="M218.21,177.62l-6,4.57,6.36,14.53-2.5-1.45-5.38-12.37-1.56,1.18,0,7.18L207,190l.06-18.84,2.12,1.23,0,9.08.07,0a16.78,16.78,0,0,1,1.3-1.26l5-4.18Z"/><polygon class="cls-23" points="229.13 183.93 229.13 185.97 222.39 182.08 222.37 188.03 228.75 191.7 228.74 193.72 222.37 190.04 222.35 196.83 229.45 200.93 229.44 202.97 220.22 197.65 220.28 178.81 229.13 183.93"/><polygon class="cls-23" points="242.9 191.87 242.89 193.94 237.88 191.05 237.83 207.81 235.69 206.58 235.74 189.81 230.75 186.93 230.76 184.87 242.9 191.87"/></g></g></g></svg>