<svg xmlns="http://www.w3.org/2000/svg" viewBox="0 0 1405.08 1338.58"><defs><style>.cls-1{opacity:0.2;}.cls-11,.cls-2{fill:none;stroke-miterlimit:10;}.cls-2{stroke:#f9f9f9;}.cls-3,.cls-4,.cls-7{fill:#2d3a8c;}.cls-3{opacity:0.13;}.cls-4{opacity:0.28;}.cls-5{fill:#008bad;}.cls-6{fill:#2e317b;}.cls-6,.cls-7,.cls-8{opacity:0.66;}.cls-8{fill:#2a2867;}.cls-9{font-size:25.12px;fill:#fff;font-family:Ebrima-Bold, Ebrima;font-weight:700;}.cls-10{font-size:20.83px;}.cls-11{stroke:#008bad;stroke-width:2px;}</style></defs><title>Asset 62</title><g id="Layer_2" data-name="Layer 2"><g id="Main"><g id="Roadmap"><g id="Roadmap_Lines" data-name="Roadmap Lines" class="cls-1"><path class="cls-2" d="M1264.37,1095.28l-140.45,81.09-140.45-81.09V933.13"/><path class="cls-2" d="M702.54,933.1,843,852V689.83"/><path class="cls-2" d="M1123.92,933.1,1264.37,852V689.83l140.46-81.09"/><path class="cls-2" d="M843,608.74l140.46,81.09"/><path class="cls-2" d="M632.29,1298l140.5-81.12V1054.74L632.31,973.67l-140.45,81.06"/><path class="cls-2" d="M913.24,811.46l140.45-81.09,140.46,81.09"/><path class="cls-2" d="M1264.35,608.73V446.55"/><path class="cls-2" d="M1123.92,689.86,983.44,608.73V446.55"/><path class="cls-2" d="M281.18,1176.37l-140.45-81.09V933.1L.27,852"/><path class="cls-2" d="M211,811.46l140.46-81.09"/><path class="cls-2" d="M491.84,568.19,351.38,487.1"/><path class="cls-2" d="M562.06,203.28V365.46l140.48,81.12"/><path class="cls-2" d="M140.7,203.28V365.46"/><path class="cls-2" d="M351.38,324.92V487.1"/><path class="cls-2" d="M140.73,689.83V852"/><path class="cls-2" d="M.27,689.83l140.46-81.09,140.45,81.09"/><path class="cls-2" d="M562.08,689.83V852"/><path class="cls-2" d="M421.63,1095.28V933.1"/><path class="cls-2" d="M1334.6,1054.73l-140.45-81.08V811.46"/><polyline class="cls-2" points="562.06 122.21 421.61 203.3 421.63 365.49"/><polyline class="cls-2" points="913.22 1054.76 772.79 973.64 632.31 1054.73 632.29 1216.94 772.76 1298.04"/><path class="cls-2" d="M1404.83,446.58l-140.48-81.12V203.3"/><path class="cls-2" d="M983.44,284.39V203.3L843,122.21"/><path class="cls-2" d="M1123.9,203.3l140.45-81.09"/><path class="cls-2" d="M351.38,324.94V487.12"/><path class="cls-2" d="M491.84,81.67,632.29.58"/><path class="cls-2" d="M210.93,81.67V243.85"/><path class="cls-2" d="M.25,122.21,140.7,203.3"/><path class="cls-2" d="M210.93,81.67,351.38.58,491.84,81.67"/><path class="cls-2" d="M140.73,365.49l140.45,81.09"/><polyline class="cls-2" points="1194.15 973.64 1053.67 1054.76 1053.7 1216.92 1194.12 1298.04"/><polyline class="cls-2" points="1053.67 973.67 1194.02 1054.76 1194.02 1217.37 1334.58 1298.03"/><polyline class="cls-2" points="1264.37 1338.58 1264.35 1176.4 1404.83 1095.28"/><line class="cls-2" x1="1264.35" y1="1095.28" x2="1404.8" y2="1176.4"/><polyline class="cls-2" points="843.01 1095.28 702.56 1176.4 562.06 1095.31 421.61 1176.4 421.63 1338.58"/><line class="cls-2" x1="1194.12" y1="730.37" x2="1053.69" y2="811.49"/><polyline class="cls-2" points="1194.02 243.37 1194.02 81.37 1053.68 0.58 913.22 81.67"/></g><g id="Roadmap_Shades" data-name="Roadmap Shades"><polygon class="cls-3" points="1124.25 1014.22 1194.48 1054.77 1194.48 1135.85 1124.25 1176.4 1054.02 1135.85 1054.02 1054.77 1124.25 1014.22"/><polygon class="cls-3" points="772.76 1135.77 772.79 1216.96 702.58 1257.49 632.34 1216.96 632.34 1135.85 702.54 1176.31 772.76 1135.77"/><polygon class="cls-4" points="1194.52 1136.48 1264.23 1095.93 1334.52 1136.49 1264.14 1177.02 1264.23 1258.11 1194.52 1217.57 1194.52 1136.48"/></g><g id="Milestones"><polygon class="cls-5" points="1123.97 324.78 1159.7 345.4 1159.7 386.66 1123.97 407.29 1088.24 386.66 1088.24 345.4 1123.97 324.78"/><polygon class="cls-6" points="1123.97 427.85 1069.94 396.66 1069.94 334.27 1123.97 365.46 1123.97 427.85"/><polygon class="cls-7" points="1123.97 303.07 1069.94 334.27 1123.97 365.46 1178 334.27 1123.97 303.07"/><polygon class="cls-8" points="1123.97 365.46 1123.97 427.85 1178 396.66 1178 334.27 1123.97 365.46"/><text class="cls-9" transform="translate(1100.13 361.91)">Apr<tspan class="cls-10"><tspan x="0" y="23.44">2018</tspan></tspan></text><polygon class="cls-5" points="842.96 324.78 878.69 345.4 878.69 386.66 842.96 407.29 807.23 386.66 807.23 345.4 842.96 324.78"/><polygon class="cls-6" points="842.96 427.85 788.93 396.66 788.93 334.27 842.96 365.46 842.96 427.85"/><polygon class="cls-7" points="842.96 303.07 788.93 334.27 842.96 365.46 896.99 334.27 842.96 303.07"/><polygon class="cls-8" points="842.96 365.46 842.96 427.85 896.99 396.66 896.99 334.27 842.96 365.46"/><text class="cls-9" transform="translate(819.12 361.91)">Sep<tspan class="cls-10"><tspan x="0" y="23.44">2018</tspan></tspan></text><polygon class="cls-5" points="702.52 569.39 738.25 590.02 738.25 631.28 702.52 651.9 666.79 631.28 666.79 590.02 702.52 569.39"/><polygon class="cls-6" points="702.52 672.47 648.49 641.27 648.49 578.88 702.52 610.08 702.52 672.47"/><polygon class="cls-7" points="702.52 547.69 648.49 578.88 702.52 610.08 756.55 578.88 702.52 547.69"/><polygon class="cls-8" points="702.52 610.08 702.52 672.47 756.55 641.27 756.55 578.88 702.52 610.08"/><text class="cls-9" transform="translate(678.69 606.52)">Jan<tspan class="cls-10"><tspan x="0" y="23.44">2019</tspan></tspan></text><polygon class="cls-5" points="419.08 569.95 454.81 590.57 454.81 631.83 419.08 652.46 383.36 631.83 383.36 590.57 419.08 569.95"/><polygon class="cls-6" points="419.08 673.02 365.05 641.83 365.05 579.44 419.08 610.63 419.08 673.02"/><polygon class="cls-7" points="419.08 548.24 365.05 579.44 419.08 610.63 473.12 579.44 419.08 548.24"/><polygon class="cls-8" points="419.08 610.63 419.08 673.02 473.12 641.83 473.12 579.44 419.08 610.63"/><text class="cls-9" transform="translate(395.25 607.08)">Feb<tspan class="cls-10"><tspan x="0" y="23.44">2019</tspan></tspan></text><polygon class="cls-5" points="281.2 812.08 316.93 832.71 316.93 873.96 281.2 894.59 245.48 873.96 245.48 832.71 281.2 812.08"/><polygon class="cls-6" points="281.2 915.15 227.17 883.96 227.17 821.57 281.2 852.76 281.2 915.15"/><polygon class="cls-7" points="281.2 790.37 227.17 821.57 281.2 852.76 335.24 821.57 281.2 790.37"/><polygon class="cls-8" points="281.2 852.76 281.2 915.15 335.24 883.96 335.24 821.57 281.2 852.76"/><text class="cls-9" transform="translate(257.37 849.21)">May<tspan class="cls-10"><tspan x="0" y="23.44">2019</tspan></tspan></text></g><polyline id="RoadMap_Main_Line" data-name="RoadMap Main Line" class="cls-11" points="1194.52 407.37 1194.52 324.94 1053.67 243.83 983.52 284.39 983.52 365.46 842.52 446.58 842.52 608.74 772.61 648.94 772.64 568.19 632.29 487.12 562.09 527.67 562.06 608.74 421.52 689.85 421.52 852.03 281.12 933.63"/></g></g></g></svg>