<svg xmlns="http://www.w3.org/2000/svg" viewBox="0 0 1405.08 1420.1"><defs><style>.cls-1{opacity:0.2;}.cls-2{fill:none;stroke:#f9f9f9;stroke-miterlimit:10;}</style></defs><title>Asset 19</title><g id="Layer_2" data-name="Layer 2"><g id="pattern"><g id="Team_Pattern" data-name="Team Pattern" class="cls-1"><path class="cls-2" d="M983.45,122.21,843,203.3"/><path class="cls-2" d="M1123.9,203.3,983.45,122.21"/><path class="cls-2" d="M1404.8,122.21,1264.35,203.3"/><path class="cls-2" d="M702.56,933.12,843,852"/><path class="cls-2" d="M843,852V689.85"/><path class="cls-2" d="M1123.92,933.12,983.47,852"/><path class="cls-2" d="M1264.37,852V689.85l140.46-81.09"/><path class="cls-2" d="M913.24,811.49l140.45-81.09"/><path class="cls-2" d="M1264.35,608.76V446.58"/><path class="cls-2" d="M1404.8,446.58l-140.45-81.09V203.3"/><path class="cls-2" d="M913.22,568.21l140.45-81.09,140.45,81.09"/><path class="cls-2" d="M1053.67,568.21V730.39l140.48,81.1"/><path class="cls-2" d="M772.76,568.21,632.31,487.12"/><path class="cls-2" d="M140.73,852l140.45,81.09"/><path class="cls-2" d="M421.63,1095.31l-140.45,81.08"/><path class="cls-2" d="M211,1216.94V1054.76l140.46-81.09"/><path class="cls-2" d="M351.41,730.4l140.45,81.09"/><path class="cls-2" d="M210.93,487.12l140.45,81.09V730.39"/><path class="cls-2" d="M491.84,568.21,351.38,487.12"/><path class="cls-2" d="M140.7,1338.58l140.46,81.09"/><path class="cls-2" d="M210.93,1298l140.45-81.09L491.84,1298"/><path class="cls-2" d="M140.7,365.49l140.46,81.09"/><path class="cls-2" d="M140.7,365.49.25,446.57"/><path class="cls-2" d="M351.38,324.94V487.12"/><path class="cls-2" d="M421.61,446.58l140.45-81.09"/><path class="cls-2" d="M562.08,689.85V852"/><path class="cls-2" d="M421.63,1095.31V933.12"/><path class="cls-2" d="M843,446.58l140.45-81.09"/><path class="cls-2" d="M913.22,324.94l140.45-81.09,140.45,81.09V487.12"/><path class="cls-2" d="M1123.92,933.12,1264.37,852"/><polyline class="cls-2" points="632.31 1054.76 772.79 973.63 913.24 1054.72"/><line class="cls-2" x1="562.08" y1="852.03" x2="421.63" y2="933.12"/><polyline class="cls-2" points="1194.13 243.85 1053.67 324.94 1053.97 487.28"/><line class="cls-2" x1="1264.35" y1="365.49" x2="1123.9" y2="446.58"/><polyline class="cls-2" points="1334.65 811.49 1194.15 730.4 1053.69 811.49 1053.97 973.28"/><line class="cls-2" x1="210.93" y1="487.12" x2="70.48" y2="568.21"/><polyline class="cls-2" points="351.38 1216.94 351.4 1054.76 210.95 973.67 70.5 1054.76"/><polyline class="cls-2" points="842.99 122.22 983.45 203.3 982.98 365.28"/><polyline class="cls-2" points="1053.67 81.67 1194.13 0.58 1334.58 81.67"/><polyline class="cls-2" points="421.41 851.89 561.98 933.12 562.09 1095.31"/><polyline class="cls-2" points="350.98 973.28 351.4 811.49 210.95 730.4 210.93 568.21"/></g></g></g></svg>