<?xml version="1.0" encoding="UTF-8"?>
<!DOCTYPE svg PUBLIC "-//W3C//DTD SVG 1.1//EN" "http://www.w3.org/Graphics/SVG/1.1/DTD/svg11.dtd">
<!-- Creator: CorelDRAW 2018 (64-Bit) -->
<svg xmlns="http://www.w3.org/2000/svg" xml:space="preserve" width="873px" height="1008px" version="1.1" style="shape-rendering:geometricPrecision; text-rendering:geometricPrecision; image-rendering:optimizeQuality; fill-rule:evenodd; clip-rule:evenodd"
viewBox="0 0 882.89 1019.47"
 xmlns:xlink="http://www.w3.org/1999/xlink">
 <defs>
  <style type="text/css">
   <![CDATA[
    .fil7 {fill:none}
    .fil0 {fill:#022045}
    .fil6 {fill:#04ADD9;fill-rule:nonzero}
    .fil1 {fill:#0758BA;fill-rule:nonzero}
    .fil3 {fill:#D1AB86;fill-rule:nonzero}
    .fil2 {fill:#FF6403;fill-rule:nonzero}
    .fil4 {fill:#FFE2C2;fill-rule:nonzero}
    .fil5 {fill:white;fill-rule:nonzero}
   ]]>
  </style>
   <clipPath id="id0">
    <path d="M441.45 0l220.72 127.43 220.72 127.44 0 254.87 0 254.87 -220.72 127.43 -220.72 127.43 -220.73 -127.43 -220.72 -127.43 0 -254.87 0 -254.87 220.72 -127.44 220.73 -127.43z"/>
   </clipPath>
 </defs>
 <g id="Layer_x0020_1">
  <metadata id="CorelCorpID_0Corel-Layer"/>
  <polygon class="fil0" points="441.45,0 662.17,127.43 882.89,254.87 882.89,509.74 882.89,764.61 662.17,892.04 441.45,1019.47 220.72,892.04 0,764.61 0,509.74 0,254.87 220.72,127.43 "/>
  <g style="clip-path:url(#id0)">
   <g id="_999000776960">
    <path id="1" class="fil1" d="M226.45 478.68c0,0 23.2,208.56 -35.33,281.8 -58.55,73.11 81.66,62.14 81.66,62.14l118.31 -80.47 18.29 -120.76 -96.33 -163.41 -86.6 20.7z"/>
    <path class="fil1" d="M643.52 478.68c0,0 -23.17,208.56 35.33,281.8 58.58,73.11 -81.69,62.14 -81.69,62.14l-118.32 -80.47 -18.32 -120.76 96.37 -163.41 86.63 20.7z"/>
    <polygon class="fil2" points="550.63,660.43 322.24,656.77 296.36,664.04 287.33,668.97 289.59,675.82 360.5,892.15 381.22,1085.86 498.75,1085.86 509.91,896.24 571.7,676.71 574.25,667.76 "/>
    <path class="fil3" d="M506.5 555.57l-142.77 0c-24.65,0 -44.62,17.65 -44.62,39.36l0 101.34c0,21.72 19.97,39.32 44.62,39.32l142.77 0c21.42,0 39.26,-13.28 43.55,-31.08l1.03 -0.23 0 -109.35c0,-21.71 -19.93,-39.36 -44.58,-39.36z"/>
    <path class="fil4" d="M644.62 368.97c-5.56,-1.75 -11.91,2.19 -18.04,10.22 0.13,-3.97 0.26,-7.84 0.26,-11.71 0,-126.86 -85.85,-229.65 -191.71,-229.65 -105.92,0 -191.75,102.79 -191.75,229.65 0,3.87 0.1,7.74 0.27,11.71 -6.14,-8.03 -12.49,-11.97 -18.04,-10.22 -13.49,4.16 -17.58,39.54 -9.03,78.97 8.49,39.51 26.29,68.14 39.78,63.92 4.78,-1.43 8.32,-6.95 10.61,-15.04 32.59,94.89 95.66,180.84 168.16,180.84 72.5,0 135.51,-85.95 168.12,-180.84 2.26,8.09 5.87,13.61 10.55,15.04 13.59,4.22 31.33,-24.41 39.85,-63.92 8.52,-39.43 4.46,-74.81 -9.03,-78.97z"/>
    <path class="fil5" d="M317.34 666.1c0,0 3.77,35.78 69.01,55.31 65.27,19.52 21.77,65.04 21.77,65.04l-51 10.58 -30.01 -58.52 -12.71 -44.75 2.94 -27.66z"/>
    <path class="fil5" d="M552.82 672.62c0,0 -3.74,35.78 -69.01,55.3 -65.23,19.49 -21.78,65.05 -21.78,65.05l51.08 10.58 29.97 -58.59 12.74 -44.69 -3 -27.65z"/>
    <path class="fil6" d="M360.5 892.15l-60.49 -231.72 -70.82 42.09 13.62 19.65c-59.11,46.99 -125.57,71.93 -139.93,151.29l-6 212.4 284.34 0 -20.72 -193.71z"/>
    <path class="fil6" d="M767.35 873.46c-11.23,-54.13 -61.76,-86.68 -132.7,-143.43l11.03 -14.72 -74.01 -55.68 -61.76 236.61 -11.16 189.62 274.56 0 -5.96 -212.4z"/>
    <path class="fil1" d="M639.13 326.86c3,-30.86 -1.97,-61.75 -15.91,-92.47 -46.68,-83.41 -107.53,-128.47 -188.6,-118.76 -78.64,10.81 -123.22,39.65 -136.71,84.95 -36.62,9.56 -59.39,42.4 -59.33,113.46 -24.62,38.08 -33.42,80.66 -23.55,128.46 13.1,-14.53 26.49,-15.83 40.26,-4.62l11.68 58.94c-6.06,-94.95 24.75,-142.22 40.08,-193.74 24.29,52.59 79.17,79.85 151.96,92.28 -25.3,-21.76 -38.33,-45.4 -24.39,-73.17 10.12,35.64 36.77,56.38 73.2,68.29 -20.04,-23.58 86.53,47.46 95.43,106.34l11.72 -59.04c13.68,-11.07 27.03,-9.78 40.04,4.72 8.8,-42.47 2.83,-80.87 -15.88,-115.64z"/>
   </g>
  </g>
  <polygon class="fil7" points="441.45,0 662.17,127.43 882.89,254.87 882.89,509.74 882.89,764.61 662.17,892.04 441.45,1019.47 220.72,892.04 0,764.61 0,509.74 0,254.87 220.72,127.43 "/>
 </g>
</svg>
