<?xml version="1.0" encoding="UTF-8"?>
<!DOCTYPE svg PUBLIC "-//W3C//DTD SVG 1.1//EN" "http://www.w3.org/Graphics/SVG/1.1/DTD/svg11.dtd">
<!-- Creator: CorelDRAW 2018 (64-Bit) -->
<svg xmlns="http://www.w3.org/2000/svg" xml:space="preserve" width="873px" height="1008px" version="1.1" style="shape-rendering:geometricPrecision; text-rendering:geometricPrecision; image-rendering:optimizeQuality; fill-rule:evenodd; clip-rule:evenodd"
viewBox="0 0 863.79 997.41"
 xmlns:xlink="http://www.w3.org/1999/xlink">
 <defs>
  <style type="text/css">
   <![CDATA[
    .fil7 {fill:none}
    .fil0 {fill:#022045}
    .fil5 {fill:#04ADD9;fill-rule:nonzero}
    .fil6 {fill:#0758BA;fill-rule:nonzero}
    .fil2 {fill:#D1AB86;fill-rule:nonzero}
    .fil1 {fill:#FF6403;fill-rule:nonzero}
    .fil3 {fill:#FFE2C2;fill-rule:nonzero}
    .fil4 {fill:white;fill-rule:nonzero}
   ]]>
  </style>
   <clipPath id="id0">
    <path d="M431.89 0l215.95 124.68 215.95 124.67 0 249.36 0 249.35 -215.95 124.68 -215.95 124.67 -215.94 -124.67 -215.95 -124.68 0 -249.35 0 -249.36 215.95 -124.67 215.94 -124.68z"/>
   </clipPath>
 </defs>
 <g id="Layer_x0020_1">
  <metadata id="CorelCorpID_0Corel-Layer"/>
  <polygon class="fil0" points="431.89,0 647.84,124.68 863.79,249.35 863.79,498.71 863.79,748.06 647.84,872.74 431.89,997.41 215.95,872.74 0,748.06 0,498.71 0,249.35 215.95,124.68 "/>
  <g style="clip-path:url(#id0)">
   <g id="_1000193198368">
    <polygon id="1" class="fil1" points="548.45,636.92 305.58,633.37 278.04,640.53 268.42,645.3 270.79,652.05 346.26,864.3 368.36,1001.8 493.37,1001.8 505.24,868.3 570.93,652.93 573.62,644.1 "/>
    <path class="fil2" d="M501.6 540.91l-151.86 0c-26.27,0 -47.48,16.58 -47.48,37.1l0 95.64c0,20.47 21.21,37.06 47.48,37.06l151.86 0c22.73,0 41.76,-12.57 46.35,-29.29l1.1 -0.3 0 -103.11c0,-20.52 -21.27,-37.1 -47.45,-37.1z"/>
    <path class="fil3" d="M648.52 364.89c-5.95,-1.68 -12.73,2.12 -19.24,9.66 0.19,-3.71 0.31,-7.41 0.31,-11.08 0,-119.6 -91.33,-216.56 -203.93,-216.56 -112.64,0 -203.91,96.96 -203.91,216.56 0,3.67 0.06,7.37 0.23,11.08 -6.49,-7.54 -13.27,-11.34 -19.22,-9.66 -14.34,3.93 -18.64,37.3 -9.59,74.52 9.06,37.24 27.95,64.21 42.36,60.27 5.03,-1.38 8.86,-6.55 11.27,-14.2 34.63,89.54 101.71,170.56 178.86,170.56 77.08,0 144.19,-81.04 178.82,-170.56 2.41,7.65 6.24,12.82 11.31,14.2 14.34,3.94 33.26,-23.03 42.32,-60.27 9.03,-37.22 4.72,-70.59 -9.59,-74.52z"/>
    <path class="fil4" d="M300.39 642.5c0,0 4.02,35.11 73.41,54.28 69.43,19.12 23.12,63.83 23.12,63.83l-54.27 10.34 -31.87 -57.38 -13.59 -43.92 3.2 -27.15z"/>
    <path class="fil4" d="M550.79 648.96c0,0 -3.95,35.04 -73.31,54.21 -69.43,19.16 -23.18,63.82 -23.18,63.82l54.27 10.4 31.9 -57.47 13.55 -43.9 -3.23 -27.06z"/>
    <path class="fil5" d="M346.26 864.3l-67.01 -236.94 -61.45 28.71 4.78 7.79c-91.8,26.88 -157.65,75.48 -157.65,147.05l-9.47 176.3 312.9 0 -22.1 -122.91z"/>
    <path class="fil5" d="M786.32 810.91c0,-67.18 -65.66,-115.3 -157.27,-143.37l4.62 -7.48 -61.41 -28.72 -67.02 236.96 -11.87 118.91 302.48 0 -9.53 -176.3z"/>
    <path class="fil6" d="M550.51 191.41c27.13,-135.35 -377.6,-128.31 -328.53,183.14l24.82 110.93 14.11 -91.08c0,0 142.18,-0.12 256.74,-143.85 42.51,19.11 66.77,55.62 75.16,143.05l11.67 91.88 24.8 -110.93c0,0 35.1,-224.32 -78.77,-183.14z"/>
   </g>
  </g>
  <polygon class="fil7" points="431.89,0 647.84,124.68 863.79,249.35 863.79,498.71 863.79,748.06 647.84,872.74 431.89,997.41 215.95,872.74 0,748.06 0,498.71 0,249.35 215.95,124.68 "/>
 </g>
</svg>
