<svg xmlns="http://www.w3.org/2000/svg" viewBox="0 0 39.79 39.75"><defs><style>.cls-1{fill:#fff;}</style></defs><title>Asset 48</title><g id="Layer_2" data-name="Layer 2"><g id="Main"><g id="Contacts"><g id="Social_Media_Icons" data-name="Social Media Icons"><g id="Telegram"><path class="cls-1" d="M39.79,20A19.9,19.9,0,1,1,20.17,0,19.81,19.81,0,0,1,39.79,20Zm-14-4.69h0a.17.17,0,0,1,0,.21l-.34.36c-2.77,2.53-5.55,5.07-8.31,7.61a1.74,1.74,0,0,0-.68,1.34c-.1,2.24-.17,4.55-.17,4.55s2.36-2.11,3.39-3c1.52,1.12,3,2.27,4.58,3.38.93.68,1.81.69,2.14-.79,1.16-5.07,2.17-10.17,3.26-15.25a3.94,3.94,0,0,0,.1-.47c.05-1-.65-1.44-1.67-1L15.75,16.89c-2.24.87-4.5,1.71-6.73,2.62-.38.16-.95.43-.88.91s.4.5.92.64c1.34.37,2.64.89,4,1.23a2,2,0,0,0,1.38-.18c3.46-2.13,6.89-4.31,10.33-6.47a6.52,6.52,0,0,1,.83-.43A.16.16,0,0,1,25.8,15.26Z"/></g></g></g></g></g></svg>