<svg xmlns="http://www.w3.org/2000/svg" viewBox="0 0 39.79 39.79"><defs><style>.cls-1{fill:#fff;}</style></defs><title>Asset 46</title><g id="Layer_2" data-name="Layer 2"><g id="Main"><g id="Contacts"><g id="Social_Media_Icons" data-name="Social Media Icons"><g id="Twitter"><path class="cls-1" d="M19.89,0a19.9,19.9,0,1,0,19.9,19.89A19.91,19.91,0,0,0,19.89,0Zm8.88,15.34c0,.2,0,.4,0,.6a12.93,12.93,0,0,1-13,13,13.06,13.06,0,0,1-7-2.05,10,10,0,0,0,1.1.06,9.15,9.15,0,0,0,5.68-2,4.58,4.58,0,0,1-4.27-3.18,4.74,4.74,0,0,0,.86.08,4.34,4.34,0,0,0,1.2-.16,4.58,4.58,0,0,1-3.67-4.49V17.2a4.55,4.55,0,0,0,2.07.58,4.6,4.6,0,0,1-2-3.81,4.54,4.54,0,0,1,.62-2.31,13,13,0,0,0,9.44,4.79,4.58,4.58,0,0,1,7.8-4.18,9,9,0,0,0,2.91-1.11,4.59,4.59,0,0,1-2,2.53A8.91,8.91,0,0,0,31.05,13,9.18,9.18,0,0,1,28.77,15.34Z"/></g></g></g></g></g></svg>