<svg xmlns="http://www.w3.org/2000/svg" viewBox="0 0 1405.53 1703.34"><defs><style>.cls-1,.cls-2{fill:#2d3a8c;}.cls-1{opacity:0.28;}.cls-2{opacity:0.13;}.cls-3{opacity:0.2;}.cls-4{fill:none;stroke:#f9f9f9;stroke-miterlimit:10;}</style></defs><title>Asset 53</title><g id="Layer_2" data-name="Layer 2"><g id="pattern"><g id="Whitepaper_Pattern" data-name="Whitepaper Pattern"><g id="Whitepaper_FAQ_Pattern_Shades" data-name="Whitepaper/FAQ Pattern Shades"><polygon class="cls-1" points="913.86 932.2 984.08 972.74 984.09 1053.83 913.86 1094.38 843.63 1053.83 843.63 972.74 913.86 932.2"/><polygon class="cls-2" points="1124.15 567.29 1194.37 607.84 1194.38 688.93 1124.15 729.47 1053.92 688.93 1053.92 607.84 1124.15 567.29"/><polygon class="cls-2" points="492.27 202.63 562.5 243.18 562.5 324.27 492.27 364.81 422.04 324.27 422.04 243.18 492.27 202.63"/><polygon class="cls-1" points="281.38 810.57 351.61 851.11 351.61 932.2 281.38 972.75 211.15 932.2 211.15 851.11 281.38 810.57"/><polygon class="cls-2" points="984.06 810.74 984.08 891.93 913.88 932.46 843.63 891.93 843.63 810.83 913.84 851.28 984.06 810.74"/><polygon class="cls-1" points="983.62 81.09 983.64 162.28 913.44 202.81 843.19 162.28 843.19 81.18 913.4 121.64 983.62 81.09"/><polygon class="cls-1" points="1264.72 567.11 1195.02 526.56 1124.73 567.12 1195.11 607.65 1195.02 688.74 1264.72 648.2 1264.72 567.11"/><polygon class="cls-2" points="632.72 689.11 563.02 648.56 492.73 689.12 563.11 729.65 563.02 810.74 632.72 770.2 632.72 689.11"/><polygon class="cls-2" points="211.72 1419.11 142.02 1378.56 71.73 1419.12 142.11 1459.65 142.02 1540.74 211.72 1500.2 211.72 1419.11"/></g><g id="Whitepaper_FAQ_Lines" data-name="Whitepaper/FAQ Lines" class="cls-3"><path class="cls-4" d="M983.69,729.82V892L843.24,973.09"/><path class="cls-4" d="M1264.6,892l-140.45,81.09L983.69,892"/><path class="cls-4" d="M702.79,973.09,562.31,892"/><path class="cls-4" d="M1124.15,729.82,983.69,648.73"/><path class="cls-4" d="M1194.37,851.46v162.18M773,770.37l140.46,81.09,140.45-81.09"/><path class="cls-4" d="M773,1013.64V851.46m280.91,162.18-140.47,81.09L773,1013.64m421.38-243.27-140.45,81.09"/><path class="cls-4" d="M1053.92,770.37V608.18l140.45-81.09,140.46,81.09"/><path class="cls-4" d="M913.47,608.18l140.45-81.09,140.45,81.09"/><path class="cls-4" d="M632.56,770.37V608.18"/><path class="cls-4" d="M773,608.18V770.37L632.56,851.45"/><path class="cls-4" d="M983.67,243.27,843.22,162.18V0"/><path class="cls-4" d="M1405,405.45V243.27"/><path class="cls-4" d="M1264.58,162.18,1405,243.27"/><path class="cls-4" d="M702.79,243.27,562.33,162.18"/><path class="cls-4" d="M983.67,0V162.18"/><path class="cls-4" d="M773,40.55l140.46,81.09"/><path class="cls-4" d="M421.86,648.73l140.45,81.09V892L421.86,973.09"/><path class="cls-4" d="M421.86,892,281.41,973.09,141,892V729.82"/><path class="cls-4" d="M141,892,.5,973.09"/><path class="cls-4" d="M211.22,933l0-81.54,140.45-81.09"/><path class="cls-4" d="M632.54,851.46,634.22,973"/><path class="cls-4" d="M492.09,608.18l140.45-81.09"/><path class="cls-4" d="M632.52,364.91V527.09"/><path class="cls-4" d="M492.06,121.64,632.52,40.55"/><path class="cls-4" d="M632.52,283.82,492.06,364.91,351.61,283.82"/><path class="cls-4" d="M983.67,1216.36l-140.45-81.09V973.09"/><path class="cls-4" d="M1264.6,892,1405,973.09"/><path class="cls-4" d="M1053.9,1094.73l140.45-81.09"/><path class="cls-4" d="M773,1094.73v162.18L632.54,1338"/><path class="cls-4" d="M.5,1702.91,141,1621.82"/><path class="cls-4" d="M281.41,1459.64l140.45-81.09"/><path class="cls-4" d="M351.61,1256.91,211.16,1338l0,162.19"/><path class="cls-4" d="M211.16,1256.91,351.61,1338v162.18"/><path class="cls-4" d="M773,1338l-140.47-81.09L492.06,1338"/><path class="cls-4" d="M562.29,243.27,421.84,162.18"/><path class="cls-4" d="M562.29,243.27V405.45M281.38,243.27l140.46-81.09"/><path class="cls-4" d="M70.7,121.64,211.16,40.55l140.45,81.09"/><path class="cls-4" d="M421.84,243.27l140.45-81.09"/><path class="cls-4" d="M632.54,770.37,492.09,851.45,351.63,770.37V608.18"/><path class="cls-4" d="M421.86,729.82l140.45-81.09,140.46,81.09"/><path class="cls-4" d="M983.67,1135.28l0-162.19L843.24,892V729.82l140.45-81.09"/><path class="cls-4" d="M843.22,243.27l140.45-81.09,140.46,81.09"/><path class="cls-4" d="M1194.35,121.64V283.82M913.45,121.64,1053.9,40.55"/><path class="cls-4" d="M70.73,851.46l140.45-81.09,140.45,81.09L351.22,933"/><path class="cls-4" d="M211.16,1256.91,70.7,1338"/><path class="cls-4" d="M1124.15,729.82l140.45-81.09,140.45,81.09"/><path class="cls-4" d="M1334.83,851.45l-140.46-81.08V608.18"/><path class="cls-4" d="M.5,1378.55,141,1459.64v162.18"/><path class="cls-4" d="M.5,1621.82V1459.64L141,1378.55l140.46,81.09"/><path class="cls-4" d="M70.73,1581.28l140.45-81.09,140.45,81.09"/><line class="cls-4" x1="1264.6" y1="648.73" x2="1264.57" y2="486.58"/></g></g></g></g></svg>